<svg width="223" height="157" viewBox="0 0 223 157" fill="none" xmlns="http://www.w3.org/2000/svg">
<g filter="url(#filter0_ddd_37_2505)">
<path d="M107 58.5V98.5M97 89.1067L99.93 91.3033C103.833 94.2333 110.163 94.2333 114.07 91.3033C117.977 88.3733 117.977 83.6267 114.07 80.6967C112.12 79.23 109.56 78.5 107 78.5C104.583 78.5 102.167 77.7667 100.323 76.3033C96.6367 73.3733 96.6367 68.6267 100.323 65.6967C104.01 62.7667 109.99 62.7667 113.677 65.6967L115.06 66.7967M137 78.5C137 82.4397 136.224 86.3407 134.716 89.9805C133.209 93.6203 130.999 96.9274 128.213 99.7132C125.427 102.499 122.12 104.709 118.481 106.216C114.841 107.724 110.94 108.5 107 108.5C103.06 108.5 99.1593 107.724 95.5195 106.216C91.8797 104.709 88.5726 102.499 85.7868 99.7132C83.001 96.9274 80.7913 93.6203 79.2836 89.9805C77.776 86.3407 77 82.4397 77 78.5C77 70.5435 80.1607 62.9129 85.7868 57.2868C91.4129 51.6607 99.0435 48.5 107 48.5C114.956 48.5 122.587 51.6607 128.213 57.2868C133.839 62.9129 137 70.5435 137 78.5Z" stroke="#DAFE31" stroke-width="2" stroke-linecap="round" stroke-linejoin="round"/>
</g>
<defs>
<filter id="filter0_ddd_37_2505" x="-9" y="-32.5" width="232" height="232" filterUnits="userSpaceOnUse" color-interpolation-filters="sRGB">
<feFlood flood-opacity="0" result="BackgroundImageFix"/>
<feColorMatrix in="SourceAlpha" type="matrix" values="0 0 0 0 0 0 0 0 0 0 0 0 0 0 0 0 0 0 127 0" result="hardAlpha"/>
<feOffset/>
<feGaussianBlur stdDeviation="4"/>
<feColorMatrix type="matrix" values="0 0 0 0 0.854902 0 0 0 0 0.996078 0 0 0 0 0.192157 0 0 0 1 0"/>
<feBlend mode="normal" in2="BackgroundImageFix" result="effect1_dropShadow_37_2505"/>
<feColorMatrix in="SourceAlpha" type="matrix" values="0 0 0 0 0 0 0 0 0 0 0 0 0 0 0 0 0 0 127 0" result="hardAlpha"/>
<feOffset dy="5"/>
<feGaussianBlur stdDeviation="42.5"/>
<feColorMatrix type="matrix" values="0 0 0 0 0.854902 0 0 0 0 0.996078 0 0 0 0 0.192157 0 0 0 1 0"/>
<feBlend mode="normal" in2="effect1_dropShadow_37_2505" result="effect2_dropShadow_37_2505"/>
<feColorMatrix in="SourceAlpha" type="matrix" values="0 0 0 0 0 0 0 0 0 0 0 0 0 0 0 0 0 0 127 0" result="hardAlpha"/>
<feOffset dy="5"/>
<feGaussianBlur stdDeviation="42.5"/>
<feColorMatrix type="matrix" values="0 0 0 0 0.854902 0 0 0 0 0.996078 0 0 0 0 0.192157 0 0 0 1 0"/>
<feBlend mode="normal" in2="effect2_dropShadow_37_2505" result="effect3_dropShadow_37_2505"/>
<feBlend mode="normal" in="SourceGraphic" in2="effect3_dropShadow_37_2505" result="shape"/>
</filter>
</defs>
</svg>
