<svg width="136" height="28" viewBox="0 0 136 28" fill="none" xmlns="http://www.w3.org/2000/svg">
<g clip-path="url(#clip0_38_3200)">
<path d="M27.9708 17.3865C26.0744 24.8879 18.3704 29.451 10.7628 27.5812C3.15908 25.7113 -1.47004 18.1145 0.427224 10.6149C2.32271 3.11354 10.0262 -1.4509 17.6312 0.418974C25.238 2.28885 29.8672 9.88647 27.9708 17.3865Z" fill="#696997"/>
<path d="M20.4587 12.0052C20.7414 10.1424 19.3029 9.14093 17.336 8.47287L17.974 5.94937L16.4162 5.56655L15.795 8.02355C15.3801 7.92303 14.9642 7.82648 14.5473 7.73393L15.1729 5.26074L13.6156 4.87793L12.9775 7.40055C12.6385 7.32443 12.3058 7.24918 11.9827 7.16999L11.9845 7.16212L9.83613 6.63318L9.42171 8.2738C9.42171 8.2738 10.5775 8.53499 10.5531 8.55118C11.1841 8.70649 11.2981 9.11818 11.279 9.44455L10.5523 12.3194C10.5957 12.3303 10.6521 12.3465 10.7142 12.3706L10.5496 12.3303L9.53086 16.3575C9.45366 16.5465 9.25798 16.83 8.8165 16.7224C8.83248 16.7447 7.68462 16.4437 7.68462 16.4437L6.91125 18.2024L8.93852 18.7012C9.31567 18.7939 9.68527 18.8915 10.0491 18.9834L9.4044 21.5357L10.9605 21.9186L11.5985 19.3929C12.0236 19.5071 12.4362 19.6116 12.84 19.7109L12.2037 22.2244L13.7611 22.6072L14.4062 20.0596C17.0627 20.5553 19.0602 20.3554 19.901 17.9867C20.5785 16.0792 19.8673 14.9789 18.4696 14.261C19.4875 14.0291 20.2542 13.3689 20.4587 12.0052ZM16.8989 16.9262C16.4175 18.8337 13.1603 17.803 12.1043 17.544L12.9598 14.1626C14.0158 14.4229 17.4021 14.9374 16.8989 16.9262ZM17.3808 11.9781C16.9415 13.7128 14.2305 12.8312 13.3511 12.6151L14.1267 9.54824C15.0061 9.76437 17.8383 10.1682 17.3808 11.9781Z" fill="#0E0E2D"/>
<path d="M41.6099 8.47084C42.7613 8.47084 43.7561 8.67428 44.5916 9.07372C45.4319 9.47709 46.125 10.0205 46.681 10.7038C47.2294 11.3907 47.6376 12.1935 47.9011 13.1136C48.1629 14.0367 48.2943 15.0281 48.2943 16.0895C48.2943 17.7213 47.9912 19.2613 47.3793 20.7138C46.767 22.1685 45.9373 23.4307 44.8813 24.507C43.8262 25.5819 42.5803 26.4289 41.1436 27.055C39.7091 27.6815 38.1495 27.9947 36.475 27.9947C36.2584 27.9947 35.8778 27.9886 35.34 27.9777C34.8022 27.9667 34.1842 27.912 33.492 27.8202C32.748 27.7154 32.01 27.5726 31.281 27.3923C30.5181 27.2107 29.777 26.9496 29.0701 26.6135L35.2872 0.854406L40.8556 0.00390625L38.6296 9.1446C39.0925 8.93829 39.573 8.77257 40.0654 8.64935C40.5708 8.52821 41.0898 8.46826 41.6099 8.47084ZM36.9391 23.639C37.7777 23.639 38.5675 23.4355 39.3102 23.0365C40.0568 22.6341 40.712 22.0853 41.2354 21.4239C41.7825 20.7343 42.2129 19.9621 42.5102 19.1371C42.8219 18.2843 42.9802 17.3844 42.9778 16.478C42.9778 15.344 42.7857 14.4611 42.4028 13.821C42.0199 13.1845 41.3113 12.8642 40.2819 12.8642C39.9447 12.8642 39.5108 12.9277 38.9721 13.041C38.4317 13.1613 37.9481 13.4111 37.5146 13.7869L35.1439 23.4942C35.2867 23.5191 35.4132 23.5427 35.521 23.565C35.6266 23.5891 35.7429 23.6062 35.8596 23.618C35.9825 23.6315 36.1231 23.6385 36.2931 23.6385L36.9391 23.639ZM54.069 27.5021H48.7504L53.242 8.86591H58.597L54.069 27.5021ZM56.6571 6.59528C55.9315 6.60122 55.2241 6.37118 54.6445 5.94078C54.0424 5.50678 53.7438 4.83872 53.7438 3.93834C53.7438 3.44309 53.8458 2.97847 54.0486 2.54009C54.2446 2.11544 54.5193 1.73067 54.8588 1.40566C55.199 1.08546 55.5941 0.827276 56.0257 0.643094C56.4749 0.453807 56.9588 0.357607 57.4473 0.360469C58.1892 0.360469 58.8583 0.578344 59.4582 1.01497C60.0554 1.45378 60.3558 2.12184 60.3558 3.01741C60.3587 3.50081 60.2542 3.97897 60.0496 4.41828C59.8556 4.84335 59.5816 5.22829 59.2421 5.55272C58.9027 5.87333 58.5074 6.13092 58.0752 6.31309C57.6306 6.50472 57.1594 6.59528 56.6571 6.59528ZM63.258 4.22272L68.8287 3.37178L67.4608 8.86503H73.4268L72.3494 13.1867H66.4194L64.8398 19.7054C64.6943 20.2483 64.6118 20.7558 64.5887 21.2279C64.5621 21.7017 64.6233 22.1086 64.7671 22.4512C64.9099 22.7946 65.1664 23.0593 65.5391 23.2461C65.9105 23.4364 66.4416 23.5322 67.1382 23.5322C67.7119 23.5322 68.2714 23.4784 68.8109 23.3717C69.3653 23.2633 69.911 23.1156 70.4438 22.9298L70.8413 26.9701C70.078 27.2426 69.2979 27.4669 68.5057 27.6417C67.6658 27.8324 66.6714 27.9238 65.5222 27.9238C63.8699 27.9238 62.5889 27.6819 61.6763 27.2007C60.7649 26.7159 60.1206 26.0527 59.7351 25.2135C59.3548 24.3779 59.1849 23.4141 59.2324 22.3278C59.2812 21.2393 59.448 20.0948 59.7351 18.8903L63.258 4.22272ZM73.1929 20.0607C73.1929 18.455 73.4565 16.9417 73.9827 15.5242C74.5085 14.1058 75.2659 12.8655 76.2482 11.8015C77.2275 10.7428 78.4206 9.90322 79.8253 9.28722C81.2221 8.67472 82.7875 8.36584 84.5117 8.36584C85.5917 8.36584 86.5558 8.46647 87.4046 8.66816C88.2565 8.87159 89.0268 9.13453 89.7239 9.46441L87.89 13.5769C87.4012 13.3832 86.9036 13.2118 86.3988 13.0633C85.8841 12.9071 85.2562 12.8318 84.513 12.8318C82.7374 12.8318 81.3344 13.4356 80.2899 14.6378C79.249 15.8414 78.725 17.4615 78.725 19.4941C78.725 20.6985 78.989 21.672 79.5179 22.417C80.0441 23.1621 81.0162 23.5331 82.4277 23.5331C83.1238 23.5331 83.7965 23.4613 84.4403 23.3213C85.089 23.1796 85.6618 23.0011 86.1663 22.7902L86.5638 27.006C85.8361 27.2812 85.0921 27.5126 84.336 27.699C83.5196 27.8958 82.5492 27.9973 81.4236 27.9973C79.9381 27.9973 78.6797 27.7834 77.6512 27.3608C76.6218 26.9325 75.7713 26.3633 75.1008 25.6423C74.4273 24.9195 73.9441 24.0752 73.6451 23.107C73.346 22.1388 73.1929 21.1207 73.1929 20.0607ZM96.8199 27.996C95.5505 27.996 94.4475 27.8053 93.5122 27.4277C92.5795 27.0506 91.8075 26.5203 91.1961 25.8335C90.5837 25.1501 90.1263 24.3403 89.8126 23.4071C89.4989 22.4743 89.348 21.4414 89.348 20.3096C89.348 18.8903 89.5788 17.4711 90.0464 16.0549C90.5119 14.6374 91.2018 13.3625 92.1141 12.2298C93.0205 11.0954 94.1387 10.1679 95.4538 9.44472C96.7685 8.72634 98.2802 8.36497 99.9791 8.36497C101.225 8.36497 102.322 8.55616 103.27 8.93372C104.214 9.31041 104.992 9.84459 105.606 10.528C106.214 11.2148 106.676 12.0212 106.986 12.9561C107.299 13.8867 107.454 14.9222 107.454 16.0549C107.454 17.4698 107.226 18.8899 106.773 20.3092C106.32 21.7223 105.648 22.9998 104.761 24.1347C103.875 25.2678 102.768 26.1944 101.438 26.9145C100.11 27.6351 98.5686 27.996 96.8199 27.996ZM99.4777 12.8323C98.6893 12.8323 97.9922 13.0576 97.3954 13.5034C96.7964 13.9545 96.2937 14.5219 95.8882 15.2053C95.4782 15.8922 95.1747 16.6412 94.9693 17.4553C94.7652 18.2713 94.6653 19.0435 94.6653 19.7754C94.6653 20.958 94.8592 21.8798 95.2391 22.5422C95.6242 23.201 96.3172 23.5331 97.3235 23.5331C98.1147 23.5331 98.8086 23.3087 99.4085 22.8585C100.004 22.4109 100.508 21.8435 100.916 21.1579C101.324 20.4754 101.63 19.7238 101.836 18.9078C102.037 18.0945 102.139 17.3188 102.139 16.5873C102.139 15.4078 101.946 14.4847 101.562 13.8228C101.18 13.1635 100.484 12.8323 99.4777 12.8323ZM113.25 27.5021H107.927L112.419 8.86591H117.776L113.25 27.5021ZM115.834 6.59528C115.109 6.60132 114.402 6.37125 113.823 5.94078C113.224 5.50678 112.923 4.83872 112.923 3.93834C112.923 3.44309 113.027 2.97847 113.229 2.54009C113.424 2.11493 113.698 1.72999 114.038 1.40566C114.379 1.08534 114.774 0.827157 115.206 0.643094C115.654 0.453771 116.136 0.357555 116.623 0.360469C117.367 0.360469 118.039 0.578344 118.637 1.01497C119.236 1.45378 119.537 2.12184 119.537 3.01741C119.537 3.51441 119.43 3.98078 119.229 4.41828C119.028 4.85578 118.758 5.23247 118.423 5.55272C118.083 5.87257 117.688 6.13006 117.256 6.31309C116.81 6.50472 116.339 6.59528 115.834 6.59528ZM121.609 9.71334C122.013 9.59697 122.464 9.45697 122.953 9.30472C123.498 9.13809 124.051 8.99734 124.61 8.88297C125.217 8.75172 125.903 8.64453 126.657 8.56184C127.41 8.47741 128.269 8.43628 129.223 8.43628C132.028 8.43628 133.962 9.24172 135.03 10.8478C136.096 12.4538 136.281 14.6514 135.589 17.4378L133.142 27.5003H127.788L130.16 17.6492C130.304 17.0345 130.417 16.4395 130.502 15.8585C130.587 15.2827 130.582 14.7748 130.483 14.336C130.396 13.9153 130.161 13.5383 129.82 13.2715C129.469 13.0007 128.939 12.8647 128.22 12.8647C127.508 12.8674 126.799 12.9395 126.101 13.0799L122.615 27.499H117.259L121.609 9.71334Z" fill="#696997"/>
</g>
<defs>
<clipPath id="clip0_38_3200">
<rect width="136" height="28" fill="white"/>
</clipPath>
</defs>
</svg>
