<svg width="82" height="62" viewBox="0 0 82 62" fill="none" xmlns="http://www.w3.org/2000/svg">
<g clip-path="url(#clip0_38_3196)">
<path d="M14.8944 61.4959V57.408C14.9437 56.7125 14.6842 56.0299 14.1821 55.5343C13.6801 55.0387 12.9839 54.7781 12.2713 54.819C11.3322 54.7588 10.434 55.2027 9.92726 55.9772C9.46529 55.2257 8.61941 54.7813 7.72277 54.819C6.94207 54.7804 6.19885 55.1485 5.76942 55.7864V54.9825H4.31836V61.4959H5.78337V57.9121C5.72028 57.4612 5.86658 57.0062 6.18236 56.6715C6.49814 56.3367 6.95043 56.1571 7.41581 56.1816C8.37854 56.1816 8.86687 56.7948 8.86687 57.8985V61.5231H10.3319V57.9121C10.2714 57.4617 10.4186 57.0082 10.7338 56.6741C11.049 56.3399 11.4997 56.1596 11.9643 56.1816C12.955 56.1816 13.4293 56.7948 13.4293 57.8985V61.5231L14.8944 61.4959ZM36.5696 54.9825H34.1837V53.0066H32.7187V54.9825H31.3932V56.277H32.7466V59.2748C32.7466 60.7873 33.3465 61.6867 35.0627 61.6867C35.7038 61.6888 36.3326 61.514 36.8765 61.1825L36.4579 59.9697C36.0688 60.1964 35.6272 60.323 35.1743 60.3376C34.4767 60.3376 34.2116 59.9016 34.2116 59.2475V56.277H36.5835L36.5696 54.9825ZM48.9454 54.819C48.2247 54.7983 47.5502 55.1643 47.1874 55.7728V54.9825H45.7503V61.4959H47.2014V57.844C47.2014 56.7675 47.6757 56.168 48.5966 56.168C48.907 56.1638 49.2151 56.2194 49.5035 56.3315L49.95 54.9688C49.6186 54.8531 49.2695 54.7932 48.9175 54.7917L48.9454 54.819ZM30.2351 55.5003C29.4138 55.0233 28.4694 54.7869 27.5144 54.819C25.8261 54.819 24.7239 55.6093 24.7239 56.9038C24.7239 57.9666 25.5331 58.6207 27.0261 58.8251L27.7237 58.9205C28.519 59.0295 28.8957 59.2339 28.8957 59.6018C28.8957 60.106 28.3655 60.3921 27.3749 60.3921C26.578 60.4147 25.7966 60.1747 25.1564 59.7108L24.4588 60.8146C25.304 61.391 26.3164 61.6871 27.347 61.6594C29.2724 61.6594 30.3886 60.7737 30.3886 59.5337C30.3886 58.2937 29.5096 57.7895 28.0585 57.5851L27.3609 57.4897C26.733 57.408 26.2308 57.2853 26.2308 56.8493C26.2308 56.4132 26.7051 56.0862 27.5004 56.0862C28.2355 56.0946 28.9561 56.2869 29.5933 56.6449L30.2351 55.5003ZM69.0998 54.819C68.3791 54.7983 67.7045 55.1643 67.3418 55.7728V54.9825H65.9047V61.4959H67.3557V57.844C67.3557 56.7675 67.8301 56.168 68.751 56.168C69.0614 56.1638 69.3695 56.2194 69.6579 56.3315L70.1044 54.9688C69.773 54.8531 69.4239 54.7932 69.0719 54.7917L69.0998 54.819ZM50.4035 58.2255C50.3686 59.1511 50.7346 60.0481 51.4118 60.6965C52.089 61.3449 53.0145 61.6845 53.9613 61.6321C54.8326 61.6754 55.6888 61.3983 56.3612 60.8554L55.6636 59.7108C55.1619 60.0844 54.5503 60.2899 53.9195 60.2968C52.8073 60.2089 51.9505 59.3017 51.9505 58.2119C51.9505 57.1221 52.8073 56.215 53.9195 56.1271C54.5503 56.134 55.1619 56.3395 55.6636 56.713L56.3612 55.5684C55.6888 55.0255 54.8326 54.7484 53.9613 54.7917C53.0145 54.7393 52.089 55.079 51.4118 55.7274C50.7346 56.3757 50.3686 57.2728 50.4035 58.1983V58.2255ZM63.9932 58.2255V54.9825H62.5421V55.7728C62.0422 55.1446 61.2634 54.7896 60.4493 54.819C58.5228 54.819 56.9611 56.3441 56.9611 58.2255C56.9611 60.107 58.5228 61.6321 60.4493 61.6321C61.2634 61.6615 62.0422 61.3065 62.5421 60.6783V61.4686H63.9932V58.2255ZM58.5936 58.2255C58.6581 57.1563 59.5859 56.3336 60.6818 56.3738C61.7778 56.4139 62.6398 57.3023 62.6221 58.3732C62.6044 59.4442 61.7134 60.3048 60.6167 60.3104C60.0583 60.3173 59.5223 60.0961 59.1381 59.7002C58.754 59.3043 58.5566 58.7698 58.5936 58.2255ZM41.0832 54.819C39.1568 54.8453 37.6169 56.3918 37.6439 58.2732C37.6709 60.1547 39.2544 61.6585 41.1809 61.6321C42.1846 61.6825 43.1716 61.3668 43.9504 60.7464L43.2528 59.6972C42.7019 60.1287 42.0195 60.3684 41.3134 60.3785C40.3161 60.4623 39.4316 59.7556 39.3182 58.7842H44.2713C44.2713 58.6071 44.2713 58.4299 44.2713 58.2392C44.2713 56.1952 42.9738 54.8326 41.1041 54.8326L41.0832 54.819ZM41.0832 56.0862C41.5217 56.0771 41.946 56.2385 42.2626 56.535C42.5793 56.8314 42.7623 57.2386 42.7714 57.6669H39.2833C39.3359 56.7572 40.1229 56.0551 41.0553 56.0862H41.0832ZM77.4364 58.2392V52.3662H76.0412V55.7728C75.5413 55.1446 74.7624 54.7896 73.9483 54.819C72.0219 54.819 70.4602 56.3441 70.4602 58.2255C70.4602 60.107 72.0219 61.6321 73.9483 61.6321C74.7624 61.6615 75.5413 61.3065 76.0412 60.6783V61.4686H77.4364V58.2392ZM79.8572 60.5488C79.9479 60.5478 80.0379 60.564 80.1223 60.5965C80.2024 60.6285 80.2757 60.6747 80.3385 60.7328C80.3998 60.7915 80.4495 60.8608 80.485 60.9372C80.5564 61.098 80.5564 61.2806 80.485 61.4414C80.4495 61.5177 80.3998 61.587 80.3385 61.6458C80.2757 61.7039 80.2024 61.7501 80.1223 61.782C80.0388 61.818 79.9485 61.8366 79.8572 61.8365C79.5872 61.8346 79.3427 61.6806 79.2293 61.4414C79.1587 61.2804 79.1587 61.0982 79.2293 60.9372C79.2649 60.8608 79.3145 60.7915 79.3758 60.7328C79.4386 60.6747 79.512 60.6285 79.5921 60.5965C79.683 60.5612 79.7804 60.545 79.8781 60.5488H79.8572ZM79.8572 61.7003C79.9268 61.7007 79.9958 61.6868 80.0595 61.6594C80.1195 61.6332 80.174 61.5962 80.2199 61.5504C80.4008 61.3576 80.4008 61.0618 80.2199 60.8691C80.1741 60.8231 80.1196 60.7861 80.0595 60.7601C79.9957 60.7329 79.9268 60.719 79.8572 60.7192C79.7876 60.7195 79.7189 60.7334 79.6549 60.7601C79.5922 60.7852 79.5353 60.8222 79.4874 60.8691C79.3065 61.0618 79.3065 61.3576 79.4874 61.5504C79.5354 61.5971 79.5923 61.6341 79.6549 61.6594C79.7253 61.689 79.8015 61.703 79.8781 61.7003H79.8572ZM79.899 60.8895C79.9642 60.8864 80.0283 60.9057 80.0804 60.944C80.1237 60.979 80.1471 61.0323 80.1432 61.0871C80.1452 61.1328 80.1275 61.1773 80.0944 61.2097C80.0539 61.2456 80.0024 61.2672 79.9479 61.271L80.1502 61.4959H79.9897L79.8014 61.271H79.7386V61.4959H79.606V60.8963L79.899 60.8895ZM79.7456 61.0053V61.1688H79.899C79.9264 61.1768 79.9554 61.1768 79.9828 61.1688C79.9927 61.1496 79.9927 61.1268 79.9828 61.1075C79.9927 61.0882 79.9927 61.0655 79.9828 61.0462C79.9554 61.0383 79.9264 61.0383 79.899 61.0462L79.7456 61.0053ZM72.0717 58.2392C72.1362 57.17 73.064 56.3472 74.16 56.3874C75.2559 56.4276 76.1179 57.3159 76.1002 58.3869C76.0825 59.4578 75.1915 60.3185 74.0948 60.324C73.5364 60.3309 73.0004 60.1097 72.6162 59.7138C72.2321 59.318 72.0347 58.7834 72.0717 58.2392ZM23.0775 58.2392V54.9825H21.6264V55.7728C21.1265 55.1446 20.3477 54.7896 19.5336 54.819C17.6071 54.819 16.0454 56.3441 16.0454 58.2255C16.0454 60.107 17.6071 61.6321 19.5336 61.6321C20.3477 61.6615 21.1265 61.3065 21.6264 60.6783V61.4686H23.0775V58.2392ZM17.6779 58.2392C17.7424 57.17 18.6702 56.3472 19.7661 56.3874C20.8621 56.4276 21.7241 57.3159 21.7064 58.3869C21.6887 59.4578 20.7977 60.3185 19.701 60.324C19.1402 60.3348 18.6004 60.1153 18.2132 59.7189C17.8259 59.3226 17.6267 58.7858 17.6639 58.2392H17.6779Z" fill="#696997"/>
<path d="M78.9781 40.1585V39.0958H79.306V38.876H78.4758V39.0958H78.8316V40.1585H78.9781ZM80.5896 40.1585V38.876H80.3385L80.0455 39.7921L79.7525 38.876H79.5292V40.1585H79.7106V39.1966L79.9827 40.0302H80.1711L80.4431 39.1966V40.1676L80.5896 40.1585Z" fill="#696997"/>
<path d="M38.7553 44.503C38.9534 44.6651 39.1653 44.8273 39.3737 44.9862C35.3523 47.5775 30.5245 49.0833 25.3414 49.0833C11.3433 49.0866 0 38.0991 0 24.5433C0 10.9909 11.3433 0 25.338 0C30.5245 0 35.3522 1.50914 39.3634 4.09717C39.1584 4.26596 38.9534 4.4215 38.7997 4.5936C32.8 9.61412 29.3663 16.8917 29.3663 24.5433C29.3663 32.1916 32.7863 39.4692 38.7553 44.503ZM56.662 0C51.4687 0 46.6478 1.50914 42.6366 4.09717C42.8416 4.26596 43.0466 4.4215 43.2003 4.5936C49.2 9.61412 52.6338 16.8917 52.6338 24.5433C52.6338 32.1883 49.2137 39.4593 43.2448 44.503C43.0466 44.6651 42.8348 44.8273 42.6263 44.9862C46.6478 47.5775 51.4687 49.0833 56.6586 49.0833C70.6567 49.0866 82 38.0991 82 24.5433C82 10.9942 70.6567 0 56.662 0ZM41 5.26212C40.672 5.51033 40.3543 5.75855 40.0433 6.02662C34.6997 10.5242 31.3274 17.1466 31.3274 24.5433C31.3274 31.9434 34.6997 38.5624 40.0433 43.06C40.3508 43.3248 40.6754 43.5829 41 43.8278C41.328 43.5829 41.6458 43.3248 41.9567 43.06C47.2969 38.5624 50.6726 31.9434 50.6726 24.5433C50.6726 17.1466 47.3003 10.5242 41.9567 6.02662C41.6492 5.76186 41.328 5.51033 41 5.26212Z" fill="#696997"/>
</g>
<defs>
<clipPath id="clip0_38_3196">
<rect width="82" height="62" fill="white"/>
</clipPath>
</defs>
</svg>
