<svg width="114" height="77" viewBox="0 0 114 77" fill="none" xmlns="http://www.w3.org/2000/svg">
<g clip-path="url(#clip0_38_3209)">
<path d="M10.2966 71.469C10.2966 71.7165 10.0862 71.9179 9.83482 71.9179H0.938974C1.16108 74.0817 2.81517 76.0556 5.14142 76.0556C6.73121 76.0556 7.91187 75.4571 8.80029 74.2083C8.92887 74.0357 9.12175 73.9263 9.36724 74.0299C9.50167 74.0875 9.59519 74.2083 9.61857 74.3464C9.64195 74.4903 9.60103 74.5709 9.56012 74.6514C8.66586 76.188 6.88318 76.9419 5.13557 76.9419C2.14301 76.9419 0.00964355 74.3061 0.00964355 71.4863C0.00964355 68.6664 2.14301 66.0307 5.13557 66.0307C8.12813 66.0249 10.2907 68.6549 10.2966 71.469ZM9.34386 71.0431C9.15098 68.8793 7.46766 66.9054 5.14142 66.9054C2.81517 66.9054 1.16108 68.8793 0.938974 71.0431H9.34386ZM21.092 66.2436C21.3492 66.2436 21.5362 66.4623 21.5362 66.6809C21.5362 66.9342 21.3433 67.1183 21.092 67.1183H18.7073V76.3319C18.7073 76.5505 18.5144 76.7692 18.2631 76.7692C18.0059 76.7692 17.8189 76.5505 17.8189 76.3319V67.1183H15.5277C15.2705 67.1183 15.0835 66.9284 15.0835 66.6809C15.0835 66.4623 15.2764 66.2436 15.5277 66.2436H17.8189V62.8712C17.8189 62.6583 17.965 62.4626 18.1754 62.4281C18.4735 62.3821 18.7073 62.5835 18.7073 62.8597V66.2436H21.092ZM35.6398 70.6978V76.2801C35.6398 76.5333 35.4177 76.7174 35.1956 76.7174C34.9384 76.7174 34.7514 76.5275 34.7514 76.2801V70.6978C34.7514 68.816 33.6701 66.9342 31.5367 66.9342C28.8013 66.9342 27.6207 69.2879 27.7785 71.6992C27.7785 71.7625 27.8077 72.0445 27.8077 72.0733V76.2628C27.8077 76.4757 27.6616 76.6714 27.4512 76.7059C27.1531 76.752 26.9193 76.5505 26.9193 76.2743V57.9393C26.9193 57.7206 27.1122 57.502 27.3635 57.502C27.6207 57.502 27.8077 57.7206 27.8077 57.9393V68.3153C28.5734 66.9687 29.9411 66.0594 31.5309 66.0594C34.1435 66.0594 35.6398 68.3153 35.6398 70.6978ZM51.5904 71.469C51.5904 71.7165 51.38 71.9179 51.1286 71.9179H42.2269C42.449 74.0817 44.1031 76.0556 46.4294 76.0556C48.0192 76.0556 49.1998 75.4571 50.0883 74.2083C50.2168 74.0357 50.4097 73.9263 50.6552 74.0299C50.7896 74.0875 50.8832 74.2083 50.9065 74.3464C50.9299 74.4903 50.889 74.5709 50.8481 74.6514C49.9538 76.188 48.1712 76.9419 46.4235 76.9419C43.431 76.9419 41.2976 74.3061 41.2976 71.4863C41.2976 68.6664 43.431 66.0307 46.4235 66.0307C49.4219 66.0249 51.5845 68.6549 51.5904 71.469ZM50.6318 71.0431C50.4389 68.8793 48.7556 66.9054 46.4294 66.9054C44.1031 66.9054 42.449 68.8793 42.2269 71.0431H50.6318ZM62.5085 66.6522C62.5085 66.9342 62.3507 67.0895 62.0936 67.1241C59.4809 67.4981 58.3061 69.5987 58.3061 72.0445V76.234C58.3061 76.4469 58.16 76.6426 57.9496 76.6771C57.6515 76.7232 57.4177 76.5218 57.4177 76.2455V66.6982C57.4177 66.4853 57.5638 66.2896 57.7742 66.2551C58.0723 66.2091 58.3061 66.4105 58.3061 66.6867V68.6318C59.0367 67.4118 60.5038 66.2493 62.0293 66.2493C62.2514 66.2436 62.5085 66.4047 62.5085 66.6522ZM77.1207 71.469C77.1207 71.7165 76.9102 71.9179 76.6589 71.9179H67.7631C67.9852 74.0817 69.6393 76.0556 71.9655 76.0556C73.5553 76.0556 74.736 75.4571 75.6244 74.2083C75.753 74.0357 75.9458 73.9263 76.1913 74.0299C76.3258 74.0875 76.4193 74.2083 76.4426 74.3464C76.466 74.4903 76.4251 74.5709 76.3842 74.6514C75.4899 76.188 73.7073 76.9419 71.9597 76.9419C68.9671 76.9419 66.8337 74.3061 66.8337 71.4863C66.8337 68.6664 68.9671 66.0307 71.9597 66.0307C74.9522 66.0249 77.1148 68.6549 77.1207 71.469ZM76.1679 71.0431C75.9751 68.8793 74.2918 66.9054 71.9655 66.9054C69.6393 66.9054 67.9852 68.8793 67.7631 71.0431H76.1679ZM91.4814 66.7615V76.3319C91.4814 76.5851 91.2593 76.7692 91.0372 76.7692C90.7801 76.7692 90.593 76.5793 90.593 76.3319V74.5133C89.8624 75.9578 88.5532 76.9879 86.8991 76.9879C84.2572 76.9879 82.7902 74.732 82.7902 72.3495V66.7385C82.7902 66.5198 82.983 66.3011 83.2344 66.3011C83.4915 66.3011 83.6786 66.5198 83.6786 66.7385V72.3495C83.6786 74.2313 84.7599 76.1132 86.8932 76.1132C89.8858 76.1132 90.5872 73.3566 90.5872 70.3123V66.7385C90.5872 66.4853 90.8443 66.2263 91.16 66.3184C91.3529 66.3817 91.4814 66.5659 91.4814 66.7615ZM113.984 70.6633V76.2743C113.984 76.5275 113.762 76.7117 113.54 76.7117C113.283 76.7117 113.096 76.5218 113.096 76.2743V70.6633C113.096 68.7815 112.014 66.9342 109.881 66.9342C107.204 66.9342 106.187 69.754 106.187 71.9466V76.2743C106.187 76.5275 105.965 76.7117 105.743 76.7117C105.486 76.7117 105.299 76.5218 105.299 76.2743V70.6633C105.299 68.7815 104.217 66.9342 102.084 66.9342C99.3778 66.9342 98.2615 69.0347 98.3608 71.8258C98.3608 71.8891 98.39 72.0157 98.3608 72.0445V76.2628C98.3608 76.4757 98.2147 76.6714 97.9984 76.7059C97.7003 76.752 97.4666 76.5505 97.4666 76.2743V66.6982C97.4666 66.4853 97.6127 66.2896 97.8231 66.2551C98.1212 66.2091 98.355 66.4105 98.355 66.6867V68.2866C99.1206 66.9399 100.488 66.0594 102.078 66.0594C103.89 66.0594 105.293 67.1874 105.866 68.8505C106.596 67.2219 108.028 66.0594 109.875 66.0594C112.488 66.0594 113.984 68.2808 113.984 70.6633Z" fill="#696997"/>
<g opacity="0.6">
<mask id="mask0_38_3209" style="mask-type:luminance" maskUnits="userSpaceOnUse" x="42" y="17" width="30" height="16">
<path d="M42.1337 17.6328H71.8664V32.9407H42.1337V17.6328Z" fill="white"/>
</mask>
<g mask="url(#mask0_38_3209)">
<path d="M57.0029 17.6328L42.1337 24.2912L57.0029 32.9407L71.8664 24.2912L57.0029 17.6328Z" fill="#696997"/>
</g>
</g>
<g opacity="0.45">
<mask id="mask1_38_3209" style="mask-type:luminance" maskUnits="userSpaceOnUse" x="42" y="-1" width="16" height="34">
<path d="M42.1337 -0.000976562H57.0029V32.9398H42.1337V-0.000976562Z" fill="white"/>
</mask>
<g mask="url(#mask1_38_3209)">
<path d="M42.1337 24.2903L57.0029 32.9398V-0.000976562L42.1337 24.2903Z" fill="#696997"/>
</g>
</g>
<g opacity="0.8">
<mask id="mask2_38_3209" style="mask-type:luminance" maskUnits="userSpaceOnUse" x="57" y="-1" width="15" height="34">
<path d="M57.0029 -0.000976562H71.8722V32.9398H57.0029V-0.000976562Z" fill="white"/>
</mask>
<g mask="url(#mask2_38_3209)">
<path d="M57.0029 -0.000976562V32.9398L71.8664 24.2903L57.0029 -0.000976562Z" fill="#696997"/>
</g>
</g>
<g opacity="0.45">
<mask id="mask3_38_3209" style="mask-type:luminance" maskUnits="userSpaceOnUse" x="42" y="27" width="16" height="21">
<path d="M42.1337 27.0645H57.0029V47.6899H42.1337V27.0645Z" fill="white"/>
</mask>
<g mask="url(#mask3_38_3209)">
<path d="M42.1337 27.0645L57.0029 47.6899V35.714L42.1337 27.0645Z" fill="#696997"/>
</g>
</g>
<g opacity="0.8">
<mask id="mask4_38_3209" style="mask-type:luminance" maskUnits="userSpaceOnUse" x="57" y="27" width="15" height="21">
<path d="M57.0029 27.0645H71.8781V47.6899H57.0029V27.0645Z" fill="white"/>
</mask>
<g mask="url(#mask4_38_3209)">
<path d="M57.0029 35.714V47.6899L71.8781 27.0645L57.0029 35.714Z" fill="#696997"/>
</g>
</g>
</g>
<defs>
<clipPath id="clip0_38_3209">
<rect width="114" height="77" fill="white"/>
</clipPath>
</defs>
</svg>
