<svg width="144" height="72" viewBox="0 0 144 72" fill="none" xmlns="http://www.w3.org/2000/svg">
<path fill-rule="evenodd" clip-rule="evenodd" d="M29.9377 25.1188L26.8573 36.6412L24.4165 37.6012L23.5369 40.882L26.0173 40.042L24.3769 46.8436L42.1405 46.8832L43.2205 42.5224H32.4181L33.8185 37.2808L36.7393 36.04L37.5793 32.8396L34.7389 33.7996L36.9793 25.2376L29.9377 25.1188ZM33.3385 16.3588C38.547 16.362 43.5413 18.4323 47.2245 22.1151C50.9077 25.7979 52.9786 30.7919 52.9825 36.0004C52.9793 41.2094 50.9086 46.2041 47.2254 49.8873C43.5421 53.5706 38.5474 55.6413 33.3385 55.6444C28.1295 55.6413 23.1348 53.5706 19.4516 49.8873C15.7683 46.2041 13.6976 41.2094 13.6945 36.0004C13.7341 25.1584 22.4965 16.3564 33.3385 16.3564V16.3588Z" fill="#696997"/>
<path fill-rule="evenodd" clip-rule="evenodd" d="M67.2397 28.6418C67.2384 28.9902 67.0994 29.324 66.853 29.5704C66.6067 29.8168 66.2729 29.9557 65.9245 29.957C65.576 29.9557 65.2422 29.8168 64.9959 29.5704C64.7495 29.324 64.6105 28.9902 64.6093 28.6418C64.6105 28.2934 64.7495 27.9596 64.9959 27.7132C65.2422 27.4668 65.576 27.3279 65.9245 27.3266C66.6613 27.353 67.2397 27.9314 67.2397 28.6418ZM117.42 28.6802C117.419 29.0286 117.28 29.3624 117.033 29.6088C116.787 29.8552 116.453 29.9941 116.105 29.9954C115.756 29.9941 115.423 29.8552 115.176 29.6088C114.93 29.3624 114.791 29.0286 114.79 28.6802C114.791 28.3318 114.93 27.998 115.176 27.7516C115.423 27.5052 115.756 27.3663 116.105 27.365C116.453 27.3663 116.787 27.5052 117.033 27.7516C117.28 27.998 117.419 28.3318 117.42 28.6802ZM60.2437 26.6162H61.9789V45.1046H60.2437V26.6162ZM74.8657 33.1394L74.8393 34.7174L72.3673 34.7438V45.1202H70.6321V34.7318H68.5285V33.0998H70.6321V28.6286H72.3673V33.0998H74.8657V33.1394ZM80.2057 33.0866C81.9157 32.7446 83.7817 32.9666 85.2025 34.007C87.0433 35.3222 87.7801 37.7678 87.4909 39.923H77.3629C77.5189 41.0534 78.0733 42.131 79.0189 42.803C80.8861 44.1974 83.8849 43.829 85.1989 41.8826L85.4353 41.6462C86.0137 41.7254 86.5657 41.8826 87.1189 41.9882C86.5669 43.2506 85.5145 44.2766 84.2389 44.8286C82.6864 45.5013 80.9341 45.5486 79.3477 44.9606C77.8753 44.4086 76.6657 43.2254 76.0597 41.7518C75.3493 39.9518 75.4021 37.9118 76.2157 36.1766C76.9525 34.5722 78.4777 33.4166 80.1757 33.0734L80.2057 33.0866ZM78.6013 35.8466C77.9173 36.5042 77.5213 37.4246 77.3653 38.345H85.7653C85.6453 36.821 84.6085 35.3474 83.1085 34.8734C81.5845 34.3478 79.7425 34.7174 78.6109 35.8334L78.6013 35.8466ZM90.5173 34.9274C92.7793 32.429 97.1173 32.2454 99.5653 34.559L98.3293 35.795C96.6193 34.295 93.8581 34.295 92.1493 35.7686C90.1093 37.5038 90.2293 41.1086 92.3593 42.7118C94.0693 44.0534 96.6985 43.9742 98.3293 42.5018L99.5653 43.7114C97.2493 45.815 93.3061 45.8954 90.9913 43.817C88.5193 41.609 88.3081 37.373 90.5173 34.9274ZM121.759 35.0474C122.417 33.653 124.099 32.9174 125.704 32.9174C126.44 32.9174 127.176 33.0374 127.78 33.3374C128.989 33.863 129.673 34.889 130.015 36.0734C130.225 36.7574 130.303 37.493 130.303 38.2034L130.277 45.1466H128.567V38.309C128.567 37.283 128.357 36.179 127.646 35.429C126.936 34.7186 125.832 34.535 124.886 34.745C123.782 34.901 122.73 35.561 122.204 36.5858C121.889 37.217 121.757 37.901 121.757 38.6114V45.1598H120.022V33.1922L121.757 33.2186L121.759 35.0474ZM105.269 33.0602C106.979 32.7446 108.821 33.0074 110.266 33.9806C111.634 34.8482 112.554 36.3206 112.817 37.8998C113.081 39.5558 112.817 41.3198 111.857 42.6998C110.753 44.3558 108.754 45.3566 106.754 45.3302C105.071 45.4094 103.362 44.7782 102.179 43.5686C100.18 41.6486 99.8629 38.387 101.153 35.9942C101.969 34.4426 103.546 33.3638 105.257 33.0482L105.269 33.0602ZM105.425 34.7954C104.03 35.111 102.847 36.137 102.374 37.4774C101.69 39.3446 102.269 41.6594 103.926 42.7898C105.872 44.2094 108.923 43.8422 110.344 41.8694C110.848 41.1501 111.145 40.3055 111.201 39.4286C111.256 38.5517 111.069 37.6764 110.659 36.899C109.699 35.0582 107.371 34.2686 105.427 34.7954H105.425ZM65.0569 45.1202V33.1802L66.7129 33.1274L66.7393 45.1202H65.0569ZM116.945 45.1202H115.26L115.286 33.1274H116.942L116.945 45.1202Z" fill="#696997"/>
</svg>
