<svg width="139" height="45" viewBox="0 0 139 45" fill="none" xmlns="http://www.w3.org/2000/svg">
<path d="M19.8426 41.7062C30.0673 41.7062 38.3561 33.2958 38.3561 22.921C38.3561 12.5462 30.0673 4.13574 19.8426 4.13574C9.61787 4.13574 1.3291 12.5462 1.3291 22.921C1.3291 33.2958 9.61787 41.7062 19.8426 41.7062Z" fill="#696997"/>
<path d="M21.8157 24.6542V24.6512C21.6878 24.6603 21.027 24.6995 19.5566 24.6995C18.3809 24.6995 17.5565 24.6663 17.2648 24.6512V24.6542C12.7435 24.4519 9.37123 23.6546 9.37123 22.6972C9.37123 21.7428 12.7465 20.9425 17.2648 20.7401V23.8599C17.5594 23.8811 18.4077 23.9324 19.5775 23.9324C20.9823 23.9324 21.6848 23.872 21.8157 23.8599V20.7432C26.328 20.9485 29.6914 21.7458 29.6914 22.7002C29.6914 23.6546 26.3251 24.4519 21.8157 24.6572M21.8157 20.42V17.6294H28.1109V13.374H10.9726V17.6294H17.2677V20.42C12.1512 20.6586 8.30566 21.6854 8.30566 22.9176C8.30566 24.1499 12.1542 25.1767 17.2677 25.4183V34.364H21.8187V25.4183C26.9263 25.1797 30.7659 24.1529 30.7659 22.9207C30.7659 21.6915 26.9263 20.6616 21.8187 20.423" fill="#0E0E2D"/>
<path d="M54.0821 14.5369V19.049H58.4039V22.4346H54.0523V29.2993C54.0523 30.8154 54.8768 31.5554 56.0852 31.5554C56.6895 31.5554 57.3889 31.3621 57.9604 31.0721L59.0408 34.4245C57.9306 34.8745 57.0079 35.0678 55.8322 35.101C52.4331 35.2309 50.2097 33.2648 50.2097 29.2993V22.4346H47.2869V19.049H50.2097V14.9567L54.0821 14.5369ZM128.591 18.8376L128.877 20.6738C130.086 18.7077 131.705 18.4178 133.294 18.4178C134.913 18.4178 136.47 19.0611 137.327 19.9309L135.58 23.3466C134.785 22.6701 134.056 22.3138 132.785 22.3138C130.752 22.3138 128.877 23.4101 128.877 26.3426V34.7235H125.002V18.8315L128.591 18.8376ZM119.094 24.9292C118.841 22.8664 117.251 21.8336 115.028 21.8336C112.932 21.8336 111.215 22.8664 110.643 24.9292H119.094ZM110.581 28.1849C110.834 30.151 112.519 31.5705 115.251 31.5705C116.68 31.5705 118.555 31.0208 119.445 30.0876L121.921 32.5701C120.269 34.3097 117.57 35.1493 115.186 35.1493C109.786 35.1493 106.575 31.7638 106.575 26.6718C106.575 21.8366 109.816 18.3544 114.9 18.3544C120.141 18.3544 123.415 21.6433 122.811 28.1849H110.581ZM93.4902 12.1631V20.994C94.8892 19.1577 96.6036 18.6081 98.3835 18.6081C102.83 18.6081 104.801 21.6705 104.801 26.3456V34.7265H100.925V26.3789C100.925 23.4765 99.4312 22.2534 97.3656 22.2534C95.0767 22.2534 93.4902 24.2195 93.4902 26.6054V34.7295H89.6149V12.1661L93.4902 12.1631ZM83.1977 14.3557V18.8678H87.5195V22.2534H83.1679V29.1181C83.1679 30.6342 83.9954 31.3742 85.2008 31.3742C85.805 31.3742 86.5045 31.1809 87.076 30.8909L88.1564 34.2433C87.0462 34.6933 86.1235 34.8866 84.9478 34.9198C81.5487 35.0497 79.3253 33.0805 79.3253 29.1181V22.2534H76.4025V18.8678H79.3253V14.7755L83.1977 14.3557ZM72.4914 24.9292C72.2384 22.8664 70.649 21.8336 68.4256 21.8336C66.3302 21.8336 64.6128 22.8664 64.0413 24.9292H72.4914ZM63.9788 28.1849C64.2318 30.151 65.9164 31.5705 68.6488 31.5705C70.0775 31.5705 71.9527 31.0208 72.8426 30.0876L75.319 32.5701C73.6671 34.3097 70.9675 35.1493 68.5833 35.1493C63.1811 35.1493 59.9725 31.7638 59.9725 26.6718C59.9725 21.8366 63.2138 18.3544 68.2946 18.3544C73.5361 18.3544 76.8073 21.6433 76.206 28.1849H63.9788Z" fill="#696997"/>
</svg>
