<svg width="125" height="39" viewBox="0 0 125 39" fill="none" xmlns="http://www.w3.org/2000/svg">
<path d="M44.1554 37.902L50.4771 0.804301H60.5888L54.2623 37.902H44.1554ZM90.7947 1.60402C88.7918 0.852436 85.6525 0.0458984 81.7323 0.0458984C71.7405 0.0458984 64.7028 5.07747 64.6425 12.2887C64.5862 17.6194 69.6673 20.5933 73.5027 22.3676C77.4389 24.1865 78.7618 25.3459 78.7429 26.9694C78.7177 29.4563 75.5997 30.5918 72.6931 30.5918C68.6462 30.5918 66.4961 30.0295 63.1752 28.645L61.8717 28.0554L60.4529 36.36C62.8147 37.396 67.1819 38.2927 71.7168 38.3394C82.3461 38.3394 89.2464 33.3652 89.3249 25.6643C89.3626 21.444 86.6688 18.2328 80.8348 15.5848C77.3005 13.8686 75.136 12.7235 75.1589 10.9857C75.1589 9.44369 76.9911 7.7948 80.9502 7.7948C84.2564 7.74344 86.6521 8.46451 88.5183 9.21609L89.4244 9.64418L90.7947 1.60402ZM116.816 0.803731H109.002C106.582 0.803731 104.77 1.46435 103.708 3.88017L88.6902 37.8775H99.3084C99.3084 37.8775 101.044 33.3065 101.437 32.3027C102.597 32.3027 112.912 32.3186 114.387 32.3186C114.689 33.6174 115.617 37.8775 115.617 37.8775H125L116.816 0.802595V0.803731ZM104.419 24.7592C105.255 22.6217 108.448 14.3887 108.448 14.3887C108.388 14.4874 109.278 12.2408 109.788 10.8479L110.472 14.0464C110.472 14.0464 112.408 22.9018 112.813 24.7586H104.419V24.7592ZM35.5713 0.803731L25.6717 26.1028L24.6171 20.9617C22.774 15.0351 17.0322 8.61403 10.613 5.39944L19.6652 37.8429L30.3637 37.8309L46.283 0.803352L35.5713 0.803165" fill="#696997"/>
<path d="M16.4345 0.802734H0.129244L0 1.57459C12.6853 4.64535 21.0787 12.0662 24.5638 20.9838L21.0183 3.93583C20.4064 1.58672 18.6311 0.885546 16.4349 0.80368" fill="#696997"/>
</svg>
