<svg width="61" height="41" viewBox="0 0 61 41" fill="none" xmlns="http://www.w3.org/2000/svg">
<path d="M11.9841 28.9295C16.328 25.4159 22.1956 21.5436 28.8987 17.9146C33.0729 15.6534 37.1511 13.7156 40.9124 12.159C51.0439 7.96959 58.9538 6.54429 60.4295 9.0778L55.8583 1.22744C54.4114 -1.26443 46.5816 0.170479 36.5429 4.33107C32.8136 5.87488 28.7738 7.79983 24.6348 10.0419C17.9893 13.642 12.173 17.4758 7.86107 20.951C2.25275 25.4703 -0.813935 29.3907 0.188009 31.3893L4.26304 39.5055C3.24509 37.4749 6.33095 33.5033 11.9809 28.9327L11.9841 28.9295Z" fill="#FEF27A"/>
<path d="M12.0512 29.2818C16.4367 25.8098 22.3556 21.9471 29.1035 18.2926C33.3098 16.0121 37.4039 14.0487 41.178 12.4633C51.3159 8.19698 59.1234 6.66279 60.4295 9.07458L56.3577 1.55413C55.0516 -0.860873 47.2473 0.676534 37.1063 4.94282C33.3322 6.52827 29.238 8.49165 25.0317 10.7721C18.2838 14.4299 12.3682 18.2926 7.97945 21.7613C2.2911 26.2646 -0.817194 30.1082 0.194353 31.9787L4.26298 39.4991C3.25143 37.6286 6.35968 33.7851 12.048 29.2818H12.0512Z" fill="url(#paint0_linear_31_1378)"/>
<path d="M0.700226 32.8979L0.713004 32.9267C0.783428 33.0644 0.847451 33.1862 0.914674 33.3079L3.27388 37.667C3.3123 37.7439 3.35391 37.8176 3.39553 37.8944V37.888C3.39553 37.888 3.37954 37.856 3.37634 37.84C3.31552 37.7151 3.25151 37.5966 3.18428 37.4749L0.825034 33.1125C0.786621 33.0388 0.745038 32.9619 0.697021 32.8915V32.8979H0.700226Z" fill="url(#paint1_linear_31_1378)"/>
<path d="M0.575317 32.4783C0.575317 32.4783 0.58169 32.5104 0.584891 32.5296C0.594494 32.5616 0.620122 32.6449 0.764171 32.9043L3.12338 37.2635C3.21301 37.43 3.23863 37.4589 3.25784 37.4845L3.26425 37.4749C3.26425 37.4557 3.25784 37.4396 3.25784 37.4396C3.23223 37.3372 3.1746 37.209 3.08497 37.0457L0.72576 32.6865C0.63933 32.5232 0.6105 32.4911 0.584891 32.4655L0.578522 32.4751L0.575317 32.4783Z" fill="url(#paint2_linear_31_1378)"/>
<path d="M0.552887 32.0107C0.552887 32.0299 0.549683 32.0491 0.549683 32.0651C0.556085 32.1004 0.568886 32.19 0.706533 32.4495L3.06574 36.8086C3.15537 36.972 3.18741 37.0008 3.21302 37.0232L3.2258 37.0136C3.2258 36.9944 3.2258 36.9752 3.2258 36.956C3.21299 36.8695 3.16178 36.7382 3.07535 36.5716L0.716146 32.2125C0.626515 32.0491 0.591313 32.0235 0.565704 31.9979L0.552887 32.0107Z" fill="url(#paint3_linear_31_1378)"/>
<path d="M0.626578 31.5014C0.620176 31.5206 0.616998 31.5431 0.610596 31.5623C0.610596 31.5943 0.613778 31.6968 0.751425 31.953L3.11063 36.3122C3.20027 36.4756 3.23871 36.5012 3.26432 36.5236L3.2803 36.5108C3.28991 36.4884 3.29313 36.4659 3.29953 36.4435C3.29953 36.3506 3.2515 36.2193 3.16507 36.0528L0.805858 31.6904C0.716227 31.5303 0.674613 31.5014 0.645803 31.4822L0.623413 31.4982L0.626578 31.5014Z" fill="url(#paint4_linear_31_1378)"/>
<path d="M0.792921 30.9505C0.783317 30.9729 0.776932 30.9954 0.77053 31.0178C0.767329 31.053 0.757727 31.1619 0.892174 31.4182L3.25459 35.7805C3.34422 35.9407 3.38904 35.9663 3.42105 35.9855L3.44024 35.9727C3.45944 35.9471 3.46584 35.9247 3.47224 35.9022C3.48184 35.8029 3.44343 35.6684 3.357 35.5019L0.994592 31.1427C0.904961 30.9793 0.860136 30.9569 0.824924 30.9377L0.799329 30.9473L0.792921 30.9569V30.9505Z" fill="url(#paint5_linear_31_1378)"/>
<path d="M1.05227 30.358C1.03946 30.3836 1.02987 30.406 1.01706 30.4284C0.98505 30.5469 1.07147 30.7327 1.12268 30.8352L3.48189 35.1944C3.59393 35.3962 3.64835 35.393 3.68036 35.3898L3.69318 35.3737C3.70278 35.3513 3.71558 35.3257 3.72838 35.3033C3.7636 35.1752 3.67075 34.9734 3.62913 34.8965L1.26992 30.5341C1.15468 30.3324 1.10026 30.3355 1.06825 30.3388L1.05227 30.358Z" fill="url(#paint6_linear_31_1378)"/>
<path d="M1.4012 29.7302C1.38519 29.7558 1.37238 29.7814 1.35638 29.8071C1.31156 29.9288 1.3916 30.1177 1.44602 30.2202L3.80523 34.5794C3.90766 34.762 3.96528 34.7684 4.0069 34.7748L4.0357 34.7524C4.0517 34.7299 4.06452 34.7011 4.08372 34.6787C4.13174 34.5506 4.05171 34.3648 4.00049 34.2623L1.64128 29.9031C1.53885 29.7206 1.48122 29.7142 1.43641 29.7078L1.40761 29.7302H1.4012Z" fill="url(#paint7_linear_31_1378)"/>
<path d="M1.83965 29.0672C1.82045 29.0928 1.80126 29.1217 1.78206 29.1473C1.72444 29.2754 1.80126 29.4644 1.85567 29.5669L4.21488 33.9261C4.31092 34.0926 4.40375 34.1567 4.46137 34.0926C4.48058 34.0638 4.49976 34.0381 4.51577 34.0125C4.57979 33.8748 4.49017 33.673 4.44856 33.5897L2.08935 29.2306C1.97731 29.0384 1.88127 29.0096 1.83965 29.064V29.0672Z" fill="url(#paint8_linear_31_1378)"/>
<path d="M2.36156 28.369C2.33915 28.3978 2.31676 28.4234 2.29755 28.4555C2.22713 28.59 2.30073 28.779 2.35194 28.8814L4.71436 33.2438C4.76878 33.3399 4.87763 33.4904 4.97367 33.404C4.99287 33.3751 5.01526 33.3495 5.03767 33.3207C5.1145 33.183 5.03766 32.994 4.98644 32.8947L2.62723 28.5323C2.5184 28.3402 2.41277 28.3145 2.36156 28.3722V28.369Z" fill="url(#paint9_linear_31_1378)"/>
<path d="M2.96339 27.6419C2.93778 27.6707 2.91538 27.6996 2.88977 27.7284C2.80654 27.8661 2.88017 28.0583 2.93139 28.1576L5.2906 32.52C5.34501 32.6128 5.45385 32.7634 5.56589 32.6737C5.59149 32.6449 5.6171 32.616 5.6395 32.5872C5.72914 32.4463 5.65551 32.2541 5.60109 32.1548L3.24188 27.7924C3.12985 27.6003 3.01781 27.5779 2.96019 27.6419H2.96339Z" fill="url(#paint10_linear_31_1378)"/>
<path d="M3.64835 26.8828C3.61954 26.9116 3.59073 26.9437 3.56512 26.9725C3.46909 27.1166 3.5395 27.3056 3.59071 27.4081L5.94992 31.7705C6.00434 31.8666 6.11639 32.0139 6.24123 31.921C6.27004 31.889 6.29886 31.8601 6.32447 31.8313C6.4237 31.6872 6.3533 31.495 6.30528 31.3925L3.94603 27.0301C3.83399 26.838 3.71558 26.8188 3.65156 26.8828H3.64835Z" fill="url(#paint11_linear_31_1378)"/>
<path d="M4.4102 26.1013C4.37819 26.1301 4.34616 26.1622 4.31415 26.1942C4.20531 26.3415 4.27575 26.5337 4.32697 26.6362L6.68618 30.9986C6.7438 31.0946 6.85582 31.242 6.99347 31.1427C7.02228 31.1107 7.05751 31.0818 7.08632 31.0466C7.19835 30.8993 7.12792 30.7071 7.07991 30.6046L4.7207 26.2454C4.60866 26.0533 4.48383 26.034 4.4134 26.1013H4.4102Z" fill="url(#paint12_linear_31_1378)"/>
<path d="M5.24249 25.2909C5.21048 25.323 5.17529 25.355 5.14008 25.387C5.01843 25.5376 5.08886 25.7297 5.14008 25.8322L7.49929 30.1914C7.55691 30.2875 7.67214 30.4348 7.8194 30.3323C7.85461 30.3003 7.8898 30.2683 7.92181 30.2331C8.04346 30.0825 7.97624 29.8903 7.92822 29.7878L5.56581 25.4287C5.45377 25.2365 5.32573 25.2173 5.2457 25.2877L5.24249 25.2909Z" fill="url(#paint13_linear_31_1378)"/>
<path d="M6.15169 24.4614C6.11648 24.4934 6.07807 24.5254 6.03966 24.5607C5.91161 24.7144 5.97562 24.9066 6.02684 25.0091L8.38609 29.3715C8.48212 29.5348 8.61334 29.5893 8.71898 29.5092C8.75419 29.4771 8.79259 29.4451 8.8278 29.4099C8.96225 29.2529 8.89504 29.0608 8.84703 28.9615L6.48782 24.5991C6.37578 24.4069 6.23492 24.3941 6.15169 24.4614Z" fill="url(#paint14_linear_31_1378)"/>
<path d="M7.13113 23.6062C7.08952 23.6383 7.05111 23.6735 7.01269 23.7087C6.87184 23.8657 6.93268 24.0611 6.98389 24.1603L9.3431 28.5227C9.43913 28.6861 9.57677 28.7373 9.68881 28.6572C9.72722 28.622 9.76563 28.59 9.80404 28.5547C9.94809 28.3946 9.88726 28.2024 9.83604 28.1031L7.47684 23.7408C7.3648 23.5486 7.21756 23.539 7.13113 23.6062Z" fill="url(#paint15_linear_31_1378)"/>
<path d="M8.17795 22.7382C8.13633 22.7735 8.09471 22.8087 8.04989 22.8407C7.89944 23.0009 7.96027 23.1963 8.01148 23.2988L10.3707 27.6579C10.4667 27.8181 10.6108 27.8725 10.7292 27.7892C10.7708 27.754 10.8124 27.722 10.8573 27.6867C11.0109 27.5266 10.9501 27.3344 10.9021 27.2319L8.54288 22.8728C8.42764 22.6806 8.27718 22.671 8.18115 22.7446L8.17795 22.7382Z" fill="url(#paint16_linear_31_1378)"/>
<path d="M9.28874 21.851C9.24393 21.8862 9.19589 21.9247 9.15428 21.9599C8.99102 22.1201 9.05187 22.3154 9.10309 22.4179L11.4623 26.7771C11.5199 26.8732 11.6447 27.0205 11.8304 26.9052C11.8752 26.87 11.92 26.8348 11.9681 26.7995C12.1313 26.6362 12.0737 26.444 12.0193 26.3415L9.66008 21.9791C9.52883 21.7581 9.36557 21.7966 9.28874 21.851Z" fill="url(#paint17_linear_31_1378)"/>
<path d="M10.4635 20.9542C10.4155 20.9894 10.3675 21.0247 10.3194 21.0631C10.1946 21.1688 10.1722 21.345 10.2554 21.5243L12.6146 25.8835C12.6723 25.9796 12.7971 26.1237 12.9956 26.0084C13.0436 25.9732 13.0916 25.9379 13.1396 25.8995C13.2645 25.7938 13.2901 25.6112 13.2036 25.4383L10.8444 21.0791C10.7356 20.8965 10.5692 20.8805 10.4603 20.9542H10.4635Z" fill="url(#paint18_linear_31_1378)"/>
<path d="M11.6959 20.0414C11.6447 20.0766 11.5966 20.1118 11.5486 20.1503C11.4173 20.256 11.3885 20.4385 11.475 20.6147L13.8342 24.9739C13.9334 25.1372 14.0839 25.1885 14.2247 25.0956C14.276 25.0604 14.324 25.0251 14.3752 24.9867C14.5064 24.881 14.5384 24.6952 14.452 24.5223L12.0928 20.1631C11.9616 19.9421 11.7823 19.9837 11.6959 20.0414Z" fill="url(#paint19_linear_31_1378)"/>
<path d="M12.9891 19.1189C12.9347 19.1542 12.8867 19.1926 12.8323 19.2278C12.6978 19.3335 12.6626 19.5193 12.749 19.6922L15.1083 24.0514C15.2075 24.218 15.3644 24.266 15.5084 24.1731C15.5596 24.1379 15.6108 24.0995 15.6621 24.0642C15.8029 23.9553 15.8381 23.7728 15.7517 23.5966L13.3924 19.2342C13.2772 19.0421 13.1044 19.0389 12.9859 19.1157L12.9891 19.1189Z" fill="url(#paint20_linear_31_1378)"/>
<path d="M14.3368 18.1901C14.2824 18.2285 14.228 18.2637 14.1768 18.299C14.0327 18.4079 13.9943 18.5872 14.0807 18.7666L16.4399 23.1258C16.5392 23.2923 16.6992 23.3372 16.8497 23.2443C16.9041 23.209 16.9585 23.1706 17.0098 23.1354C17.157 23.0265 17.1954 22.8439 17.109 22.6677L14.7498 18.3054C14.6345 18.1132 14.4553 18.1068 14.3336 18.1869L14.3368 18.1901Z" fill="url(#paint21_linear_31_1378)"/>
<path d="M15.7389 17.2549C15.6813 17.2901 15.6269 17.3285 15.5692 17.3638C15.4188 17.4759 15.3804 17.652 15.4668 17.8314L17.826 22.1905C17.9253 22.3571 18.0885 22.4051 18.2486 22.3091C18.303 22.2738 18.3606 22.2354 18.415 22.2002C18.5655 22.0913 18.6071 21.9055 18.5238 21.7325L16.1614 17.3734C16.0462 17.1812 15.8637 17.1748 15.7357 17.2549H15.7389Z" fill="url(#paint22_linear_31_1378)"/>
<path d="M17.189 16.3164C17.1314 16.3516 17.0737 16.3932 17.0161 16.4285C16.8625 16.5374 16.8177 16.7199 16.9009 16.8961L19.2601 21.2585C19.3625 21.425 19.5258 21.4699 19.689 21.377C19.7466 21.3418 19.8043 21.3033 19.8619 21.2681C20.0188 21.156 20.0636 20.9734 19.9803 20.8005L17.6211 16.4413C17.5059 16.2491 17.3202 16.2427 17.189 16.3228V16.3164Z" fill="url(#paint23_linear_31_1378)"/>
<path d="M18.6904 15.3779C18.6296 15.4163 18.5687 15.4516 18.5111 15.4868C18.3511 15.5957 18.3031 15.7815 18.3863 15.9544L20.7455 20.3136C20.8447 20.477 21.0176 20.525 21.1873 20.4321C21.2481 20.3969 21.3057 20.3584 21.3665 20.32C21.5266 20.2111 21.5746 20.0253 21.4946 19.8524L19.1353 15.49C19.0169 15.2978 18.828 15.2914 18.6904 15.3747V15.3779Z" fill="url(#paint24_linear_31_1378)"/>
<path d="M20.2332 14.4395C20.1724 14.4747 20.1116 14.5131 20.0508 14.5484C19.8875 14.6605 19.8363 14.843 19.9163 15.0192L22.2787 19.3816C22.378 19.5449 22.5572 19.5898 22.7269 19.5001C22.7877 19.4616 22.8485 19.4264 22.9094 19.3912C23.0758 19.2823 23.127 19.0965 23.0438 18.9235L20.6846 14.5644C20.5661 14.3722 20.3741 14.3658 20.23 14.4459L20.2332 14.4395Z" fill="url(#paint25_linear_31_1378)"/>
<path d="M21.821 13.5042C21.757 13.5394 21.6929 13.5779 21.6321 13.6131C21.4624 13.722 21.408 13.9046 21.4913 14.0807L23.8505 18.4399C23.9497 18.6033 24.129 18.6513 24.3083 18.5584C24.3691 18.5232 24.4331 18.4848 24.4971 18.4495C24.6668 18.3406 24.7244 18.1581 24.6411 17.9819L22.2819 13.6227C22.1635 13.4305 21.965 13.4241 21.821 13.5042Z" fill="url(#paint26_linear_31_1378)"/>
<path d="M23.4503 12.5754C23.3863 12.6106 23.3223 12.649 23.2551 12.6843C23.0822 12.7932 23.0278 12.9757 23.1078 13.1519L25.467 17.5143C25.5663 17.6776 25.7487 17.7257 25.9312 17.6328C25.9952 17.5976 26.0592 17.5591 26.1232 17.5239C26.2993 17.415 26.3569 17.2324 26.2737 17.0563L23.9145 12.6971C23.796 12.5049 23.5944 12.4985 23.4471 12.5786L23.4503 12.5754Z" fill="url(#paint27_linear_31_1378)"/>
<path d="M25.1182 11.6497C25.0509 11.685 24.9869 11.7234 24.9197 11.7586C24.7436 11.8675 24.6828 12.0501 24.766 12.2231L27.1253 16.5822C27.2245 16.7456 27.4101 16.7968 27.599 16.7039C27.663 16.6687 27.7303 16.6335 27.7975 16.5982C27.9767 16.4893 28.0376 16.3068 27.9575 16.1338L25.5983 11.7746C25.4799 11.5825 25.2782 11.5761 25.1246 11.6529L25.1182 11.6497Z" fill="url(#paint28_linear_31_1378)"/>
<path d="M26.8051 10.7465C26.7379 10.7817 26.6739 10.817 26.6066 10.8522C26.4274 10.9611 26.3666 11.1405 26.4498 11.3134L28.809 15.6726C28.9082 15.8392 29.0971 15.8872 29.2828 15.8007C29.35 15.7655 29.414 15.7302 29.4812 15.695C29.6573 15.5893 29.7181 15.41 29.6381 15.237L27.2789 10.8778C27.1604 10.6857 26.9588 10.676 26.8051 10.7497V10.7465Z" fill="url(#paint29_linear_31_1378)"/>
<path d="M28.4793 9.87853C28.4153 9.91056 28.348 9.94259 28.284 9.97782C28.1048 10.0803 28.0439 10.2565 28.1272 10.4326L30.4896 14.7918C30.5888 14.9552 30.7745 15.0096 30.9601 14.9231C31.0242 14.8911 31.0882 14.8559 31.1554 14.8238C31.3315 14.7245 31.3923 14.5452 31.3091 14.3722L28.9499 10.013C28.8346 9.82087 28.6265 9.80807 28.4793 9.87853Z" fill="url(#paint30_linear_31_1378)"/>
<path d="M30.1375 9.04255C30.0734 9.07458 30.0094 9.10661 29.9454 9.13864C29.7693 9.23793 29.7117 9.41089 29.7949 9.58705L32.1542 13.9462C32.2566 14.1096 32.4391 14.164 32.6215 14.0872C32.6855 14.0551 32.7528 14.0231 32.8168 13.9911C32.9896 13.8918 33.0505 13.7188 32.9672 13.5459L30.6048 9.18348C30.4896 8.99451 30.2847 8.97529 30.1375 9.04255Z" fill="url(#paint31_linear_31_1378)"/>
<path d="M31.7764 8.24823C31.7124 8.27705 31.6484 8.30908 31.5844 8.33791C31.4147 8.434 31.3539 8.60376 31.4371 8.77672L33.7963 13.1391C33.8955 13.3024 34.078 13.3601 34.2605 13.2832C34.3245 13.2512 34.3885 13.2224 34.4493 13.1903C34.619 13.0975 34.6766 12.9277 34.5966 12.7547L32.2374 8.39236C32.1189 8.20019 31.9205 8.17777 31.7764 8.24183V8.24823Z" fill="url(#paint32_linear_31_1378)"/>
<path d="M33.3898 7.49232C33.3258 7.52115 33.2649 7.54997 33.2009 7.5788C33.0345 7.66848 32.9769 7.83824 33.0569 8.01119L35.4161 12.3704C35.5153 12.5369 35.6978 12.5946 35.8739 12.5241C35.9379 12.4953 36.0019 12.4665 36.0627 12.4376C36.2324 12.3479 36.2868 12.1814 36.2035 12.0084L33.8443 7.64926C33.7259 7.45709 33.5275 7.43147 33.3866 7.49232H33.3898Z" fill="url(#paint33_linear_31_1378)"/>
<path d="M34.9807 6.77489C34.9167 6.80371 34.8559 6.82933 34.7919 6.85816C34.6254 6.94143 34.571 7.10799 34.6542 7.28415L37.0166 11.6465C37.1158 11.8131 37.2951 11.8739 37.4712 11.8067C37.5352 11.781 37.5928 11.7522 37.6568 11.7234C37.8233 11.6401 37.8745 11.4768 37.7913 11.3006L35.4321 6.93823C35.3168 6.74605 35.1216 6.71723 34.9839 6.77489H34.9807Z" fill="url(#paint34_linear_31_1378)"/>
<path d="M36.5397 6.09586C36.4788 6.12149 36.418 6.14712 36.3604 6.17274C36.1971 6.25281 36.1459 6.41936 36.2292 6.59232L38.5884 10.9515C38.6876 11.118 38.8669 11.1853 39.0365 11.1212C39.0974 11.0956 39.1582 11.07 39.219 11.0444C39.3822 10.9643 39.4303 10.8042 39.347 10.628L36.9878 6.26882C36.8726 6.07665 36.6805 6.04462 36.5429 6.09907L36.5397 6.09586Z" fill="url(#paint35_linear_31_1378)"/>
<path d="M38.0665 5.46167C38.0057 5.4873 37.9481 5.50971 37.8872 5.53533C37.7272 5.6122 37.6792 5.77235 37.7624 5.94531L40.1216 10.3045C40.2208 10.471 40.3969 10.5383 40.5666 10.4806C40.6242 10.4582 40.685 10.4326 40.7458 10.407C40.9027 10.3301 40.9507 10.1764 40.8643 10.0002L38.5051 5.64104C38.3866 5.44566 38.201 5.41043 38.0665 5.46167Z" fill="url(#paint36_linear_31_1378)"/>
<path d="M39.5583 4.86594C39.5007 4.88836 39.4431 4.91079 39.3855 4.93321C39.267 4.98766 39.1646 5.12538 39.267 5.33357L41.6262 9.69274C41.7255 9.85929 41.8983 9.92976 42.0648 9.87852C42.1192 9.8561 42.18 9.83367 42.2376 9.81125C42.3881 9.74078 42.4361 9.58705 42.3529 9.41409L39.9937 5.05491C39.8784 4.85953 39.6927 4.8211 39.5615 4.86594H39.5583Z" fill="url(#paint37_linear_31_1378)"/>
<path d="M41.0116 4.31504C40.954 4.33746 40.8964 4.35668 40.842 4.3791C40.6915 4.44316 40.6499 4.60331 40.7331 4.77306L43.0924 9.13223C43.1916 9.29878 43.358 9.37245 43.5213 9.32441C43.5757 9.30519 43.6365 9.28277 43.691 9.26355C43.8382 9.19949 43.8799 9.04255 43.7966 8.8728L41.4374 4.51363C41.3222 4.31825 41.1397 4.2734 41.0148 4.31824L41.0116 4.31504Z" fill="url(#paint38_linear_31_1378)"/>
<path d="M42.4201 3.80899C42.3657 3.8282 42.3113 3.84742 42.2537 3.86664C42.052 3.96593 42.1032 4.1517 42.1512 4.25099L44.5104 8.61016C44.6097 8.77671 44.7761 8.85678 44.9298 8.80874C44.9842 8.78952 45.0386 8.7703 45.0962 8.75109C45.2947 8.6518 45.2435 8.46924 45.1955 8.36674L42.8331 4.00756C42.7178 3.81219 42.5418 3.76414 42.4169 3.80578L42.4201 3.80899Z" fill="url(#paint39_linear_31_1378)"/>
<path d="M43.7837 3.34455C43.7325 3.36056 43.6781 3.37658 43.6269 3.3958C43.4316 3.48868 43.486 3.67125 43.534 3.77374L45.8965 8.13292C45.9925 8.29947 46.1558 8.38274 46.3062 8.34111C46.3574 8.32189 46.4118 8.30587 46.4631 8.28986C46.6583 8.19697 46.6039 8.01441 46.5527 7.91512L44.1935 3.55594C44.0782 3.36057 43.9054 3.30932 43.7837 3.34455Z" fill="url(#paint40_linear_31_1378)"/>
<path d="M45.1026 2.92817C45.0514 2.94418 45.0002 2.95699 44.9522 2.97621C44.7633 3.06269 44.8177 3.24205 44.8657 3.34455L47.2281 7.70692C47.2858 7.80301 47.4138 7.95996 47.6283 7.92473C47.6795 7.90871 47.7307 7.89269 47.7787 7.87988C47.9644 7.7934 47.91 7.61084 47.862 7.51475L45.4995 3.15238C45.3843 2.957 45.2178 2.90254 45.0994 2.93457L45.1026 2.92817Z" fill="url(#paint41_linear_31_1378)"/>
<path d="M46.3702 2.55667C46.319 2.56948 46.2742 2.58229 46.223 2.5983C46.0437 2.67838 46.1013 2.85774 46.1494 2.95703L48.5086 7.31621C48.6078 7.48276 48.7614 7.57244 48.8991 7.54361C48.9471 7.5308 48.9951 7.51478 49.0431 7.50197C49.2224 7.4219 49.1648 7.24574 49.1168 7.14325L46.7576 2.78407C46.6423 2.58869 46.479 2.52784 46.367 2.55346L46.3702 2.55667Z" fill="url(#paint42_linear_31_1378)"/>
<path d="M47.5803 2.23314C47.5355 2.24595 47.4907 2.25877 47.4395 2.26838C47.2698 2.34204 47.3274 2.5182 47.3754 2.61749L49.7346 6.97666C49.7955 7.07595 49.9171 7.23611 50.1156 7.21369C50.1636 7.20087 50.2084 7.19126 50.2564 7.17845C50.4261 7.10798 50.3717 6.92862 50.3173 6.82933L47.9581 2.47016C47.8268 2.24596 47.6571 2.21713 47.5771 2.23314H47.5803Z" fill="url(#paint43_linear_31_1378)"/>
<path d="M48.7359 1.95771C48.691 1.96732 48.6494 1.97693 48.6046 1.98654C48.4413 2.0506 48.5022 2.22996 48.5534 2.32605L50.9126 6.68523C50.9702 6.78452 51.0951 6.94466 51.2808 6.93185C51.3288 6.92224 51.3704 6.91263 51.412 6.89982C51.5752 6.83576 51.5144 6.6596 51.4664 6.56031L49.104 2.20114C48.9727 1.97694 48.8127 1.9417 48.7359 1.95451V1.95771Z" fill="url(#paint44_linear_31_1378)"/>
<path d="M49.8307 1.73029C49.7891 1.73989 49.7475 1.7463 49.7059 1.7559C49.5458 1.81676 49.6226 2.00894 49.6643 2.08901L52.0235 6.44818C52.1195 6.61793 52.2636 6.71723 52.3852 6.70121C52.4268 6.69481 52.4684 6.6884 52.51 6.67879C52.6605 6.62434 52.5997 6.44818 52.5485 6.34889L50.1892 1.98972C50.074 1.79114 49.9268 1.72067 49.8307 1.73348V1.73029Z" fill="url(#paint45_linear_31_1378)"/>
<path d="M50.8614 1.55414C50.823 1.56055 50.7846 1.56695 50.743 1.57336C50.5925 1.6246 50.6694 1.81678 50.7142 1.89685L53.0734 6.25602C53.1694 6.42578 53.3071 6.52827 53.4223 6.51866C53.4639 6.51226 53.5023 6.50585 53.5407 6.49945C53.6816 6.4514 53.6175 6.27845 53.5663 6.17915L51.2071 1.81999C51.0951 1.62141 50.951 1.54453 50.8614 1.55414Z" fill="url(#paint46_linear_31_1378)"/>
<path d="M51.8282 1.42603C51.793 1.42923 51.7546 1.43564 51.7161 1.43884C51.5785 1.48368 51.6553 1.67265 51.7001 1.75272L54.0593 6.1119C54.1554 6.28165 54.2866 6.38735 54.3955 6.38415C54.4307 6.38095 54.4691 6.37454 54.5075 6.37133C54.6355 6.3329 54.5715 6.15994 54.5235 6.06065L52.1611 1.70147C52.0491 1.50289 51.9146 1.42282 51.8314 1.42603H51.8282Z" fill="url(#paint47_linear_31_1378)"/>
<path d="M52.7212 1.35233C52.686 1.35233 52.654 1.35553 52.6188 1.35874C52.4907 1.39397 52.5708 1.58294 52.6156 1.66301L54.9748 6.02219C55.0708 6.19194 55.1957 6.30084 55.2981 6.30404C55.3301 6.30404 55.3654 6.30404 55.4006 6.29763C55.5222 6.2656 55.4422 6.07663 55.4006 5.99656L53.0414 1.63739C52.9133 1.40998 52.7788 1.35233 52.7244 1.35233H52.7212Z" fill="url(#paint48_linear_31_1378)"/>
<path d="M53.5407 1.32993C53.5087 1.32993 53.4799 1.32993 53.4479 1.32993C53.4191 1.33954 53.3295 1.37476 53.4575 1.62459L55.8167 5.98377C55.8615 6.06384 55.9832 6.25281 56.124 6.27523H56.2169C56.2489 6.26242 56.3321 6.23359 56.204 5.98377L53.8448 1.62138C53.7136 1.39398 53.5952 1.32992 53.5407 1.32672V1.32993Z" fill="url(#paint49_linear_31_1378)"/>
<path d="M54.2865 1.36196C54.2577 1.36196 54.2321 1.35876 54.2033 1.35556L54.1713 1.36517C54.1521 1.4036 54.1297 1.45485 54.2257 1.63742L56.5849 5.99979C56.6298 6.07666 56.7482 6.26564 56.8795 6.30087C56.9083 6.30087 56.9339 6.30407 56.9627 6.30727L56.9819 6.30087C57.0075 6.26243 57.0299 6.21118 56.9306 6.02541L54.5714 1.66624C54.4434 1.43884 54.3281 1.36837 54.2833 1.36196H54.2865Z" fill="url(#paint50_linear_31_1378)"/>
<path d="M54.9524 1.44842C54.9268 1.44522 54.9012 1.43881 54.8788 1.43561L54.85 1.44201C54.834 1.47724 54.8212 1.52529 54.9172 1.70786L57.2764 6.06703C57.3212 6.1471 57.4365 6.33607 57.5549 6.38092C57.5805 6.38412 57.6029 6.39053 57.6285 6.39373C57.6381 6.39053 57.6509 6.38412 57.6509 6.38412C57.6669 6.33928 57.6734 6.28803 57.5869 6.12469L55.2277 1.7623C55.0997 1.53489 54.994 1.45803 54.9524 1.44842Z" fill="url(#paint51_linear_31_1378)"/>
<path d="M55.5351 1.58938C55.5159 1.58297 55.4935 1.57657 55.4711 1.57016L55.4423 1.58296C55.4423 1.6214 55.4391 1.66945 55.5223 1.836L57.8847 6.19518C57.9263 6.27525 58.0448 6.46421 58.1472 6.51866C58.1664 6.52507 58.1888 6.53147 58.2112 6.53788L58.2304 6.53148C58.24 6.48984 58.24 6.445 58.1536 6.27844L55.7944 1.91928C55.6695 1.69187 55.5735 1.60859 55.5351 1.59257V1.58938Z" fill="url(#paint52_linear_31_1378)"/>
<path d="M56.0344 1.78796C56.0344 1.78796 55.9992 1.76873 55.98 1.76233C55.9736 1.77194 55.964 1.78155 55.964 1.78155C55.964 1.82318 55.9768 1.87443 56.0472 2.01536L58.4064 6.37774C58.4512 6.45461 58.5601 6.64678 58.6529 6.71084C58.6721 6.72045 58.6913 6.73006 58.7041 6.73646L58.7265 6.71084C58.7169 6.67881 58.7042 6.62756 58.6305 6.48663L56.2713 2.12747C56.1433 1.89686 56.06 1.80718 56.028 1.79116L56.0344 1.78796Z" fill="url(#paint53_linear_31_1378)"/>
<path d="M56.441 2.04097C56.441 2.04097 56.4122 2.01855 56.3994 2.00894C56.3898 2.04738 56.3866 2.06339 56.4858 2.24916L58.845 6.61153C58.8898 6.6884 58.9987 6.88058 59.0755 6.95425C59.0915 6.96706 59.1043 6.97666 59.1043 6.97666C59.1267 6.94784 59.1299 6.93823 59.0275 6.74926L56.6683 2.39009C56.5498 2.17229 56.473 2.06659 56.441 2.04417V2.04097Z" fill="url(#paint54_linear_31_1378)"/>
<path d="M56.761 2.35165C56.761 2.35165 56.7386 2.32601 56.729 2.3132C56.7386 2.36445 56.7386 2.37406 56.8315 2.54381L59.1939 6.90299C59.2579 7.0215 59.3539 7.18804 59.4083 7.25851C59.4179 7.27132 59.4276 7.28413 59.4404 7.30015C59.4297 7.26385 59.3923 7.18698 59.3283 7.06954L56.9691 2.71037C56.8474 2.48937 56.7803 2.38047 56.761 2.35165Z" fill="url(#paint55_linear_31_1378)"/>
<path d="M4.11255 39.2172C2.07025 35.441 12.9828 25.5632 28.4921 17.162C44.0015 8.76069 58.2304 5.01328 60.2759 8.79272C62.3214 12.569 51.4056 22.4436 35.8995 30.8448C20.3902 39.2461 6.16126 42.9935 4.11576 39.214L4.11255 39.2172Z" fill="url(#paint56_linear_31_1378)"/>
<path d="M4.70796 39.4735C2.7937 35.9407 13.623 26.3735 28.8955 18.1004C44.1647 9.82725 58.0895 5.98695 60.0006 9.51977C61.9148 13.0526 51.0823 22.6197 35.8163 30.8929C20.547 39.1628 6.61902 43.0063 4.70796 39.4735Z" fill="url(#paint57_linear_31_1378)"/>
<path d="M11.6928 36.5108C10.3804 34.0926 18.7288 27.0334 30.336 20.746C41.9432 14.4587 52.414 11.323 53.7201 13.7444C55.0293 16.1626 46.684 23.2219 35.0768 29.5092C23.4696 35.7965 12.9989 38.9322 11.6928 36.514V36.5108Z" fill="url(#paint58_linear_31_1378)"/>
<path d="M11.7472 34.4705C11.7696 34.5442 11.7728 34.6243 11.808 34.6915C13.13 37.1322 23.2583 34.2015 34.4366 28.148C45.6116 22.0945 53.6047 15.2082 52.2827 12.7676C52.2763 12.7515 52.2571 12.7419 52.2475 12.7291C48.8031 12.0437 39.8432 15.016 30.0959 20.2944C20.595 25.4383 13.3253 31.1651 11.7504 34.4705H11.7472Z" fill="url(#paint59_linear_31_1378)"/>
<path d="M24.4972 27.1038L25.2239 28.449L26.2482 27.8917L26.0114 27.4529C26.069 27.4433 26.1138 27.4433 26.1778 27.4305C26.674 27.3312 27.3206 27.1422 28.1145 26.8604C28.9051 26.5817 29.8911 26.1942 31.0691 25.7073C31.8054 25.3999 32.4007 25.1564 32.8553 24.9803C33.3099 24.8009 33.6684 24.6696 33.9341 24.5831C34.1998 24.4966 34.3758 24.4518 34.4719 24.4454C34.5679 24.439 34.6223 24.455 34.6415 24.487C34.6735 24.5479 34.5967 24.6632 34.4046 24.8329C34.2126 25.0027 33.87 25.2269 33.3643 25.4959C32.4039 26.0148 31.7925 26.1141 31.5333 25.7842C28.2137 28.0775 26.4595 29.2786 26.2386 29.4067L26.2194 29.4163V29.4195H26.2226L26.9941 30.8448L31.1619 28.5868L30.9987 28.2793C31.2996 28.1448 31.6101 28.0038 31.9302 27.8469L32.3239 28.5739L36.3509 26.3928L35.9636 25.6753C37.6441 24.6504 38.8446 23.7696 39.5712 23.0233C39.6608 22.9304 39.7216 22.8503 39.7985 22.7606L40.0866 23.2987L41.111 22.7446L40.3235 21.2905V21.2873V21.2809H40.3203C40.2178 21.0919 40.0418 20.967 39.7825 20.9094C39.5232 20.8517 39.1198 20.8805 38.5596 21.0022C38.4668 21.0215 38.3612 21.0503 38.2588 21.0759L39.8977 20.1887L39.1295 18.773L39.1039 18.7858L39.1262 18.7698C38.0603 18.4111 36.0468 18.946 33.0922 20.3745L32.7625 19.7659L28.7355 21.9471L29.0748 22.5749C27.3558 23.6254 26.1042 24.5319 25.3135 25.2942C24.5708 26.0116 24.302 26.5849 24.4748 27.0205L24.4556 27.0301L24.494 27.1006L24.4972 27.1038ZM30.6978 23.4909C30.9923 23.2827 31.3284 23.0713 31.6965 22.8727C32.8745 22.2354 33.5499 22.0752 33.7228 22.3923L34.936 21.582L35.2177 22.104C34.5295 22.3731 33.7484 22.6838 32.8553 23.0553C32.0486 23.3916 31.434 23.6382 31.0115 23.792C30.5825 23.9489 30.3553 23.9906 30.3137 23.9201C30.272 23.8432 30.4001 23.6991 30.6978 23.4909Z" fill="url(#paint60_linear_31_1378)"/>
<path d="M25.816 28.9103C26.0721 28.9743 26.453 28.9551 26.9492 28.859C27.4485 28.7597 28.0919 28.5708 28.8858 28.2889C29.6797 28.0102 30.6624 27.6259 31.8372 27.1358C32.5735 26.8284 33.1721 26.5849 33.6267 26.4088C34.0812 26.2294 34.4397 26.0981 34.7054 26.0116C34.9711 25.9251 35.1472 25.8803 35.2432 25.8739C35.3392 25.8675 35.3937 25.8803 35.4129 25.9155C35.4449 25.9764 35.3649 26.0917 35.176 26.2614C34.9839 26.4312 34.6382 26.6522 34.1356 26.9277C33.1753 27.4465 32.5639 27.5458 32.3046 27.2159C28.9114 29.5572 27.1412 30.7712 26.9844 30.8512C27.9959 31.1491 29.9006 30.627 32.7015 29.2786L33.0921 30.0025L37.119 27.8213L36.7317 27.1038C38.4123 26.0789 39.6095 25.1981 40.3394 24.4518C41.0628 23.7087 41.3157 23.129 41.0916 22.719C40.9892 22.5268 40.8099 22.3987 40.5506 22.3411C40.2914 22.2834 39.888 22.3122 39.3278 22.4308C38.7708 22.5493 38.0378 22.7735 37.1287 23.1002C36.2195 23.4269 35.0512 23.8849 33.6203 24.4838C32.8136 24.8201 32.199 25.0668 31.7764 25.2205C31.3475 25.3774 31.117 25.4159 31.0786 25.3454C31.037 25.2685 31.165 25.1244 31.4595 24.9162C31.754 24.708 32.0901 24.4998 32.4615 24.3013C33.6395 23.6639 34.3149 23.5037 34.4845 23.8208L39.8944 20.1983C38.8284 19.8364 36.815 20.3745 33.8603 21.803L33.5306 21.1944L29.5036 23.3756L29.8429 24.0034C28.124 25.0571 26.8723 25.9604 26.0849 26.7227C25.2974 27.4818 25.0253 28.0871 25.2654 28.5291C25.3678 28.7213 25.5503 28.8494 25.8128 28.9103H25.816Z" fill="url(#paint61_linear_31_1378)"/>
<path style="mix-blend-mode:color-dodge" d="M44.4848 9.46535C45.093 8.9753 49.12 8.03044 53.4703 7.34821C57.8238 6.66599 60.8552 6.50906 60.247 6.9959C59.6356 7.48275 55.6119 8.4308 51.2616 9.11303C46.9081 9.79525 43.8734 9.95219 44.4848 9.46855V9.46535Z" fill="url(#paint62_radial_31_1378)"/>
<path style="mix-blend-mode:color-dodge" d="M11.7951 36.8054C12.2977 36.3698 15.7005 35.4282 19.3945 34.7043C23.0854 33.9773 25.6719 33.7435 25.1693 34.1758C24.6636 34.6114 21.264 35.5531 17.5699 36.277C13.8759 37.004 11.2894 37.241 11.7919 36.8054H11.7951Z" fill="url(#paint63_radial_31_1378)"/>
<g style="mix-blend-mode:screen" opacity="0.47">
<path d="M35.8162 30.8929C51.0822 22.6229 61.9148 13.0526 60.0005 9.51977C58.0895 5.98695 44.1647 9.82725 28.8954 18.1004C13.6262 26.3735 2.79683 35.9407 4.70789 39.4735C6.61894 43.0063 20.5469 39.166 35.8162 30.8929ZM29.7149 19.5897C41.3221 13.2992 51.9305 10.423 53.4126 13.1647C54.8947 15.9032 46.6871 23.2187 35.0799 29.506C23.4727 35.7933 12.8643 38.6727 11.379 35.931C9.9001 33.1926 18.1077 25.8771 29.7117 19.5897H29.7149Z" fill="url(#paint64_linear_31_1378)"/>
<path d="M26.946 28.859C27.4454 28.7597 28.0888 28.5708 28.8826 28.2889C29.6765 28.0102 30.6593 27.6259 31.8341 27.1358C32.5703 26.8284 33.1689 26.5849 33.6235 26.4088C34.078 26.2294 34.4366 26.0981 34.7023 26.0116C34.968 25.9251 35.144 25.8803 35.24 25.8739C35.3361 25.8675 35.3905 25.8803 35.4097 25.9155C35.4417 25.9764 35.3617 26.0917 35.1728 26.2614C34.9807 26.4312 34.635 26.6522 34.1325 26.9277C33.1721 27.4465 32.5607 27.5458 32.3014 27.2159C28.9083 29.5572 27.1381 30.7712 26.9844 30.8512C27.9928 31.1491 29.9006 30.627 32.6984 29.2786L33.0889 30.0025L37.1159 27.8213L36.7285 27.1038C38.4091 26.0789 39.6063 25.1981 40.3362 24.4518C41.0596 23.7087 41.3125 23.129 41.0884 22.719C40.986 22.5268 40.8068 22.3987 40.5475 22.3411C40.2882 22.2834 39.8848 22.3122 39.3246 22.4308C38.7676 22.5493 38.0346 22.7735 37.1255 23.1002C36.2164 23.4269 35.048 23.8849 33.6171 24.4838C32.8104 24.8201 32.1958 25.0668 31.7732 25.2205C31.3443 25.3774 31.1138 25.4159 31.0754 25.3454C31.0338 25.2685 31.1618 25.1244 31.4563 24.9162C31.7508 24.708 32.087 24.4998 32.4583 24.3013C33.6363 23.6639 34.3117 23.5037 34.4814 23.8208L39.8912 20.1983C38.8253 19.8364 36.8118 20.3745 33.8572 21.803L33.5274 21.1944L29.5005 23.3756L29.8398 24.0034C28.1208 25.0571 26.8692 25.9604 26.0817 26.7227C25.2942 27.4818 25.0221 28.0871 25.2622 28.5291C25.3679 28.7213 25.5471 28.8494 25.8096 28.9103C26.0657 28.9743 26.4466 28.9551 26.9428 28.859H26.946Z" fill="url(#paint65_linear_31_1378)"/>
</g>
<defs>
<linearGradient id="paint0_linear_31_1378" x1="56.7762" y1="2.31134" x2="0.598762" y2="32.7071" gradientUnits="userSpaceOnUse">
<stop stop-color="#B24A12"/>
<stop offset="0.02" stop-color="#C36F28"/>
<stop offset="0.03" stop-color="#D18E3C"/>
<stop offset="0.06" stop-color="#DDA94D"/>
<stop offset="0.08" stop-color="#E7BF5A"/>
<stop offset="0.1" stop-color="#EED065"/>
<stop offset="0.14" stop-color="#F4DC6C"/>
<stop offset="0.18" stop-color="#F7E370"/>
<stop offset="0.31" stop-color="#F8E572"/>
<stop offset="0.38" stop-color="#FFDB41"/>
<stop offset="0.61" stop-color="#D99108"/>
<stop offset="0.64" stop-color="#B14810"/>
<stop offset="0.65" stop-color="#BA591B"/>
<stop offset="0.66" stop-color="#C4712A"/>
<stop offset="0.73" stop-color="#EDCD63"/>
<stop offset="0.76" stop-color="#FEF27A"/>
<stop offset="0.87" stop-color="#FFD83B"/>
<stop offset="0.95" stop-color="#D58902"/>
<stop offset="0.97" stop-color="#BA5A28"/>
<stop offset="1" stop-color="#BF6221"/>
</linearGradient>
<linearGradient id="paint1_linear_31_1378" x1="1.96034" y1="35.4387" x2="59.9931" y2="4.03934" gradientUnits="userSpaceOnUse">
<stop stop-color="#FFF7AE"/>
<stop offset="0.14" stop-color="#FEF38A"/>
<stop offset="0.2" stop-color="#FEF27A"/>
<stop offset="0.31" stop-color="#FEE355"/>
<stop offset="0.38" stop-color="#FFD83B"/>
<stop offset="0.68" stop-color="#EDB905"/>
<stop offset="1" stop-color="#D58902"/>
</linearGradient>
<linearGradient id="paint2_linear_31_1378" x1="1.76171" y1="35.0583" x2="57.6041" y2="4.84363" gradientUnits="userSpaceOnUse">
<stop stop-color="#FFF7AE"/>
<stop offset="0.14" stop-color="#FEF38A"/>
<stop offset="0.2" stop-color="#FEF27A"/>
<stop offset="0.31" stop-color="#FEE355"/>
<stop offset="0.38" stop-color="#FFD83B"/>
<stop offset="0.68" stop-color="#EDB905"/>
<stop offset="1" stop-color="#D58902"/>
</linearGradient>
<linearGradient id="paint3_linear_31_1378" x1="1.55488" y1="34.6895" x2="58.4278" y2="3.9175" gradientUnits="userSpaceOnUse">
<stop stop-color="#FFF7AE"/>
<stop offset="0.14" stop-color="#FEF38A"/>
<stop offset="0.2" stop-color="#FEF27A"/>
<stop offset="0.31" stop-color="#FEE355"/>
<stop offset="0.38" stop-color="#FFD83B"/>
<stop offset="0.68" stop-color="#EDB905"/>
<stop offset="1" stop-color="#D58902"/>
</linearGradient>
<linearGradient id="paint4_linear_31_1378" x1="1.35838" y1="34.3262" x2="57.8259" y2="3.77331" gradientUnits="userSpaceOnUse">
<stop stop-color="#FFF7AE"/>
<stop offset="0.14" stop-color="#FEF38A"/>
<stop offset="0.2" stop-color="#FEF27A"/>
<stop offset="0.31" stop-color="#FEE355"/>
<stop offset="0.38" stop-color="#FFD83B"/>
<stop offset="0.68" stop-color="#EDB905"/>
<stop offset="1" stop-color="#D58902"/>
</linearGradient>
<linearGradient id="paint5_linear_31_1378" x1="1.15908" y1="33.9715" x2="57.8825" y2="3.28046" gradientUnits="userSpaceOnUse">
<stop stop-color="#FFF7AE"/>
<stop offset="0.14" stop-color="#FEF38A"/>
<stop offset="0.2" stop-color="#FEF27A"/>
<stop offset="0.31" stop-color="#FEE355"/>
<stop offset="0.38" stop-color="#FFD83B"/>
<stop offset="0.68" stop-color="#EDB905"/>
<stop offset="1" stop-color="#D58902"/>
</linearGradient>
<linearGradient id="paint6_linear_31_1378" x1="0.975783" y1="33.6192" x2="57.4263" y2="3.07581" gradientUnits="userSpaceOnUse">
<stop stop-color="#FFF7AE"/>
<stop offset="0.14" stop-color="#FEF38A"/>
<stop offset="0.2" stop-color="#FEF27A"/>
<stop offset="0.31" stop-color="#FEE355"/>
<stop offset="0.38" stop-color="#FFD83B"/>
<stop offset="0.68" stop-color="#EDB905"/>
<stop offset="1" stop-color="#D58902"/>
</linearGradient>
<linearGradient id="paint7_linear_31_1378" x1="0.798535" y1="33.2781" x2="57.0042" y2="2.86703" gradientUnits="userSpaceOnUse">
<stop stop-color="#FFF7AE"/>
<stop offset="0.14" stop-color="#FEF38A"/>
<stop offset="0.2" stop-color="#FEF27A"/>
<stop offset="0.31" stop-color="#FEE355"/>
<stop offset="0.38" stop-color="#FFD83B"/>
<stop offset="0.68" stop-color="#EDB905"/>
<stop offset="1" stop-color="#D58902"/>
</linearGradient>
<linearGradient id="paint8_linear_31_1378" x1="0.610197" y1="32.9504" x2="57.0323" y2="2.42243" gradientUnits="userSpaceOnUse">
<stop stop-color="#FFF7AE"/>
<stop offset="0.14" stop-color="#FEF38A"/>
<stop offset="0.2" stop-color="#FEF27A"/>
<stop offset="0.31" stop-color="#FEE355"/>
<stop offset="0.38" stop-color="#FFD83B"/>
<stop offset="0.68" stop-color="#EDB905"/>
<stop offset="1" stop-color="#D58902"/>
</linearGradient>
<linearGradient id="paint9_linear_31_1378" x1="0.430948" y1="32.6323" x2="56.8982" y2="2.0799" gradientUnits="userSpaceOnUse">
<stop stop-color="#FFF7AE"/>
<stop offset="0.14" stop-color="#FEF38A"/>
<stop offset="0.2" stop-color="#FEF27A"/>
<stop offset="0.31" stop-color="#FEE355"/>
<stop offset="0.38" stop-color="#FFD83B"/>
<stop offset="0.68" stop-color="#EDB905"/>
<stop offset="1" stop-color="#D58902"/>
</linearGradient>
<linearGradient id="paint10_linear_31_1378" x1="0.258991" y1="32.3212" x2="56.715" y2="1.77475" gradientUnits="userSpaceOnUse">
<stop stop-color="#FFF7AE"/>
<stop offset="0.14" stop-color="#FEF38A"/>
<stop offset="0.2" stop-color="#FEF27A"/>
<stop offset="0.31" stop-color="#FEE355"/>
<stop offset="0.38" stop-color="#FFD83B"/>
<stop offset="0.68" stop-color="#EDB905"/>
<stop offset="1" stop-color="#D58902"/>
</linearGradient>
<linearGradient id="paint11_linear_31_1378" x1="0.102969" y1="32.0196" x2="56.4607" y2="1.52611" gradientUnits="userSpaceOnUse">
<stop stop-color="#FFF7AE"/>
<stop offset="0.14" stop-color="#FEF38A"/>
<stop offset="0.2" stop-color="#FEF27A"/>
<stop offset="0.31" stop-color="#FEE355"/>
<stop offset="0.38" stop-color="#FFD83B"/>
<stop offset="0.68" stop-color="#EDB905"/>
<stop offset="1" stop-color="#D58902"/>
</linearGradient>
<linearGradient id="paint12_linear_31_1378" x1="-0.0581217" y1="31.7353" x2="56.3502" y2="1.21452" gradientUnits="userSpaceOnUse">
<stop stop-color="#FFF7AE"/>
<stop offset="0.14" stop-color="#FEF38A"/>
<stop offset="0.2" stop-color="#FEF27A"/>
<stop offset="0.31" stop-color="#FEE355"/>
<stop offset="0.38" stop-color="#FFD83B"/>
<stop offset="0.68" stop-color="#EDB905"/>
<stop offset="1" stop-color="#D58902"/>
</linearGradient>
<linearGradient id="paint13_linear_31_1378" x1="-0.214555" y1="31.4595" x2="56.2077" y2="0.931437" gradientUnits="userSpaceOnUse">
<stop stop-color="#FFF7AE"/>
<stop offset="0.14" stop-color="#FEF38A"/>
<stop offset="0.2" stop-color="#FEF27A"/>
<stop offset="0.31" stop-color="#FEE355"/>
<stop offset="0.38" stop-color="#FFD83B"/>
<stop offset="0.68" stop-color="#EDB905"/>
<stop offset="1" stop-color="#D58902"/>
</linearGradient>
<linearGradient id="paint14_linear_31_1378" x1="-0.330913" y1="31.1838" x2="55.8915" y2="0.76364" gradientUnits="userSpaceOnUse">
<stop stop-color="#FFF7AE"/>
<stop offset="0.14" stop-color="#FEF38A"/>
<stop offset="0.2" stop-color="#FEF27A"/>
<stop offset="0.31" stop-color="#FEE355"/>
<stop offset="0.38" stop-color="#FFD83B"/>
<stop offset="0.68" stop-color="#EDB905"/>
<stop offset="1" stop-color="#D58902"/>
</linearGradient>
<linearGradient id="paint15_linear_31_1378" x1="-0.467885" y1="30.9375" x2="55.7741" y2="0.506959" gradientUnits="userSpaceOnUse">
<stop stop-color="#FFF7AE"/>
<stop offset="0.14" stop-color="#FEF38A"/>
<stop offset="0.2" stop-color="#FEF27A"/>
<stop offset="0.31" stop-color="#FEE355"/>
<stop offset="0.38" stop-color="#FFD83B"/>
<stop offset="0.68" stop-color="#EDB905"/>
<stop offset="1" stop-color="#D58902"/>
</linearGradient>
<linearGradient id="paint16_linear_31_1378" x1="-0.607185" y1="30.707" x2="55.6942" y2="0.244073" gradientUnits="userSpaceOnUse">
<stop stop-color="#FFF7AE"/>
<stop offset="0.14" stop-color="#FEF38A"/>
<stop offset="0.2" stop-color="#FEF27A"/>
<stop offset="0.31" stop-color="#FEE355"/>
<stop offset="0.38" stop-color="#FFD83B"/>
<stop offset="0.68" stop-color="#EDB905"/>
<stop offset="1" stop-color="#D58902"/>
</linearGradient>
<linearGradient id="paint17_linear_31_1378" x1="-0.714769" y1="30.4812" x2="55.5274" y2="0.0503006" gradientUnits="userSpaceOnUse">
<stop stop-color="#FFF7AE"/>
<stop offset="0.14" stop-color="#FEF38A"/>
<stop offset="0.2" stop-color="#FEF27A"/>
<stop offset="0.31" stop-color="#FEE355"/>
<stop offset="0.38" stop-color="#FFD83B"/>
<stop offset="0.68" stop-color="#EDB905"/>
<stop offset="1" stop-color="#D58902"/>
</linearGradient>
<linearGradient id="paint18_linear_31_1378" x1="-0.857005" y1="30.2923" x2="55.5231" y2="-0.213086" gradientUnits="userSpaceOnUse">
<stop stop-color="#FFF7AE"/>
<stop offset="0.14" stop-color="#FEF38A"/>
<stop offset="0.2" stop-color="#FEF27A"/>
<stop offset="0.31" stop-color="#FEE355"/>
<stop offset="0.38" stop-color="#FFD83B"/>
<stop offset="0.68" stop-color="#EDB905"/>
<stop offset="1" stop-color="#D58902"/>
</linearGradient>
<linearGradient id="paint19_linear_31_1378" x1="-0.942383" y1="30.0945" x2="55.3563" y2="-0.367079" gradientUnits="userSpaceOnUse">
<stop stop-color="#FFF7AE"/>
<stop offset="0.14" stop-color="#FEF38A"/>
<stop offset="0.2" stop-color="#FEF27A"/>
<stop offset="0.31" stop-color="#FEE355"/>
<stop offset="0.38" stop-color="#FFD83B"/>
<stop offset="0.68" stop-color="#EDB905"/>
<stop offset="1" stop-color="#D58902"/>
</linearGradient>
<linearGradient id="paint20_linear_31_1378" x1="-1.0353" y1="29.9227" x2="55.2605" y2="-0.53726" gradientUnits="userSpaceOnUse">
<stop stop-color="#FFF7AE"/>
<stop offset="0.14" stop-color="#FEF38A"/>
<stop offset="0.2" stop-color="#FEF27A"/>
<stop offset="0.31" stop-color="#FEE355"/>
<stop offset="0.38" stop-color="#FFD83B"/>
<stop offset="0.68" stop-color="#EDB905"/>
<stop offset="1" stop-color="#D58902"/>
</linearGradient>
<linearGradient id="paint21_linear_31_1378" x1="-1.12754" y1="29.7723" x2="55.1937" y2="-0.701407" gradientUnits="userSpaceOnUse">
<stop stop-color="#FFF7AE"/>
<stop offset="0.14" stop-color="#FEF38A"/>
<stop offset="0.2" stop-color="#FEF27A"/>
<stop offset="0.31" stop-color="#FEE355"/>
<stop offset="0.38" stop-color="#FFD83B"/>
<stop offset="0.68" stop-color="#EDB905"/>
<stop offset="1" stop-color="#D58902"/>
</linearGradient>
<linearGradient id="paint22_linear_31_1378" x1="-1.1908" y1="29.6282" x2="55.0906" y2="-0.823681" gradientUnits="userSpaceOnUse">
<stop stop-color="#FFF7AE"/>
<stop offset="0.14" stop-color="#FEF38A"/>
<stop offset="0.2" stop-color="#FEF27A"/>
<stop offset="0.31" stop-color="#FEE355"/>
<stop offset="0.38" stop-color="#FFD83B"/>
<stop offset="0.68" stop-color="#EDB905"/>
<stop offset="1" stop-color="#D58902"/>
</linearGradient>
<linearGradient id="paint23_linear_31_1378" x1="-1.25492" y1="29.5099" x2="55.0239" y2="-0.940694" gradientUnits="userSpaceOnUse">
<stop stop-color="#FFF7AE"/>
<stop offset="0.14" stop-color="#FEF38A"/>
<stop offset="0.2" stop-color="#FEF27A"/>
<stop offset="0.31" stop-color="#FEE355"/>
<stop offset="0.38" stop-color="#FFD83B"/>
<stop offset="0.68" stop-color="#EDB905"/>
<stop offset="1" stop-color="#D58902"/>
</linearGradient>
<linearGradient id="paint24_linear_31_1378" x1="-1.30531" y1="29.4098" x2="54.965" y2="-1.03616" gradientUnits="userSpaceOnUse">
<stop stop-color="#FFF7AE"/>
<stop offset="0.14" stop-color="#FEF38A"/>
<stop offset="0.2" stop-color="#FEF27A"/>
<stop offset="0.31" stop-color="#FEE355"/>
<stop offset="0.38" stop-color="#FFD83B"/>
<stop offset="0.68" stop-color="#EDB905"/>
<stop offset="1" stop-color="#D58902"/>
</linearGradient>
<linearGradient id="paint25_linear_31_1378" x1="-1.35944" y1="29.337" x2="54.9363" y2="-1.12285" gradientUnits="userSpaceOnUse">
<stop stop-color="#FFF7AE"/>
<stop offset="0.14" stop-color="#FEF38A"/>
<stop offset="0.2" stop-color="#FEF27A"/>
<stop offset="0.31" stop-color="#FEE355"/>
<stop offset="0.38" stop-color="#FFD83B"/>
<stop offset="0.68" stop-color="#EDB905"/>
<stop offset="1" stop-color="#D58902"/>
</linearGradient>
<linearGradient id="paint26_linear_31_1378" x1="-1.37445" y1="29.2687" x2="54.8818" y2="-1.16964" gradientUnits="userSpaceOnUse">
<stop stop-color="#FFF7AE"/>
<stop offset="0.14" stop-color="#FEF38A"/>
<stop offset="0.2" stop-color="#FEF27A"/>
<stop offset="0.31" stop-color="#FEE355"/>
<stop offset="0.38" stop-color="#FFD83B"/>
<stop offset="0.68" stop-color="#EDB905"/>
<stop offset="1" stop-color="#D58902"/>
</linearGradient>
<linearGradient id="paint27_linear_31_1378" x1="-1.39559" y1="29.2293" x2="54.8604" y2="-1.20867" gradientUnits="userSpaceOnUse">
<stop stop-color="#FFF7AE"/>
<stop offset="0.14" stop-color="#FEF38A"/>
<stop offset="0.2" stop-color="#FEF27A"/>
<stop offset="0.31" stop-color="#FEE355"/>
<stop offset="0.38" stop-color="#FFD83B"/>
<stop offset="0.68" stop-color="#EDB905"/>
<stop offset="1" stop-color="#D58902"/>
</linearGradient>
<linearGradient id="paint28_linear_31_1378" x1="-1.40484" y1="29.2124" x2="54.8514" y2="-1.22586" gradientUnits="userSpaceOnUse">
<stop stop-color="#FFF7AE"/>
<stop offset="0.14" stop-color="#FEF38A"/>
<stop offset="0.2" stop-color="#FEF27A"/>
<stop offset="0.31" stop-color="#FEE355"/>
<stop offset="0.38" stop-color="#FFD83B"/>
<stop offset="0.68" stop-color="#EDB905"/>
<stop offset="1" stop-color="#D58902"/>
</linearGradient>
<linearGradient id="paint29_linear_31_1378" x1="-1.41587" y1="29.2257" x2="54.8657" y2="-1.22628" gradientUnits="userSpaceOnUse">
<stop stop-color="#FFF7AE"/>
<stop offset="0.14" stop-color="#FEF38A"/>
<stop offset="0.2" stop-color="#FEF27A"/>
<stop offset="0.31" stop-color="#FEE355"/>
<stop offset="0.38" stop-color="#FFD83B"/>
<stop offset="0.68" stop-color="#EDB905"/>
<stop offset="1" stop-color="#D58902"/>
</linearGradient>
<linearGradient id="paint30_linear_31_1378" x1="-1.42056" y1="29.2645" x2="54.895" y2="-1.20609" gradientUnits="userSpaceOnUse">
<stop stop-color="#FFF7AE"/>
<stop offset="0.14" stop-color="#FEF38A"/>
<stop offset="0.2" stop-color="#FEF27A"/>
<stop offset="0.31" stop-color="#FEE355"/>
<stop offset="0.38" stop-color="#FFD83B"/>
<stop offset="0.68" stop-color="#EDB905"/>
<stop offset="1" stop-color="#D58902"/>
</linearGradient>
<linearGradient id="paint31_linear_31_1378" x1="-1.4184" y1="29.3289" x2="54.9393" y2="-1.16444" gradientUnits="userSpaceOnUse">
<stop stop-color="#FFF7AE"/>
<stop offset="0.14" stop-color="#FEF38A"/>
<stop offset="0.2" stop-color="#FEF27A"/>
<stop offset="0.31" stop-color="#FEE355"/>
<stop offset="0.38" stop-color="#FFD83B"/>
<stop offset="0.68" stop-color="#EDB905"/>
<stop offset="1" stop-color="#D58902"/>
</linearGradient>
<linearGradient id="paint32_linear_31_1378" x1="-1.36763" y1="29.3889" x2="54.959" y2="-1.08755" gradientUnits="userSpaceOnUse">
<stop stop-color="#FFF7AE"/>
<stop offset="0.14" stop-color="#FEF38A"/>
<stop offset="0.2" stop-color="#FEF27A"/>
<stop offset="0.31" stop-color="#FEE355"/>
<stop offset="0.38" stop-color="#FFD83B"/>
<stop offset="0.68" stop-color="#EDB905"/>
<stop offset="1" stop-color="#D58902"/>
</linearGradient>
<linearGradient id="paint33_linear_31_1378" x1="-1.31883" y1="29.479" x2="55.0078" y2="-0.997405" gradientUnits="userSpaceOnUse">
<stop stop-color="#FFF7AE"/>
<stop offset="0.14" stop-color="#FEF38A"/>
<stop offset="0.2" stop-color="#FEF27A"/>
<stop offset="0.31" stop-color="#FEE355"/>
<stop offset="0.38" stop-color="#FFD83B"/>
<stop offset="0.68" stop-color="#EDB905"/>
<stop offset="1" stop-color="#D58902"/>
</linearGradient>
<linearGradient id="paint34_linear_31_1378" x1="-1.29899" y1="29.6102" x2="55.0812" y2="-0.895361" gradientUnits="userSpaceOnUse">
<stop stop-color="#FFF7AE"/>
<stop offset="0.14" stop-color="#FEF38A"/>
<stop offset="0.2" stop-color="#FEF27A"/>
<stop offset="0.31" stop-color="#FEE355"/>
<stop offset="0.38" stop-color="#FFD83B"/>
<stop offset="0.68" stop-color="#EDB905"/>
<stop offset="1" stop-color="#D58902"/>
</linearGradient>
<linearGradient id="paint35_linear_31_1378" x1="-1.2091" y1="29.7291" x2="55.1401" y2="-0.759614" gradientUnits="userSpaceOnUse">
<stop stop-color="#FFF7AE"/>
<stop offset="0.14" stop-color="#FEF38A"/>
<stop offset="0.2" stop-color="#FEF27A"/>
<stop offset="0.31" stop-color="#FEE355"/>
<stop offset="0.38" stop-color="#FFD83B"/>
<stop offset="0.68" stop-color="#EDB905"/>
<stop offset="1" stop-color="#D58902"/>
</linearGradient>
<linearGradient id="paint36_linear_31_1378" x1="-1.0992" y1="29.8588" x2="55.2023" y2="-0.60432" gradientUnits="userSpaceOnUse">
<stop stop-color="#FFF7AE"/>
<stop offset="0.14" stop-color="#FEF38A"/>
<stop offset="0.2" stop-color="#FEF27A"/>
<stop offset="0.31" stop-color="#FEE355"/>
<stop offset="0.38" stop-color="#FFD83B"/>
<stop offset="0.68" stop-color="#EDB905"/>
<stop offset="1" stop-color="#D58902"/>
</linearGradient>
<linearGradient id="paint37_linear_31_1378" x1="-1.01335" y1="30.0238" x2="55.2909" y2="-0.44065" gradientUnits="userSpaceOnUse">
<stop stop-color="#FFF7AE"/>
<stop offset="0.14" stop-color="#FEF38A"/>
<stop offset="0.2" stop-color="#FEF27A"/>
<stop offset="0.31" stop-color="#FEE355"/>
<stop offset="0.38" stop-color="#FFD83B"/>
<stop offset="0.68" stop-color="#EDB905"/>
<stop offset="1" stop-color="#D58902"/>
</linearGradient>
<linearGradient id="paint38_linear_31_1378" x1="-0.948202" y1="30.2251" x2="55.3983" y2="-0.262358" gradientUnits="userSpaceOnUse">
<stop stop-color="#FFF7AE"/>
<stop offset="0.14" stop-color="#FEF38A"/>
<stop offset="0.2" stop-color="#FEF27A"/>
<stop offset="0.31" stop-color="#FEE355"/>
<stop offset="0.38" stop-color="#FFD83B"/>
<stop offset="0.68" stop-color="#EDB905"/>
<stop offset="1" stop-color="#D58902"/>
</linearGradient>
<linearGradient id="paint39_linear_31_1378" x1="-0.891992" y1="30.4497" x2="55.5163" y2="-0.0710421" gradientUnits="userSpaceOnUse">
<stop stop-color="#FFF7AE"/>
<stop offset="0.14" stop-color="#FEF38A"/>
<stop offset="0.2" stop-color="#FEF27A"/>
<stop offset="0.31" stop-color="#FEE355"/>
<stop offset="0.38" stop-color="#FFD83B"/>
<stop offset="0.68" stop-color="#EDB905"/>
<stop offset="1" stop-color="#D58902"/>
</linearGradient>
<linearGradient id="paint40_linear_31_1378" x1="-0.718708" y1="30.6289" x2="55.6109" y2="0.150786" gradientUnits="userSpaceOnUse">
<stop stop-color="#FFF7AE"/>
<stop offset="0.14" stop-color="#FEF38A"/>
<stop offset="0.2" stop-color="#FEF27A"/>
<stop offset="0.31" stop-color="#FEE355"/>
<stop offset="0.38" stop-color="#FFD83B"/>
<stop offset="0.68" stop-color="#EDB905"/>
<stop offset="1" stop-color="#D58902"/>
</linearGradient>
<linearGradient id="paint41_linear_31_1378" x1="-0.645664" y1="30.8845" x2="55.7429" y2="0.374662" gradientUnits="userSpaceOnUse">
<stop stop-color="#FFF7AE"/>
<stop offset="0.14" stop-color="#FEF38A"/>
<stop offset="0.2" stop-color="#FEF27A"/>
<stop offset="0.31" stop-color="#FEE355"/>
<stop offset="0.38" stop-color="#FFD83B"/>
<stop offset="0.68" stop-color="#EDB905"/>
<stop offset="1" stop-color="#D58902"/>
</linearGradient>
<linearGradient id="paint42_linear_31_1378" x1="-0.433024" y1="31.0826" x2="55.857" y2="0.625996" gradientUnits="userSpaceOnUse">
<stop stop-color="#FFF7AE"/>
<stop offset="0.14" stop-color="#FEF38A"/>
<stop offset="0.2" stop-color="#FEF27A"/>
<stop offset="0.31" stop-color="#FEE355"/>
<stop offset="0.38" stop-color="#FFD83B"/>
<stop offset="0.68" stop-color="#EDB905"/>
<stop offset="1" stop-color="#D58902"/>
</linearGradient>
<linearGradient id="paint43_linear_31_1378" x1="-0.301273" y1="31.3463" x2="56.0001" y2="0.883503" gradientUnits="userSpaceOnUse">
<stop stop-color="#FFF7AE"/>
<stop offset="0.14" stop-color="#FEF38A"/>
<stop offset="0.2" stop-color="#FEF27A"/>
<stop offset="0.31" stop-color="#FEE355"/>
<stop offset="0.38" stop-color="#FFD83B"/>
<stop offset="0.68" stop-color="#EDB905"/>
<stop offset="1" stop-color="#D58902"/>
</linearGradient>
<linearGradient id="paint44_linear_31_1378" x1="-0.283233" y1="31.6825" x2="56.1589" y2="1.14351" gradientUnits="userSpaceOnUse">
<stop stop-color="#FFF7AE"/>
<stop offset="0.14" stop-color="#FEF38A"/>
<stop offset="0.2" stop-color="#FEF27A"/>
<stop offset="0.31" stop-color="#FEE355"/>
<stop offset="0.38" stop-color="#FFD83B"/>
<stop offset="0.68" stop-color="#EDB905"/>
<stop offset="1" stop-color="#D58902"/>
</linearGradient>
<linearGradient id="paint45_linear_31_1378" x1="0.00302147" y1="31.8952" x2="56.2959" y2="1.43693" gradientUnits="userSpaceOnUse">
<stop stop-color="#FFF7AE"/>
<stop offset="0.14" stop-color="#FEF38A"/>
<stop offset="0.2" stop-color="#FEF27A"/>
<stop offset="0.31" stop-color="#FEE355"/>
<stop offset="0.38" stop-color="#FFD83B"/>
<stop offset="0.68" stop-color="#EDB905"/>
<stop offset="1" stop-color="#D58902"/>
</linearGradient>
<linearGradient id="paint46_linear_31_1378" x1="0.068859" y1="32.2385" x2="56.4601" y2="1.72718" gradientUnits="userSpaceOnUse">
<stop stop-color="#FFF7AE"/>
<stop offset="0.14" stop-color="#FEF38A"/>
<stop offset="0.2" stop-color="#FEF27A"/>
<stop offset="0.31" stop-color="#FEE355"/>
<stop offset="0.38" stop-color="#FFD83B"/>
<stop offset="0.68" stop-color="#EDB905"/>
<stop offset="1" stop-color="#D58902"/>
</linearGradient>
<linearGradient id="paint47_linear_31_1378" x1="0.22936" y1="32.5486" x2="56.6263" y2="2.03422" gradientUnits="userSpaceOnUse">
<stop stop-color="#FFF7AE"/>
<stop offset="0.14" stop-color="#FEF38A"/>
<stop offset="0.2" stop-color="#FEF27A"/>
<stop offset="0.31" stop-color="#FEE355"/>
<stop offset="0.38" stop-color="#FFD83B"/>
<stop offset="0.68" stop-color="#EDB905"/>
<stop offset="1" stop-color="#D58902"/>
</linearGradient>
<linearGradient id="paint48_linear_31_1378" x1="0.531687" y1="32.7924" x2="56.7854" y2="2.35516" gradientUnits="userSpaceOnUse">
<stop stop-color="#FFF7AE"/>
<stop offset="0.14" stop-color="#FEF38A"/>
<stop offset="0.2" stop-color="#FEF27A"/>
<stop offset="0.31" stop-color="#FEE355"/>
<stop offset="0.38" stop-color="#FFD83B"/>
<stop offset="0.68" stop-color="#EDB905"/>
<stop offset="1" stop-color="#D58902"/>
</linearGradient>
<linearGradient id="paint49_linear_31_1378" x1="0.672403" y1="33.1389" x2="56.9652" y2="2.68082" gradientUnits="userSpaceOnUse">
<stop stop-color="#FFF7AE"/>
<stop offset="0.14" stop-color="#FEF38A"/>
<stop offset="0.2" stop-color="#FEF27A"/>
<stop offset="0.31" stop-color="#FEE355"/>
<stop offset="0.38" stop-color="#FFD83B"/>
<stop offset="0.68" stop-color="#EDB905"/>
<stop offset="1" stop-color="#D58902"/>
</linearGradient>
<linearGradient id="paint50_linear_31_1378" x1="0.92398" y1="33.436" x2="57.1436" y2="3.01735" gradientUnits="userSpaceOnUse">
<stop stop-color="#FFF7AE"/>
<stop offset="0.14" stop-color="#FEF38A"/>
<stop offset="0.2" stop-color="#FEF27A"/>
<stop offset="0.31" stop-color="#FEE355"/>
<stop offset="0.38" stop-color="#FFD83B"/>
<stop offset="0.68" stop-color="#EDB905"/>
<stop offset="1" stop-color="#D58902"/>
</linearGradient>
<linearGradient id="paint51_linear_31_1378" x1="0.898884" y1="33.894" x2="57.3353" y2="3.35813" gradientUnits="userSpaceOnUse">
<stop stop-color="#FFF7AE"/>
<stop offset="0.14" stop-color="#FEF38A"/>
<stop offset="0.2" stop-color="#FEF27A"/>
<stop offset="0.31" stop-color="#FEE355"/>
<stop offset="0.38" stop-color="#FFD83B"/>
<stop offset="0.68" stop-color="#EDB905"/>
<stop offset="1" stop-color="#D58902"/>
</linearGradient>
<linearGradient id="paint52_linear_31_1378" x1="0.939141" y1="34.3312" x2="57.5275" y2="3.71317" gradientUnits="userSpaceOnUse">
<stop stop-color="#FFF7AE"/>
<stop offset="0.14" stop-color="#FEF38A"/>
<stop offset="0.2" stop-color="#FEF27A"/>
<stop offset="0.31" stop-color="#FEE355"/>
<stop offset="0.38" stop-color="#FFD83B"/>
<stop offset="0.68" stop-color="#EDB905"/>
<stop offset="1" stop-color="#D58902"/>
</linearGradient>
<linearGradient id="paint53_linear_31_1378" x1="0.790454" y1="34.8778" x2="57.7225" y2="4.07369" gradientUnits="userSpaceOnUse">
<stop stop-color="#FFF7AE"/>
<stop offset="0.14" stop-color="#FEF38A"/>
<stop offset="0.2" stop-color="#FEF27A"/>
<stop offset="0.31" stop-color="#FEE355"/>
<stop offset="0.38" stop-color="#FFD83B"/>
<stop offset="0.68" stop-color="#EDB905"/>
<stop offset="1" stop-color="#D58902"/>
</linearGradient>
<linearGradient id="paint54_linear_31_1378" x1="0.754976" y1="35.3633" x2="57.915" y2="4.43597" gradientUnits="userSpaceOnUse">
<stop stop-color="#FFF7AE"/>
<stop offset="0.14" stop-color="#FEF38A"/>
<stop offset="0.2" stop-color="#FEF27A"/>
<stop offset="0.31" stop-color="#FEE355"/>
<stop offset="0.38" stop-color="#FFD83B"/>
<stop offset="0.68" stop-color="#EDB905"/>
<stop offset="1" stop-color="#D58902"/>
</linearGradient>
<linearGradient id="paint55_linear_31_1378" x1="-0.170337" y1="36.3594" x2="58.1221" y2="4.81894" gradientUnits="userSpaceOnUse">
<stop stop-color="#FFF7AE"/>
<stop offset="0.14" stop-color="#FEF38A"/>
<stop offset="0.2" stop-color="#FEF27A"/>
<stop offset="0.31" stop-color="#FEE355"/>
<stop offset="0.38" stop-color="#FFD83B"/>
<stop offset="0.68" stop-color="#EDB905"/>
<stop offset="1" stop-color="#D58902"/>
</linearGradient>
<linearGradient id="paint56_linear_31_1378" x1="25.2422" y1="46.068" x2="39.247" y2="1.68648" gradientUnits="userSpaceOnUse">
<stop stop-color="#D58902"/>
<stop offset="0.02" stop-color="#D99312"/>
<stop offset="0.07" stop-color="#E1AA37"/>
<stop offset="0.13" stop-color="#E9BF57"/>
<stop offset="0.19" stop-color="#F0D172"/>
<stop offset="0.26" stop-color="#F5DF88"/>
<stop offset="0.35" stop-color="#F9E999"/>
<stop offset="0.45" stop-color="#FCF1A5"/>
<stop offset="0.6" stop-color="#FEF5AC"/>
<stop offset="1" stop-color="#FFF7AE"/>
</linearGradient>
<linearGradient id="paint57_linear_31_1378" x1="35.9415" y1="31.6004" x2="28.9997" y2="17.9108" gradientUnits="userSpaceOnUse">
<stop stop-color="#FFD83B"/>
<stop offset="0.36" stop-color="#BD5D02"/>
<stop offset="0.56" stop-color="#D58902"/>
<stop offset="0.73" stop-color="#EDB905"/>
<stop offset="0.94" stop-color="#FFD83B"/>
</linearGradient>
<linearGradient id="paint58_linear_31_1378" x1="31.1083" y1="20.5822" x2="34.6174" y2="30.5919" gradientUnits="userSpaceOnUse">
<stop stop-color="#BD5D02"/>
<stop offset="1" stop-color="#D58902"/>
</linearGradient>
<linearGradient id="paint59_linear_31_1378" x1="31.7192" y1="37.1108" x2="32.4816" y2="9.36753" gradientUnits="userSpaceOnUse">
<stop stop-color="#BD5D02"/>
<stop offset="0.56" stop-color="#D58902"/>
<stop offset="0.81" stop-color="#EDB905"/>
</linearGradient>
<linearGradient id="paint60_linear_31_1378" x1="25.089" y1="28.2206" x2="39.8943" y2="20.2099" gradientUnits="userSpaceOnUse">
<stop stop-color="#BD5D02"/>
<stop offset="1" stop-color="#D58902"/>
</linearGradient>
<linearGradient id="paint61_linear_31_1378" x1="25.8585" y1="29.643" x2="40.6638" y2="21.6323" gradientUnits="userSpaceOnUse">
<stop stop-color="#BD5D02"/>
<stop offset="0.56" stop-color="#D58902"/>
<stop offset="0.81" stop-color="#EDB905"/>
</linearGradient>
<radialGradient id="paint62_radial_31_1378" cx="0" cy="0" r="1" gradientUnits="userSpaceOnUse" gradientTransform="translate(-81.1711 19.1101) rotate(171.095) scale(7.89306 0.789732)">
<stop stop-color="white"/>
<stop offset="0.22" stop-color="#FFFF63"/>
<stop offset="0.65" stop-color="#FF3600"/>
<stop offset="1"/>
</radialGradient>
<radialGradient id="paint63_radial_31_1378" cx="0" cy="0" r="1" gradientUnits="userSpaceOnUse" gradientTransform="translate(-74.6288 46.3452) rotate(168.884) scale(6.75511 0.675865)">
<stop stop-color="white"/>
<stop offset="0.22" stop-color="#FFFF63"/>
<stop offset="0.65" stop-color="#FF3600"/>
<stop offset="1"/>
</radialGradient>
<linearGradient id="paint64_linear_31_1378" x1="30.5354" y1="12.1698" x2="34.1833" y2="36.7723" gradientUnits="userSpaceOnUse">
<stop stop-color="#262626"/>
<stop offset="0.64" stop-color="#E1DFDA"/>
<stop offset="0.72" stop-color="#CECCC8"/>
<stop offset="0.86" stop-color="#B0AEAB"/>
</linearGradient>
<linearGradient id="paint65_linear_31_1378" x1="31.529" y1="14.4434" x2="34.7572" y2="36.199" gradientUnits="userSpaceOnUse">
<stop stop-color="#262626"/>
<stop offset="0.64" stop-color="#E1DFDA"/>
<stop offset="0.72" stop-color="#CECCC8"/>
<stop offset="0.86" stop-color="#B0AEAB"/>
</linearGradient>
</defs>
</svg>
