<svg width="61" height="41" viewBox="0 0 61 41" fill="none" xmlns="http://www.w3.org/2000/svg">
<path d="M11.9841 28.9295C16.328 25.4159 22.1956 21.5436 28.8987 17.9146C33.0729 15.6534 37.1511 13.7156 40.9124 12.159C51.0439 7.96959 58.9538 6.54429 60.4295 9.0778L55.8583 1.22744C54.4114 -1.26443 46.5816 0.170479 36.5429 4.33107C32.8136 5.87488 28.7738 7.79983 24.6348 10.0419C17.9893 13.642 12.173 17.4758 7.86107 20.951C2.25275 25.4703 -0.813935 29.3907 0.188009 31.3893L4.26304 39.5055C3.24509 37.4749 6.33095 33.5033 11.9809 28.9327L11.9841 28.9295Z" fill="#FEF27A"/>
<path d="M12.0512 29.2819C16.4367 25.81 22.3556 21.9472 29.1035 18.2927C33.3098 16.0122 37.4039 14.0488 41.178 12.4634C51.3159 8.1971 59.1234 6.66291 60.4295 9.07471L56.3577 1.55425C55.0516 -0.860751 47.2473 0.676656 37.1063 4.94294C33.3322 6.52839 29.238 8.49177 25.0317 10.7722C18.2838 14.43 12.3682 18.2927 7.97945 21.7615C2.2911 26.2648 -0.817194 30.1083 0.194353 31.9788L4.26298 39.4992C3.25143 37.6287 6.35968 33.7852 12.048 29.2819H12.0512Z" fill="url(#paint0_linear_32_2357)"/>
<path d="M0.700226 32.8978L0.713004 32.9266C0.783428 33.0643 0.847451 33.186 0.914674 33.3077L3.27388 37.6669C3.3123 37.7438 3.35391 37.8174 3.39553 37.8943V37.8879C3.39553 37.8879 3.37954 37.8559 3.37634 37.8399C3.31552 37.715 3.25151 37.5964 3.18428 37.4747L0.825034 33.1124C0.786621 33.0387 0.745038 32.9618 0.697021 32.8914V32.8978H0.700226Z" fill="url(#paint1_linear_32_2357)"/>
<path d="M0.575317 32.4781C0.575317 32.4781 0.58169 32.5102 0.584891 32.5294C0.594494 32.5614 0.620122 32.6447 0.764171 32.9041L3.12338 37.2633C3.21301 37.4299 3.23863 37.4587 3.25784 37.4843L3.26425 37.4747C3.26425 37.4555 3.25784 37.4395 3.25784 37.4395C3.23223 37.337 3.1746 37.2089 3.08497 37.0455L0.72576 32.6863C0.63933 32.523 0.6105 32.491 0.584891 32.4653L0.578522 32.4749L0.575317 32.4781Z" fill="url(#paint2_linear_32_2357)"/>
<path d="M0.552887 32.0106C0.552887 32.0298 0.549683 32.049 0.549683 32.0651C0.556085 32.1003 0.568886 32.19 0.706533 32.4494L3.06574 36.8086C3.15537 36.9719 3.18741 37.0008 3.21302 37.0232L3.2258 37.0136C3.2258 36.9943 3.2258 36.9751 3.2258 36.9559C3.21299 36.8694 3.16178 36.7381 3.07535 36.5716L0.716146 32.2124C0.626515 32.049 0.591313 32.0234 0.565704 31.9978L0.552887 32.0106Z" fill="url(#paint3_linear_32_2357)"/>
<path d="M0.626578 31.5014C0.620176 31.5206 0.616998 31.543 0.610596 31.5623C0.610596 31.5943 0.613778 31.6968 0.751425 31.953L3.11063 36.3122C3.20027 36.4755 3.23871 36.5011 3.26432 36.5236L3.2803 36.5108C3.28991 36.4883 3.29313 36.4659 3.29953 36.4435C3.29953 36.3506 3.2515 36.2193 3.16507 36.0527L0.805858 31.6904C0.716227 31.5302 0.674613 31.5014 0.645803 31.4822L0.623413 31.4982L0.626578 31.5014Z" fill="url(#paint4_linear_32_2357)"/>
<path d="M0.792921 30.9505C0.783317 30.973 0.776932 30.9954 0.77053 31.0178C0.767329 31.053 0.757727 31.1619 0.892174 31.4182L3.25459 35.7806C3.34422 35.9407 3.38904 35.9663 3.42105 35.9855L3.44024 35.9727C3.45944 35.9471 3.46584 35.9247 3.47224 35.9023C3.48184 35.803 3.44343 35.6685 3.357 35.5019L0.994592 31.1427C0.904961 30.9794 0.860136 30.957 0.824924 30.9377L0.799329 30.9474L0.792921 30.957V30.9505Z" fill="url(#paint5_linear_32_2357)"/>
<path d="M1.05227 30.3579C1.03946 30.3835 1.02987 30.406 1.01706 30.4284C0.98505 30.5469 1.07147 30.7327 1.12268 30.8351L3.48189 35.1943C3.59393 35.3961 3.64835 35.3929 3.68036 35.3897L3.69318 35.3737C3.70278 35.3513 3.71558 35.3256 3.72838 35.3032C3.7636 35.1751 3.67075 34.9733 3.62913 34.8964L1.26992 30.5341C1.15468 30.3323 1.10026 30.3355 1.06825 30.3387L1.05227 30.3579Z" fill="url(#paint6_linear_32_2357)"/>
<path d="M1.4012 29.7302C1.38519 29.7558 1.37238 29.7814 1.35638 29.8071C1.31156 29.9288 1.3916 30.1177 1.44602 30.2202L3.80523 34.5794C3.90766 34.762 3.96528 34.7684 4.0069 34.7748L4.0357 34.7524C4.0517 34.7299 4.06452 34.7011 4.08372 34.6787C4.13174 34.5506 4.05171 34.3648 4.00049 34.2623L1.64128 29.9031C1.53885 29.7206 1.48122 29.7142 1.43641 29.7078L1.40761 29.7302H1.4012Z" fill="url(#paint7_linear_32_2357)"/>
<path d="M1.83965 29.0672C1.82045 29.0928 1.80126 29.1216 1.78206 29.1472C1.72444 29.2753 1.80126 29.4643 1.85567 29.5668L4.21488 33.926C4.31092 34.0925 4.40375 34.1566 4.46137 34.0925C4.48058 34.0637 4.49976 34.0381 4.51577 34.0125C4.57979 33.8747 4.49017 33.673 4.44856 33.5897L2.08935 29.2305C1.97731 29.0383 1.88127 29.0095 1.83965 29.064V29.0672Z" fill="url(#paint8_linear_32_2357)"/>
<path d="M2.36156 28.3689C2.33915 28.3977 2.31676 28.4234 2.29755 28.4554C2.22713 28.5899 2.30073 28.7789 2.35194 28.8814L4.71436 33.2438C4.76878 33.3398 4.87763 33.4904 4.97367 33.4039C4.99287 33.3751 5.01526 33.3495 5.03767 33.3206C5.1145 33.1829 5.03766 32.9939 4.98644 32.8946L2.62723 28.5323C2.5184 28.3401 2.41277 28.3145 2.36156 28.3721V28.3689Z" fill="url(#paint9_linear_32_2357)"/>
<path d="M2.96339 27.6418C2.93778 27.6706 2.91538 27.6995 2.88977 27.7283C2.80654 27.866 2.88017 28.0582 2.93139 28.1575L5.2906 32.5199C5.34501 32.6127 5.45385 32.7633 5.56589 32.6736C5.59149 32.6448 5.6171 32.616 5.6395 32.5871C5.72914 32.4462 5.65551 32.254 5.60109 32.1547L3.24188 27.7924C3.12985 27.6002 3.01781 27.5778 2.96019 27.6418H2.96339Z" fill="url(#paint10_linear_32_2357)"/>
<path d="M3.64835 26.8828C3.61954 26.9117 3.59073 26.9437 3.56512 26.9725C3.46909 27.1167 3.5395 27.3056 3.59071 27.4081L5.94992 31.7705C6.00434 31.8666 6.11639 32.0139 6.24123 31.921C6.27004 31.889 6.29886 31.8602 6.32447 31.8313C6.4237 31.6872 6.3533 31.495 6.30528 31.3926L3.94603 27.0302C3.83399 26.838 3.71558 26.8188 3.65156 26.8828H3.64835Z" fill="url(#paint11_linear_32_2357)"/>
<path d="M4.4102 26.1012C4.37819 26.13 4.34616 26.162 4.31415 26.194C4.20531 26.3414 4.27575 26.5335 4.32697 26.636L6.68618 30.9984C6.7438 31.0945 6.85582 31.2418 6.99347 31.1425C7.02228 31.1105 7.05751 31.0817 7.08632 31.0465C7.19835 30.8991 7.12792 30.7069 7.07991 30.6045L4.7207 26.2453C4.60866 26.0531 4.48383 26.0339 4.4134 26.1012H4.4102Z" fill="url(#paint12_linear_32_2357)"/>
<path d="M5.24249 25.2909C5.21048 25.323 5.17529 25.355 5.14008 25.387C5.01843 25.5376 5.08886 25.7297 5.14008 25.8322L7.49929 30.1914C7.55691 30.2875 7.67214 30.4348 7.8194 30.3323C7.85461 30.3003 7.8898 30.2683 7.92181 30.2331C8.04346 30.0825 7.97624 29.8903 7.92822 29.7878L5.56581 25.4287C5.45377 25.2365 5.32573 25.2173 5.2457 25.2877L5.24249 25.2909Z" fill="url(#paint13_linear_32_2357)"/>
<path d="M6.15169 24.4613C6.11648 24.4933 6.07807 24.5253 6.03966 24.5606C5.91161 24.7143 5.97562 24.9065 6.02684 25.009L8.38609 29.3713C8.48212 29.5347 8.61334 29.5891 8.71898 29.5091C8.75419 29.477 8.79259 29.445 8.8278 29.4098C8.96225 29.2528 8.89504 29.0607 8.84703 28.9614L6.48782 24.599C6.37578 24.4068 6.23492 24.394 6.15169 24.4613Z" fill="url(#paint14_linear_32_2357)"/>
<path d="M7.13113 23.6062C7.08952 23.6382 7.05111 23.6735 7.01269 23.7087C6.87184 23.8656 6.93268 24.061 6.98389 24.1603L9.3431 28.5227C9.43913 28.686 9.57677 28.7373 9.68881 28.6572C9.72722 28.622 9.76563 28.5899 9.80404 28.5547C9.94809 28.3946 9.88726 28.2024 9.83604 28.1031L7.47684 23.7407C7.3648 23.5486 7.21756 23.5389 7.13113 23.6062Z" fill="url(#paint15_linear_32_2357)"/>
<path d="M8.17795 22.7381C8.13633 22.7733 8.09471 22.8085 8.04989 22.8405C7.89944 23.0007 7.96027 23.1961 8.01148 23.2986L10.3707 27.6577C10.4667 27.8179 10.6108 27.8723 10.7292 27.7891C10.7708 27.7538 10.8124 27.7218 10.8573 27.6866C11.0109 27.5264 10.9501 27.3342 10.9021 27.2318L8.54288 22.8726C8.42764 22.6804 8.27718 22.6708 8.18115 22.7445L8.17795 22.7381Z" fill="url(#paint16_linear_32_2357)"/>
<path d="M9.28874 21.851C9.24393 21.8862 9.19589 21.9246 9.15428 21.9599C8.99102 22.12 9.05187 22.3154 9.10309 22.4179L11.4623 26.777C11.5199 26.8731 11.6447 27.0205 11.8304 26.9052C11.8752 26.8699 11.92 26.8347 11.9681 26.7995C12.1313 26.6361 12.0737 26.4439 12.0193 26.3415L9.66008 21.9791C9.52883 21.7581 9.36557 21.7965 9.28874 21.851Z" fill="url(#paint17_linear_32_2357)"/>
<path d="M10.4635 20.9542C10.4155 20.9894 10.3675 21.0247 10.3194 21.0631C10.1946 21.1688 10.1722 21.345 10.2554 21.5243L12.6146 25.8835C12.6723 25.9796 12.7971 26.1237 12.9956 26.0084C13.0436 25.9732 13.0916 25.9379 13.1396 25.8995C13.2645 25.7938 13.2901 25.6112 13.2036 25.4383L10.8444 21.0791C10.7356 20.8965 10.5692 20.8805 10.4603 20.9542H10.4635Z" fill="url(#paint18_linear_32_2357)"/>
<path d="M11.6959 20.0413C11.6447 20.0765 11.5966 20.1117 11.5486 20.1502C11.4173 20.2559 11.3885 20.4384 11.475 20.6146L13.8342 24.9738C13.9334 25.1371 14.0839 25.1883 14.2247 25.0955C14.276 25.0602 14.324 25.025 14.3752 24.9866C14.5064 24.8809 14.5384 24.6951 14.452 24.5221L12.0928 20.163C11.9616 19.942 11.7823 19.9836 11.6959 20.0413Z" fill="url(#paint19_linear_32_2357)"/>
<path d="M12.9891 19.1188C12.9347 19.154 12.8867 19.1924 12.8323 19.2277C12.6978 19.3334 12.6626 19.5191 12.749 19.6921L15.1083 24.0513C15.2075 24.2178 15.3644 24.2659 15.5084 24.173C15.5596 24.1377 15.6108 24.0993 15.6621 24.0641C15.8029 23.9552 15.8381 23.7726 15.7517 23.5965L13.3924 19.2341C13.2772 19.0419 13.1044 19.0387 12.9859 19.1156L12.9891 19.1188Z" fill="url(#paint20_linear_32_2357)"/>
<path d="M14.3368 18.19C14.2824 18.2284 14.228 18.2637 14.1768 18.2989C14.0327 18.4078 13.9943 18.5872 14.0807 18.7665L16.4399 23.1257C16.5392 23.2923 16.6992 23.3371 16.8497 23.2442C16.9041 23.209 16.9585 23.1705 17.0098 23.1353C17.157 23.0264 17.1954 22.8438 17.109 22.6677L14.7498 18.3053C14.6345 18.1131 14.4553 18.1067 14.3336 18.1868L14.3368 18.19Z" fill="url(#paint21_linear_32_2357)"/>
<path d="M15.7389 17.2547C15.6813 17.2899 15.6269 17.3283 15.5692 17.3636C15.4188 17.4757 15.3804 17.6518 15.4668 17.8312L17.826 22.1904C17.9253 22.3569 18.0885 22.405 18.2486 22.3089C18.303 22.2736 18.3606 22.2352 18.415 22.2C18.5655 22.0911 18.6071 21.9053 18.5238 21.7323L16.1614 17.3732C16.0462 17.181 15.8637 17.1746 15.7357 17.2547H15.7389Z" fill="url(#paint22_linear_32_2357)"/>
<path d="M17.189 16.3164C17.1314 16.3516 17.0737 16.3932 17.0161 16.4285C16.8625 16.5374 16.8177 16.7199 16.9009 16.8961L19.2601 21.2585C19.3625 21.425 19.5258 21.4699 19.689 21.377C19.7466 21.3418 19.8043 21.3033 19.8619 21.2681C20.0188 21.156 20.0636 20.9734 19.9803 20.8005L17.6211 16.4413C17.5059 16.2491 17.3202 16.2427 17.189 16.3228V16.3164Z" fill="url(#paint23_linear_32_2357)"/>
<path d="M18.6904 15.3778C18.6296 15.4162 18.5687 15.4514 18.5111 15.4867C18.3511 15.5956 18.3031 15.7813 18.3863 15.9543L20.7455 20.3135C20.8447 20.4768 21.0176 20.5248 21.1873 20.432C21.2481 20.3967 21.3057 20.3583 21.3665 20.3199C21.5266 20.211 21.5746 20.0252 21.4946 19.8522L19.1353 15.4899C19.0169 15.2977 18.828 15.2913 18.6904 15.3745V15.3778Z" fill="url(#paint24_linear_32_2357)"/>
<path d="M20.2332 14.4394C20.1724 14.4747 20.1116 14.5131 20.0508 14.5483C19.8875 14.6604 19.8363 14.843 19.9163 15.0192L22.2787 19.3815C22.378 19.5449 22.5572 19.5897 22.7269 19.5C22.7877 19.4616 22.8485 19.4264 22.9094 19.3911C23.0758 19.2822 23.127 19.0965 23.0438 18.9235L20.6846 14.5643C20.5661 14.3722 20.3741 14.3658 20.23 14.4458L20.2332 14.4394Z" fill="url(#paint25_linear_32_2357)"/>
<path d="M21.821 13.5042C21.757 13.5394 21.6929 13.5778 21.6321 13.6131C21.4624 13.722 21.408 13.9046 21.4913 14.0807L23.8505 18.4399C23.9497 18.6032 24.129 18.6513 24.3083 18.5584C24.3691 18.5232 24.4331 18.4847 24.4971 18.4495C24.6668 18.3406 24.7244 18.158 24.6411 17.9819L22.2819 13.6227C22.1635 13.4305 21.965 13.4241 21.821 13.5042Z" fill="url(#paint26_linear_32_2357)"/>
<path d="M23.4503 12.5752C23.3863 12.6104 23.3223 12.6489 23.2551 12.6841C23.0822 12.793 23.0278 12.9756 23.1078 13.1517L25.467 17.5141C25.5663 17.6774 25.7487 17.7255 25.9312 17.6326C25.9952 17.5974 26.0592 17.5589 26.1232 17.5237C26.2993 17.4148 26.3569 17.2322 26.2737 17.0561L23.9145 12.6969C23.796 12.5047 23.5944 12.4983 23.4471 12.5784L23.4503 12.5752Z" fill="url(#paint27_linear_32_2357)"/>
<path d="M25.1182 11.6497C25.0509 11.6849 24.9869 11.7233 24.9197 11.7586C24.7436 11.8675 24.6828 12.05 24.766 12.223L27.1253 16.5822C27.2245 16.7455 27.4101 16.7968 27.599 16.7039C27.663 16.6687 27.7303 16.6334 27.7975 16.5982C27.9767 16.4893 28.0376 16.3067 27.9575 16.1338L25.5983 11.7746C25.4799 11.5824 25.2782 11.576 25.1246 11.6529L25.1182 11.6497Z" fill="url(#paint28_linear_32_2357)"/>
<path d="M26.8051 10.7464C26.7379 10.7816 26.6739 10.8168 26.6066 10.8521C26.4274 10.961 26.3666 11.1403 26.4498 11.3133L28.809 15.6725C28.9082 15.839 29.0971 15.8871 29.2828 15.8006C29.35 15.7654 29.414 15.7301 29.4812 15.6949C29.6573 15.5892 29.7181 15.4098 29.6381 15.2369L27.2789 10.8777C27.1604 10.6855 26.9588 10.6759 26.8051 10.7496V10.7464Z" fill="url(#paint29_linear_32_2357)"/>
<path d="M28.4793 9.87838C28.4153 9.91041 28.348 9.94244 28.284 9.97767C28.1048 10.0802 28.0439 10.2563 28.1272 10.4325L30.4896 14.7917C30.5888 14.955 30.7745 15.0095 30.9601 14.923C31.0242 14.8909 31.0882 14.8557 31.1554 14.8237C31.3315 14.7244 31.3923 14.545 31.3091 14.3721L28.9499 10.0129C28.8346 9.82072 28.6265 9.80791 28.4793 9.87838Z" fill="url(#paint30_linear_32_2357)"/>
<path d="M30.1375 9.04243C30.0734 9.07446 30.0094 9.10649 29.9454 9.13852C29.7693 9.23781 29.7117 9.41077 29.7949 9.58693L32.1542 13.9461C32.2566 14.1094 32.4391 14.1639 32.6215 14.087C32.6855 14.055 32.7528 14.023 32.8168 13.9909C32.9896 13.8917 33.0505 13.7187 32.9672 13.5457L30.6048 9.18336C30.4896 8.99439 30.2847 8.97517 30.1375 9.04243Z" fill="url(#paint31_linear_32_2357)"/>
<path d="M31.7764 8.24808C31.7124 8.2769 31.6484 8.30893 31.5844 8.33776C31.4147 8.43384 31.3539 8.60361 31.4371 8.77657L33.7963 13.1389C33.8955 13.3023 34.078 13.3599 34.2605 13.2831C34.3245 13.251 34.3885 13.2222 34.4493 13.1902C34.619 13.0973 34.6766 12.9275 34.5966 12.7546L32.2374 8.39221C32.1189 8.20004 31.9205 8.17762 31.7764 8.24167V8.24808Z" fill="url(#paint32_linear_32_2357)"/>
<path d="M33.3898 7.49217C33.3258 7.521 33.2649 7.54982 33.2009 7.57865C33.0345 7.66833 32.9769 7.83808 33.0569 8.01104L35.4161 12.3702C35.5153 12.5368 35.6978 12.5944 35.8739 12.524C35.9379 12.4951 36.0019 12.4663 36.0627 12.4375C36.2324 12.3478 36.2868 12.1812 36.2035 12.0083L33.8443 7.64911C33.7259 7.45694 33.5275 7.43132 33.3866 7.49217H33.3898Z" fill="url(#paint33_linear_32_2357)"/>
<path d="M34.9807 6.77476C34.9167 6.80359 34.8559 6.82921 34.7919 6.85803C34.6254 6.94131 34.571 7.10787 34.6542 7.28403L37.0166 11.6464C37.1158 11.813 37.2951 11.8738 37.4712 11.8065C37.5352 11.7809 37.5928 11.7521 37.6568 11.7233C37.8233 11.64 37.8745 11.4766 37.7913 11.3005L35.4321 6.93811C35.3168 6.74593 35.1216 6.71711 34.9839 6.77476H34.9807Z" fill="url(#paint34_linear_32_2357)"/>
<path d="M36.5397 6.09577C36.4788 6.12139 36.418 6.14702 36.3604 6.17265C36.1971 6.25272 36.1459 6.41927 36.2292 6.59223L38.5884 10.9514C38.6876 11.1179 38.8669 11.1852 39.0365 11.1212C39.0974 11.0955 39.1582 11.0699 39.219 11.0443C39.3822 10.9642 39.4303 10.8041 39.347 10.6279L36.9878 6.26873C36.8726 6.07656 36.6805 6.04453 36.5429 6.09898L36.5397 6.09577Z" fill="url(#paint35_linear_32_2357)"/>
<path d="M38.0665 5.46158C38.0057 5.4872 37.9481 5.50962 37.8872 5.53524C37.7272 5.61211 37.6792 5.77226 37.7624 5.94522L40.1216 10.3044C40.2208 10.4709 40.3969 10.5382 40.5666 10.4806C40.6242 10.4581 40.685 10.4325 40.7458 10.4069C40.9027 10.33 40.9507 10.1763 40.8643 10.0001L38.5051 5.64094C38.3866 5.44557 38.201 5.41033 38.0665 5.46158Z" fill="url(#paint36_linear_32_2357)"/>
<path d="M39.5583 4.866C39.5007 4.88842 39.4431 4.91085 39.3855 4.93327C39.267 4.98772 39.1646 5.12544 39.267 5.33363L41.6262 9.6928C41.7255 9.85935 41.8983 9.92982 42.0648 9.87858C42.1192 9.85616 42.18 9.83373 42.2376 9.81131C42.3881 9.74084 42.4361 9.58711 42.3529 9.41415L39.9937 5.05497C39.8784 4.85959 39.6927 4.82116 39.5615 4.866H39.5583Z" fill="url(#paint37_linear_32_2357)"/>
<path d="M41.0116 4.31501C40.954 4.33743 40.8964 4.35665 40.842 4.37907C40.6915 4.44313 40.6499 4.60328 40.7331 4.77303L43.0924 9.1322C43.1916 9.29875 43.358 9.37242 43.5213 9.32438C43.5757 9.30516 43.6365 9.28274 43.691 9.26352C43.8382 9.19946 43.8799 9.04252 43.7966 8.87276L41.4374 4.5136C41.3222 4.31822 41.1397 4.27337 41.0148 4.31821L41.0116 4.31501Z" fill="url(#paint38_linear_32_2357)"/>
<path d="M42.4201 3.8088C42.3657 3.82802 42.3113 3.84723 42.2537 3.86645C42.052 3.96574 42.1032 4.15152 42.1512 4.25081L44.5104 8.60997C44.6097 8.77653 44.7761 8.8566 44.9298 8.80855C44.9842 8.78934 45.0386 8.77012 45.0962 8.7509C45.2947 8.65161 45.2435 8.46905 45.1955 8.36656L42.8331 4.00738C42.7178 3.812 42.5418 3.76396 42.4169 3.8056L42.4201 3.8088Z" fill="url(#paint39_linear_32_2357)"/>
<path d="M43.7837 3.34455C43.7325 3.36056 43.6781 3.37658 43.6269 3.3958C43.4316 3.48868 43.486 3.67125 43.534 3.77374L45.8965 8.13292C45.9925 8.29947 46.1558 8.38274 46.3062 8.34111C46.3574 8.32189 46.4118 8.30587 46.4631 8.28986C46.6583 8.19697 46.6039 8.01441 46.5527 7.91512L44.1935 3.55594C44.0782 3.36057 43.9054 3.30932 43.7837 3.34455Z" fill="url(#paint40_linear_32_2357)"/>
<path d="M45.1026 2.9282C45.0514 2.94422 45.0002 2.95703 44.9522 2.97624C44.7633 3.06272 44.8177 3.24208 44.8657 3.34458L47.2281 7.70695C47.2858 7.80304 47.4138 7.95999 47.6283 7.92476C47.6795 7.90874 47.7307 7.89272 47.7787 7.87991C47.9644 7.79343 47.91 7.61087 47.862 7.51478L45.4995 3.15241C45.3843 2.95703 45.2178 2.90257 45.0994 2.9346L45.1026 2.9282Z" fill="url(#paint41_linear_32_2357)"/>
<path d="M46.3702 2.5566C46.319 2.56942 46.2742 2.58223 46.223 2.59824C46.0437 2.67832 46.1013 2.85768 46.1494 2.95697L48.5086 7.31615C48.6078 7.4827 48.7614 7.57238 48.8991 7.54355C48.9471 7.53074 48.9951 7.51472 49.0431 7.50191C49.2224 7.42184 49.1648 7.24568 49.1168 7.14319L46.7576 2.78401C46.6423 2.58863 46.479 2.52777 46.367 2.5534L46.3702 2.5566Z" fill="url(#paint42_linear_32_2357)"/>
<path d="M47.5803 2.23317C47.5355 2.24598 47.4907 2.2588 47.4395 2.26841C47.2698 2.34208 47.3274 2.51823 47.3754 2.61753L49.7346 6.97669C49.7955 7.07598 49.9171 7.23614 50.1156 7.21372C50.1636 7.2009 50.2084 7.19129 50.2564 7.17848C50.4261 7.10801 50.3717 6.92865 50.3173 6.82936L47.9581 2.47019C47.8268 2.24599 47.6571 2.21716 47.5771 2.23317H47.5803Z" fill="url(#paint43_linear_32_2357)"/>
<path d="M48.7359 1.95765C48.691 1.96726 48.6494 1.97687 48.6046 1.98648C48.4413 2.05054 48.5022 2.2299 48.5534 2.32599L50.9126 6.68516C50.9702 6.78446 51.0951 6.9446 51.2808 6.93179C51.3288 6.92218 51.3704 6.91257 51.412 6.89976C51.5752 6.8357 51.5144 6.65954 51.4664 6.56025L49.104 2.20108C48.9727 1.97687 48.8127 1.94164 48.7359 1.95445V1.95765Z" fill="url(#paint44_linear_32_2357)"/>
<path d="M49.8307 1.73022C49.7891 1.73983 49.7475 1.74623 49.7059 1.75584C49.5458 1.8167 49.6226 2.00888 49.6643 2.08895L52.0235 6.44812C52.1195 6.61787 52.2636 6.71716 52.3852 6.70115C52.4268 6.69474 52.4684 6.68834 52.51 6.67873C52.6605 6.62428 52.5997 6.44812 52.5485 6.34883L50.1892 1.98966C50.074 1.79108 49.9268 1.72061 49.8307 1.73342V1.73022Z" fill="url(#paint45_linear_32_2357)"/>
<path d="M50.8614 1.55402C50.823 1.56042 50.7846 1.56683 50.743 1.57323C50.5925 1.62448 50.6694 1.81666 50.7142 1.89673L53.0734 6.2559C53.1694 6.42565 53.3071 6.52815 53.4223 6.51854C53.4639 6.51214 53.5023 6.50573 53.5407 6.49932C53.6816 6.45128 53.6175 6.27832 53.5663 6.17903L51.2071 1.81987C51.0951 1.62128 50.951 1.54441 50.8614 1.55402Z" fill="url(#paint46_linear_32_2357)"/>
<path d="M51.8282 1.42587C51.793 1.42908 51.7546 1.43548 51.7161 1.43869C51.5785 1.48353 51.6553 1.67249 51.7001 1.75257L54.0593 6.11175C54.1554 6.2815 54.2866 6.3872 54.3955 6.384C54.4307 6.38079 54.4691 6.37438 54.5075 6.37118C54.6355 6.33275 54.5715 6.15979 54.5235 6.0605L52.1611 1.70132C52.0491 1.50274 51.9146 1.42267 51.8314 1.42587H51.8282Z" fill="url(#paint47_linear_32_2357)"/>
<path d="M52.7212 1.35229C52.686 1.35229 52.654 1.3555 52.6188 1.35871C52.4907 1.39394 52.5708 1.58291 52.6156 1.66298L54.9748 6.02216C55.0708 6.19191 55.1957 6.30081 55.2981 6.30401C55.3301 6.30401 55.3654 6.30401 55.4006 6.2976C55.5222 6.26557 55.4422 6.0766 55.4006 5.99653L53.0414 1.63736C52.9133 1.40995 52.7788 1.35229 52.7244 1.35229H52.7212Z" fill="url(#paint48_linear_32_2357)"/>
<path d="M53.5407 1.32987C53.5087 1.32987 53.4799 1.32987 53.4479 1.32987C53.4191 1.33947 53.3295 1.3747 53.4575 1.62453L55.8167 5.98371C55.8615 6.06378 55.9832 6.25275 56.124 6.27517H56.2169C56.2489 6.26236 56.3321 6.23353 56.204 5.98371L53.8448 1.62132C53.7136 1.39392 53.5952 1.32986 53.5407 1.32666V1.32987Z" fill="url(#paint49_linear_32_2357)"/>
<path d="M54.2865 1.36187C54.2577 1.36187 54.2321 1.35867 54.2033 1.35547L54.1713 1.36508C54.1521 1.40351 54.1297 1.45476 54.2257 1.63733L56.5849 5.9997C56.6298 6.07657 56.7482 6.26554 56.8795 6.30078C56.9083 6.30078 56.9339 6.30398 56.9627 6.30718L56.9819 6.30078C57.0075 6.26234 57.0299 6.21109 56.9306 6.02532L54.5714 1.66615C54.4434 1.43875 54.3281 1.36828 54.2833 1.36187H54.2865Z" fill="url(#paint50_linear_32_2357)"/>
<path d="M54.9524 1.44836C54.9268 1.44516 54.9012 1.43875 54.8788 1.43555L54.85 1.44195C54.834 1.47718 54.8212 1.52523 54.9172 1.7078L57.2764 6.06696C57.3212 6.14704 57.4365 6.33601 57.5549 6.38085C57.5805 6.38406 57.6029 6.39047 57.6285 6.39367C57.6381 6.39047 57.6509 6.38406 57.6509 6.38406C57.6669 6.33922 57.6734 6.28797 57.5869 6.12462L55.2277 1.76224C55.0997 1.53483 54.994 1.45797 54.9524 1.44836Z" fill="url(#paint51_linear_32_2357)"/>
<path d="M55.5351 1.58929C55.5159 1.58288 55.4935 1.57647 55.4711 1.57007L55.4423 1.58287C55.4423 1.62131 55.4391 1.66935 55.5223 1.83591L57.8847 6.19508C57.9263 6.27516 58.0448 6.46412 58.1472 6.51857C58.1664 6.52498 58.1888 6.53138 58.2112 6.53779L58.2304 6.53139C58.24 6.48975 58.24 6.4449 58.1536 6.27835L55.7944 1.91919C55.6695 1.69178 55.5735 1.6085 55.5351 1.59248V1.58929Z" fill="url(#paint52_linear_32_2357)"/>
<path d="M56.0344 1.78784C56.0344 1.78784 55.9992 1.76861 55.98 1.76221C55.9736 1.77182 55.964 1.78142 55.964 1.78142C55.964 1.82306 55.9768 1.87431 56.0472 2.01524L58.4064 6.37761C58.4512 6.45448 58.5601 6.64666 58.6529 6.71072C58.6721 6.72033 58.6913 6.72993 58.7041 6.73634L58.7265 6.71072C58.7169 6.67869 58.7042 6.62744 58.6305 6.48651L56.2713 2.12734C56.1433 1.89673 56.06 1.80706 56.028 1.79104L56.0344 1.78784Z" fill="url(#paint53_linear_32_2357)"/>
<path d="M56.441 2.04082C56.441 2.04082 56.4122 2.0184 56.3994 2.00879C56.3898 2.04722 56.3866 2.06324 56.4858 2.24901L58.845 6.61138C58.8898 6.68825 58.9987 6.88043 59.0755 6.9541C59.0915 6.96691 59.1043 6.97651 59.1043 6.97651C59.1267 6.94768 59.1299 6.93808 59.0275 6.7491L56.6683 2.38994C56.5498 2.17214 56.473 2.06644 56.441 2.04402V2.04082Z" fill="url(#paint54_linear_32_2357)"/>
<path d="M56.761 2.35168C56.761 2.35168 56.7386 2.32604 56.729 2.31323C56.7386 2.36448 56.7386 2.37409 56.8315 2.54384L59.1939 6.90302C59.2579 7.02153 59.3539 7.18808 59.4083 7.25854C59.4179 7.27135 59.4276 7.28416 59.4404 7.30018C59.4297 7.26388 59.3923 7.18701 59.3283 7.06957L56.9691 2.7104C56.8474 2.4894 56.7803 2.3805 56.761 2.35168Z" fill="url(#paint55_linear_32_2357)"/>
<path d="M4.11255 39.2172C2.07025 35.441 12.9828 25.5632 28.4921 17.162C44.0015 8.76069 58.2304 5.01328 60.2759 8.79272C62.3214 12.569 51.4056 22.4436 35.8995 30.8448C20.3902 39.2461 6.16126 42.9935 4.11576 39.214L4.11255 39.2172Z" fill="url(#paint56_linear_32_2357)"/>
<path d="M4.70796 39.4734C2.7937 35.9406 13.623 26.3735 28.8955 18.1004C44.1647 9.82722 58.0895 5.98692 60.0006 9.51974C61.9148 13.0526 51.0823 22.6197 35.8163 30.8928C20.547 39.1628 6.61902 43.0063 4.70796 39.4734Z" fill="url(#paint57_linear_32_2357)"/>
<path d="M11.6928 36.5108C10.3804 34.0926 18.7288 27.0333 30.336 20.746C41.9432 14.4587 52.414 11.323 53.7201 13.7444C55.0293 16.1626 46.684 23.2218 35.0768 29.5092C23.4696 35.7965 12.9989 38.9322 11.6928 36.514V36.5108Z" fill="url(#paint58_linear_32_2357)"/>
<path d="M11.7472 34.4705C11.7696 34.5441 11.7728 34.6242 11.808 34.6915C13.13 37.1321 23.2583 34.2014 34.4366 28.1479C45.6116 22.0944 53.6047 15.2081 52.2827 12.7675C52.2763 12.7515 52.2571 12.7419 52.2475 12.7291C48.8031 12.0436 39.8432 15.0159 30.0959 20.2944C20.595 25.4382 13.3253 31.1651 11.7504 34.4705H11.7472Z" fill="url(#paint59_linear_32_2357)"/>
<path d="M24.4972 27.1039L25.2239 28.4491L26.2482 27.8918L26.0114 27.453C26.069 27.4434 26.1138 27.4434 26.1778 27.4306C26.674 27.3313 27.3206 27.1423 28.1145 26.8604C28.9051 26.5818 29.8911 26.1942 31.0691 25.7074C31.8054 25.3999 32.4007 25.1565 32.8553 24.9803C33.3099 24.801 33.6684 24.6696 33.9341 24.5832C34.1998 24.4967 34.3758 24.4518 34.4719 24.4454C34.5679 24.439 34.6223 24.4551 34.6415 24.4871C34.6735 24.5479 34.5967 24.6632 34.4046 24.833C34.2126 25.0027 33.87 25.227 33.3643 25.496C32.4039 26.0149 31.7925 26.1142 31.5333 25.7843C28.2137 28.0775 26.4595 29.2786 26.2386 29.4068L26.2194 29.4164V29.4196H26.2226L26.9941 30.8449L31.1619 28.5868L30.9987 28.2793C31.2996 28.1448 31.6101 28.0039 31.9302 27.8469L32.3239 28.574L36.3509 26.3928L35.9636 25.6754C37.6441 24.6504 38.8446 23.7696 39.5712 23.0233C39.6608 22.9305 39.7216 22.8504 39.7985 22.7607L40.0866 23.2988L41.111 22.7447L40.3235 21.2906V21.2874V21.281H40.3203C40.2178 21.092 40.0418 20.9671 39.7825 20.9094C39.5232 20.8518 39.1198 20.8806 38.5596 21.0023C38.4668 21.0215 38.3612 21.0504 38.2588 21.076L39.8977 20.1888L39.1295 18.7731L39.1039 18.7859L39.1262 18.7699C38.0603 18.4111 36.0468 18.946 33.0922 20.3745L32.7625 19.766L28.7355 21.9472L29.0748 22.5749C27.3558 23.6255 26.1042 24.5319 25.3135 25.2942C24.5708 26.0117 24.302 26.585 24.4748 27.0206L24.4556 27.0302L24.494 27.1007L24.4972 27.1039ZM30.6978 23.491C30.9923 23.2828 31.3284 23.0714 31.6965 22.8728C32.8745 22.2354 33.5499 22.0753 33.7228 22.3924L34.936 21.582L35.2177 22.1041C34.5295 22.3732 33.7484 22.6838 32.8553 23.0554C32.0486 23.3917 31.434 23.6383 31.0115 23.792C30.5825 23.949 30.3553 23.9906 30.3137 23.9202C30.272 23.8433 30.4001 23.6992 30.6978 23.491Z" fill="url(#paint60_linear_32_2357)"/>
<path d="M25.816 28.9103C26.0721 28.9743 26.453 28.9551 26.9492 28.859C27.4485 28.7598 28.0919 28.5708 28.8858 28.2889C29.6797 28.0103 30.6624 27.6259 31.8372 27.1359C32.5735 26.8284 33.1721 26.585 33.6267 26.4088C34.0812 26.2294 34.4397 26.0981 34.7054 26.0117C34.9711 25.9252 35.1472 25.8803 35.2432 25.8739C35.3392 25.8675 35.3937 25.8803 35.4129 25.9156C35.4449 25.9764 35.3649 26.0917 35.176 26.2615C34.9839 26.4312 34.6382 26.6522 34.1356 26.9277C33.1753 27.4466 32.5639 27.5458 32.3046 27.2159C28.9114 29.5573 27.1412 30.7712 26.9844 30.8513C27.9959 31.1491 29.9006 30.6271 32.7015 29.2786L33.0921 30.0025L37.119 27.8213L36.7317 27.1038C38.4123 26.0789 39.6095 25.1981 40.3394 24.4518C41.0628 23.7088 41.3157 23.129 41.0916 22.7191C40.9892 22.5269 40.8099 22.3988 40.5506 22.3411C40.2914 22.2834 39.888 22.3123 39.3278 22.4308C38.7708 22.5493 38.0378 22.7735 37.1287 23.1002C36.2195 23.4269 35.0512 23.8849 33.6203 24.4839C32.8136 24.8202 32.199 25.0668 31.7764 25.2205C31.3475 25.3775 31.117 25.4159 31.0786 25.3454C31.037 25.2686 31.165 25.1244 31.4595 24.9163C31.754 24.7081 32.0901 24.4999 32.4615 24.3013C33.6395 23.6639 34.3149 23.5038 34.4845 23.8209L39.8944 20.1983C38.8284 19.8364 36.815 20.3745 33.8603 21.803L33.5306 21.1945L29.5036 23.3756L29.8429 24.0034C28.124 25.0572 26.8723 25.9604 26.0849 26.7227C25.2974 27.4818 25.0253 28.0871 25.2654 28.5291C25.3678 28.7213 25.5503 28.8494 25.8128 28.9103H25.816Z" fill="url(#paint61_linear_32_2357)"/>
<path style="mix-blend-mode:color-dodge" d="M44.4848 9.46523C45.093 8.97518 49.12 8.03031 53.4703 7.34809C57.8238 6.66587 60.8552 6.50894 60.247 6.99578C59.6356 7.48262 55.6119 8.43068 51.2616 9.1129C46.9081 9.79513 43.8734 9.95206 44.4848 9.46842V9.46523Z" fill="url(#paint62_radial_32_2357)"/>
<path style="mix-blend-mode:color-dodge" d="M11.7951 36.8054C12.2977 36.3698 15.7005 35.4281 19.3945 34.7043C23.0854 33.9772 25.6719 33.7434 25.1693 34.1758C24.6636 34.6114 21.264 35.553 17.5699 36.2769C13.8759 37.004 11.2894 37.241 11.7919 36.8054H11.7951Z" fill="url(#paint63_radial_32_2357)"/>
<g style="mix-blend-mode:screen" opacity="0.47">
<path d="M35.8162 30.8928C51.0822 22.6229 61.9148 13.0526 60.0005 9.51974C58.0895 5.98692 44.1647 9.82722 28.8954 18.1004C13.6262 26.3735 2.79683 35.9406 4.70789 39.4734C6.61894 43.0063 20.5469 39.166 35.8162 30.8928ZM29.7149 19.5897C41.3221 13.2992 51.9305 10.423 53.4126 13.1647C54.8947 15.9032 46.6871 23.2186 35.0799 29.506C23.4727 35.7933 12.8643 38.6727 11.379 35.931C9.9001 33.1925 18.1077 25.877 29.7117 19.5897H29.7149Z" fill="url(#paint64_linear_32_2357)"/>
<path d="M26.946 28.859C27.4454 28.7598 28.0888 28.5708 28.8826 28.2889C29.6765 28.0103 30.6593 27.6259 31.8341 27.1359C32.5703 26.8284 33.1689 26.585 33.6235 26.4088C34.078 26.2294 34.4366 26.0981 34.7023 26.0117C34.968 25.9252 35.144 25.8803 35.24 25.8739C35.3361 25.8675 35.3905 25.8803 35.4097 25.9156C35.4417 25.9764 35.3617 26.0917 35.1728 26.2615C34.9807 26.4312 34.635 26.6522 34.1325 26.9277C33.1721 27.4466 32.5607 27.5458 32.3014 27.2159C28.9083 29.5573 27.1381 30.7712 26.9844 30.8513C27.9928 31.1491 29.9006 30.6271 32.6984 29.2786L33.0889 30.0025L37.1159 27.8213L36.7285 27.1038C38.4091 26.0789 39.6063 25.1981 40.3362 24.4518C41.0596 23.7088 41.3125 23.129 41.0884 22.7191C40.986 22.5269 40.8068 22.3988 40.5475 22.3411C40.2882 22.2834 39.8848 22.3123 39.3246 22.4308C38.7676 22.5493 38.0346 22.7735 37.1255 23.1002C36.2164 23.4269 35.048 23.8849 33.6171 24.4839C32.8104 24.8202 32.1958 25.0668 31.7732 25.2205C31.3443 25.3775 31.1138 25.4159 31.0754 25.3454C31.0338 25.2686 31.1618 25.1244 31.4563 24.9163C31.7508 24.7081 32.087 24.4999 32.4583 24.3013C33.6363 23.6639 34.3117 23.5038 34.4814 23.8209L39.8912 20.1983C38.8253 19.8364 36.8118 20.3745 33.8572 21.803L33.5274 21.1945L29.5005 23.3756L29.8398 24.0034C28.1208 25.0572 26.8692 25.9604 26.0817 26.7227C25.2942 27.4818 25.0221 28.0871 25.2622 28.5291C25.3679 28.7213 25.5471 28.8494 25.8096 28.9103C26.0657 28.9743 26.4466 28.9551 26.9428 28.859H26.946Z" fill="url(#paint65_linear_32_2357)"/>
</g>
<defs>
<linearGradient id="paint0_linear_32_2357" x1="56.7762" y1="2.31146" x2="0.598762" y2="32.7073" gradientUnits="userSpaceOnUse">
<stop stop-color="#B24A12"/>
<stop offset="0.02" stop-color="#C36F28"/>
<stop offset="0.03" stop-color="#D18E3C"/>
<stop offset="0.06" stop-color="#DDA94D"/>
<stop offset="0.08" stop-color="#E7BF5A"/>
<stop offset="0.1" stop-color="#EED065"/>
<stop offset="0.14" stop-color="#F4DC6C"/>
<stop offset="0.18" stop-color="#F7E370"/>
<stop offset="0.31" stop-color="#F8E572"/>
<stop offset="0.38" stop-color="#FFDB41"/>
<stop offset="0.61" stop-color="#D99108"/>
<stop offset="0.64" stop-color="#B14810"/>
<stop offset="0.65" stop-color="#BA591B"/>
<stop offset="0.66" stop-color="#C4712A"/>
<stop offset="0.73" stop-color="#EDCD63"/>
<stop offset="0.76" stop-color="#FEF27A"/>
<stop offset="0.87" stop-color="#FFD83B"/>
<stop offset="0.95" stop-color="#D58902"/>
<stop offset="0.97" stop-color="#BA5A28"/>
<stop offset="1" stop-color="#BF6221"/>
</linearGradient>
<linearGradient id="paint1_linear_32_2357" x1="1.96034" y1="35.4386" x2="59.9931" y2="4.03921" gradientUnits="userSpaceOnUse">
<stop stop-color="#FFF7AE"/>
<stop offset="0.14" stop-color="#FEF38A"/>
<stop offset="0.2" stop-color="#FEF27A"/>
<stop offset="0.31" stop-color="#FEE355"/>
<stop offset="0.38" stop-color="#FFD83B"/>
<stop offset="0.68" stop-color="#EDB905"/>
<stop offset="1" stop-color="#D58902"/>
</linearGradient>
<linearGradient id="paint2_linear_32_2357" x1="1.76171" y1="35.0581" x2="57.6041" y2="4.84345" gradientUnits="userSpaceOnUse">
<stop stop-color="#FFF7AE"/>
<stop offset="0.14" stop-color="#FEF38A"/>
<stop offset="0.2" stop-color="#FEF27A"/>
<stop offset="0.31" stop-color="#FEE355"/>
<stop offset="0.38" stop-color="#FFD83B"/>
<stop offset="0.68" stop-color="#EDB905"/>
<stop offset="1" stop-color="#D58902"/>
</linearGradient>
<linearGradient id="paint3_linear_32_2357" x1="1.55488" y1="34.6894" x2="58.4278" y2="3.91743" gradientUnits="userSpaceOnUse">
<stop stop-color="#FFF7AE"/>
<stop offset="0.14" stop-color="#FEF38A"/>
<stop offset="0.2" stop-color="#FEF27A"/>
<stop offset="0.31" stop-color="#FEE355"/>
<stop offset="0.38" stop-color="#FFD83B"/>
<stop offset="0.68" stop-color="#EDB905"/>
<stop offset="1" stop-color="#D58902"/>
</linearGradient>
<linearGradient id="paint4_linear_32_2357" x1="1.35838" y1="34.3261" x2="57.8259" y2="3.77328" gradientUnits="userSpaceOnUse">
<stop stop-color="#FFF7AE"/>
<stop offset="0.14" stop-color="#FEF38A"/>
<stop offset="0.2" stop-color="#FEF27A"/>
<stop offset="0.31" stop-color="#FEE355"/>
<stop offset="0.38" stop-color="#FFD83B"/>
<stop offset="0.68" stop-color="#EDB905"/>
<stop offset="1" stop-color="#D58902"/>
</linearGradient>
<linearGradient id="paint5_linear_32_2357" x1="1.15908" y1="33.9715" x2="57.8825" y2="3.28049" gradientUnits="userSpaceOnUse">
<stop stop-color="#FFF7AE"/>
<stop offset="0.14" stop-color="#FEF38A"/>
<stop offset="0.2" stop-color="#FEF27A"/>
<stop offset="0.31" stop-color="#FEE355"/>
<stop offset="0.38" stop-color="#FFD83B"/>
<stop offset="0.68" stop-color="#EDB905"/>
<stop offset="1" stop-color="#D58902"/>
</linearGradient>
<linearGradient id="paint6_linear_32_2357" x1="0.975783" y1="33.6191" x2="57.4263" y2="3.07574" gradientUnits="userSpaceOnUse">
<stop stop-color="#FFF7AE"/>
<stop offset="0.14" stop-color="#FEF38A"/>
<stop offset="0.2" stop-color="#FEF27A"/>
<stop offset="0.31" stop-color="#FEE355"/>
<stop offset="0.38" stop-color="#FFD83B"/>
<stop offset="0.68" stop-color="#EDB905"/>
<stop offset="1" stop-color="#D58902"/>
</linearGradient>
<linearGradient id="paint7_linear_32_2357" x1="0.798535" y1="33.2781" x2="57.0042" y2="2.86703" gradientUnits="userSpaceOnUse">
<stop stop-color="#FFF7AE"/>
<stop offset="0.14" stop-color="#FEF38A"/>
<stop offset="0.2" stop-color="#FEF27A"/>
<stop offset="0.31" stop-color="#FEE355"/>
<stop offset="0.38" stop-color="#FFD83B"/>
<stop offset="0.68" stop-color="#EDB905"/>
<stop offset="1" stop-color="#D58902"/>
</linearGradient>
<linearGradient id="paint8_linear_32_2357" x1="0.610197" y1="32.9503" x2="57.0323" y2="2.42236" gradientUnits="userSpaceOnUse">
<stop stop-color="#FFF7AE"/>
<stop offset="0.14" stop-color="#FEF38A"/>
<stop offset="0.2" stop-color="#FEF27A"/>
<stop offset="0.31" stop-color="#FEE355"/>
<stop offset="0.38" stop-color="#FFD83B"/>
<stop offset="0.68" stop-color="#EDB905"/>
<stop offset="1" stop-color="#D58902"/>
</linearGradient>
<linearGradient id="paint9_linear_32_2357" x1="0.430948" y1="32.6322" x2="56.8982" y2="2.07983" gradientUnits="userSpaceOnUse">
<stop stop-color="#FFF7AE"/>
<stop offset="0.14" stop-color="#FEF38A"/>
<stop offset="0.2" stop-color="#FEF27A"/>
<stop offset="0.31" stop-color="#FEE355"/>
<stop offset="0.38" stop-color="#FFD83B"/>
<stop offset="0.68" stop-color="#EDB905"/>
<stop offset="1" stop-color="#D58902"/>
</linearGradient>
<linearGradient id="paint10_linear_32_2357" x1="0.258991" y1="32.3211" x2="56.715" y2="1.77465" gradientUnits="userSpaceOnUse">
<stop stop-color="#FFF7AE"/>
<stop offset="0.14" stop-color="#FEF38A"/>
<stop offset="0.2" stop-color="#FEF27A"/>
<stop offset="0.31" stop-color="#FEE355"/>
<stop offset="0.38" stop-color="#FFD83B"/>
<stop offset="0.68" stop-color="#EDB905"/>
<stop offset="1" stop-color="#D58902"/>
</linearGradient>
<linearGradient id="paint11_linear_32_2357" x1="0.102969" y1="32.0196" x2="56.4607" y2="1.52614" gradientUnits="userSpaceOnUse">
<stop stop-color="#FFF7AE"/>
<stop offset="0.14" stop-color="#FEF38A"/>
<stop offset="0.2" stop-color="#FEF27A"/>
<stop offset="0.31" stop-color="#FEE355"/>
<stop offset="0.38" stop-color="#FFD83B"/>
<stop offset="0.68" stop-color="#EDB905"/>
<stop offset="1" stop-color="#D58902"/>
</linearGradient>
<linearGradient id="paint12_linear_32_2357" x1="-0.0581217" y1="31.7352" x2="56.3502" y2="1.21437" gradientUnits="userSpaceOnUse">
<stop stop-color="#FFF7AE"/>
<stop offset="0.14" stop-color="#FEF38A"/>
<stop offset="0.2" stop-color="#FEF27A"/>
<stop offset="0.31" stop-color="#FEE355"/>
<stop offset="0.38" stop-color="#FFD83B"/>
<stop offset="0.68" stop-color="#EDB905"/>
<stop offset="1" stop-color="#D58902"/>
</linearGradient>
<linearGradient id="paint13_linear_32_2357" x1="-0.214555" y1="31.4595" x2="56.2077" y2="0.931437" gradientUnits="userSpaceOnUse">
<stop stop-color="#FFF7AE"/>
<stop offset="0.14" stop-color="#FEF38A"/>
<stop offset="0.2" stop-color="#FEF27A"/>
<stop offset="0.31" stop-color="#FEE355"/>
<stop offset="0.38" stop-color="#FFD83B"/>
<stop offset="0.68" stop-color="#EDB905"/>
<stop offset="1" stop-color="#D58902"/>
</linearGradient>
<linearGradient id="paint14_linear_32_2357" x1="-0.330913" y1="31.1837" x2="55.8915" y2="0.763518" gradientUnits="userSpaceOnUse">
<stop stop-color="#FFF7AE"/>
<stop offset="0.14" stop-color="#FEF38A"/>
<stop offset="0.2" stop-color="#FEF27A"/>
<stop offset="0.31" stop-color="#FEE355"/>
<stop offset="0.38" stop-color="#FFD83B"/>
<stop offset="0.68" stop-color="#EDB905"/>
<stop offset="1" stop-color="#D58902"/>
</linearGradient>
<linearGradient id="paint15_linear_32_2357" x1="-0.467885" y1="30.9375" x2="55.7741" y2="0.506929" gradientUnits="userSpaceOnUse">
<stop stop-color="#FFF7AE"/>
<stop offset="0.14" stop-color="#FEF38A"/>
<stop offset="0.2" stop-color="#FEF27A"/>
<stop offset="0.31" stop-color="#FEE355"/>
<stop offset="0.38" stop-color="#FFD83B"/>
<stop offset="0.68" stop-color="#EDB905"/>
<stop offset="1" stop-color="#D58902"/>
</linearGradient>
<linearGradient id="paint16_linear_32_2357" x1="-0.607185" y1="30.7068" x2="55.6942" y2="0.24389" gradientUnits="userSpaceOnUse">
<stop stop-color="#FFF7AE"/>
<stop offset="0.14" stop-color="#FEF38A"/>
<stop offset="0.2" stop-color="#FEF27A"/>
<stop offset="0.31" stop-color="#FEE355"/>
<stop offset="0.38" stop-color="#FFD83B"/>
<stop offset="0.68" stop-color="#EDB905"/>
<stop offset="1" stop-color="#D58902"/>
</linearGradient>
<linearGradient id="paint17_linear_32_2357" x1="-0.714769" y1="30.4811" x2="55.5274" y2="0.0502396" gradientUnits="userSpaceOnUse">
<stop stop-color="#FFF7AE"/>
<stop offset="0.14" stop-color="#FEF38A"/>
<stop offset="0.2" stop-color="#FEF27A"/>
<stop offset="0.31" stop-color="#FEE355"/>
<stop offset="0.38" stop-color="#FFD83B"/>
<stop offset="0.68" stop-color="#EDB905"/>
<stop offset="1" stop-color="#D58902"/>
</linearGradient>
<linearGradient id="paint18_linear_32_2357" x1="-0.857005" y1="30.2923" x2="55.5231" y2="-0.213086" gradientUnits="userSpaceOnUse">
<stop stop-color="#FFF7AE"/>
<stop offset="0.14" stop-color="#FEF38A"/>
<stop offset="0.2" stop-color="#FEF27A"/>
<stop offset="0.31" stop-color="#FEE355"/>
<stop offset="0.38" stop-color="#FFD83B"/>
<stop offset="0.68" stop-color="#EDB905"/>
<stop offset="1" stop-color="#D58902"/>
</linearGradient>
<linearGradient id="paint19_linear_32_2357" x1="-0.942383" y1="30.0944" x2="55.3563" y2="-0.367201" gradientUnits="userSpaceOnUse">
<stop stop-color="#FFF7AE"/>
<stop offset="0.14" stop-color="#FEF38A"/>
<stop offset="0.2" stop-color="#FEF27A"/>
<stop offset="0.31" stop-color="#FEE355"/>
<stop offset="0.38" stop-color="#FFD83B"/>
<stop offset="0.68" stop-color="#EDB905"/>
<stop offset="1" stop-color="#D58902"/>
</linearGradient>
<linearGradient id="paint20_linear_32_2357" x1="-1.0353" y1="29.9225" x2="55.2605" y2="-0.537412" gradientUnits="userSpaceOnUse">
<stop stop-color="#FFF7AE"/>
<stop offset="0.14" stop-color="#FEF38A"/>
<stop offset="0.2" stop-color="#FEF27A"/>
<stop offset="0.31" stop-color="#FEE355"/>
<stop offset="0.38" stop-color="#FFD83B"/>
<stop offset="0.68" stop-color="#EDB905"/>
<stop offset="1" stop-color="#D58902"/>
</linearGradient>
<linearGradient id="paint21_linear_32_2357" x1="-1.12754" y1="29.7723" x2="55.1937" y2="-0.701468" gradientUnits="userSpaceOnUse">
<stop stop-color="#FFF7AE"/>
<stop offset="0.14" stop-color="#FEF38A"/>
<stop offset="0.2" stop-color="#FEF27A"/>
<stop offset="0.31" stop-color="#FEE355"/>
<stop offset="0.38" stop-color="#FFD83B"/>
<stop offset="0.68" stop-color="#EDB905"/>
<stop offset="1" stop-color="#D58902"/>
</linearGradient>
<linearGradient id="paint22_linear_32_2357" x1="-1.1908" y1="29.6281" x2="55.0906" y2="-0.823864" gradientUnits="userSpaceOnUse">
<stop stop-color="#FFF7AE"/>
<stop offset="0.14" stop-color="#FEF38A"/>
<stop offset="0.2" stop-color="#FEF27A"/>
<stop offset="0.31" stop-color="#FEE355"/>
<stop offset="0.38" stop-color="#FFD83B"/>
<stop offset="0.68" stop-color="#EDB905"/>
<stop offset="1" stop-color="#D58902"/>
</linearGradient>
<linearGradient id="paint23_linear_32_2357" x1="-1.25492" y1="29.5099" x2="55.0239" y2="-0.940694" gradientUnits="userSpaceOnUse">
<stop stop-color="#FFF7AE"/>
<stop offset="0.14" stop-color="#FEF38A"/>
<stop offset="0.2" stop-color="#FEF27A"/>
<stop offset="0.31" stop-color="#FEE355"/>
<stop offset="0.38" stop-color="#FFD83B"/>
<stop offset="0.68" stop-color="#EDB905"/>
<stop offset="1" stop-color="#D58902"/>
</linearGradient>
<linearGradient id="paint24_linear_32_2357" x1="-1.30531" y1="29.4096" x2="54.965" y2="-1.03631" gradientUnits="userSpaceOnUse">
<stop stop-color="#FFF7AE"/>
<stop offset="0.14" stop-color="#FEF38A"/>
<stop offset="0.2" stop-color="#FEF27A"/>
<stop offset="0.31" stop-color="#FEE355"/>
<stop offset="0.38" stop-color="#FFD83B"/>
<stop offset="0.68" stop-color="#EDB905"/>
<stop offset="1" stop-color="#D58902"/>
</linearGradient>
<linearGradient id="paint25_linear_32_2357" x1="-1.35944" y1="29.337" x2="54.9363" y2="-1.12288" gradientUnits="userSpaceOnUse">
<stop stop-color="#FFF7AE"/>
<stop offset="0.14" stop-color="#FEF38A"/>
<stop offset="0.2" stop-color="#FEF27A"/>
<stop offset="0.31" stop-color="#FEE355"/>
<stop offset="0.38" stop-color="#FFD83B"/>
<stop offset="0.68" stop-color="#EDB905"/>
<stop offset="1" stop-color="#D58902"/>
</linearGradient>
<linearGradient id="paint26_linear_32_2357" x1="-1.37445" y1="29.2687" x2="54.8818" y2="-1.16967" gradientUnits="userSpaceOnUse">
<stop stop-color="#FFF7AE"/>
<stop offset="0.14" stop-color="#FEF38A"/>
<stop offset="0.2" stop-color="#FEF27A"/>
<stop offset="0.31" stop-color="#FEE355"/>
<stop offset="0.38" stop-color="#FFD83B"/>
<stop offset="0.68" stop-color="#EDB905"/>
<stop offset="1" stop-color="#D58902"/>
</linearGradient>
<linearGradient id="paint27_linear_32_2357" x1="-1.39559" y1="29.2291" x2="54.8604" y2="-1.20885" gradientUnits="userSpaceOnUse">
<stop stop-color="#FFF7AE"/>
<stop offset="0.14" stop-color="#FEF38A"/>
<stop offset="0.2" stop-color="#FEF27A"/>
<stop offset="0.31" stop-color="#FEE355"/>
<stop offset="0.38" stop-color="#FFD83B"/>
<stop offset="0.68" stop-color="#EDB905"/>
<stop offset="1" stop-color="#D58902"/>
</linearGradient>
<linearGradient id="paint28_linear_32_2357" x1="-1.40484" y1="29.2124" x2="54.8514" y2="-1.22592" gradientUnits="userSpaceOnUse">
<stop stop-color="#FFF7AE"/>
<stop offset="0.14" stop-color="#FEF38A"/>
<stop offset="0.2" stop-color="#FEF27A"/>
<stop offset="0.31" stop-color="#FEE355"/>
<stop offset="0.38" stop-color="#FFD83B"/>
<stop offset="0.68" stop-color="#EDB905"/>
<stop offset="1" stop-color="#D58902"/>
</linearGradient>
<linearGradient id="paint29_linear_32_2357" x1="-1.41587" y1="29.2256" x2="54.8657" y2="-1.2264" gradientUnits="userSpaceOnUse">
<stop stop-color="#FFF7AE"/>
<stop offset="0.14" stop-color="#FEF38A"/>
<stop offset="0.2" stop-color="#FEF27A"/>
<stop offset="0.31" stop-color="#FEE355"/>
<stop offset="0.38" stop-color="#FFD83B"/>
<stop offset="0.68" stop-color="#EDB905"/>
<stop offset="1" stop-color="#D58902"/>
</linearGradient>
<linearGradient id="paint30_linear_32_2357" x1="-1.42056" y1="29.2644" x2="54.895" y2="-1.20624" gradientUnits="userSpaceOnUse">
<stop stop-color="#FFF7AE"/>
<stop offset="0.14" stop-color="#FEF38A"/>
<stop offset="0.2" stop-color="#FEF27A"/>
<stop offset="0.31" stop-color="#FEE355"/>
<stop offset="0.38" stop-color="#FFD83B"/>
<stop offset="0.68" stop-color="#EDB905"/>
<stop offset="1" stop-color="#D58902"/>
</linearGradient>
<linearGradient id="paint31_linear_32_2357" x1="-1.4184" y1="29.3288" x2="54.9393" y2="-1.16456" gradientUnits="userSpaceOnUse">
<stop stop-color="#FFF7AE"/>
<stop offset="0.14" stop-color="#FEF38A"/>
<stop offset="0.2" stop-color="#FEF27A"/>
<stop offset="0.31" stop-color="#FEE355"/>
<stop offset="0.38" stop-color="#FFD83B"/>
<stop offset="0.68" stop-color="#EDB905"/>
<stop offset="1" stop-color="#D58902"/>
</linearGradient>
<linearGradient id="paint32_linear_32_2357" x1="-1.36763" y1="29.3888" x2="54.959" y2="-1.0877" gradientUnits="userSpaceOnUse">
<stop stop-color="#FFF7AE"/>
<stop offset="0.14" stop-color="#FEF38A"/>
<stop offset="0.2" stop-color="#FEF27A"/>
<stop offset="0.31" stop-color="#FEE355"/>
<stop offset="0.38" stop-color="#FFD83B"/>
<stop offset="0.68" stop-color="#EDB905"/>
<stop offset="1" stop-color="#D58902"/>
</linearGradient>
<linearGradient id="paint33_linear_32_2357" x1="-1.31883" y1="29.4789" x2="55.0078" y2="-0.997558" gradientUnits="userSpaceOnUse">
<stop stop-color="#FFF7AE"/>
<stop offset="0.14" stop-color="#FEF38A"/>
<stop offset="0.2" stop-color="#FEF27A"/>
<stop offset="0.31" stop-color="#FEE355"/>
<stop offset="0.38" stop-color="#FFD83B"/>
<stop offset="0.68" stop-color="#EDB905"/>
<stop offset="1" stop-color="#D58902"/>
</linearGradient>
<linearGradient id="paint34_linear_32_2357" x1="-1.29899" y1="29.6101" x2="55.0812" y2="-0.895483" gradientUnits="userSpaceOnUse">
<stop stop-color="#FFF7AE"/>
<stop offset="0.14" stop-color="#FEF38A"/>
<stop offset="0.2" stop-color="#FEF27A"/>
<stop offset="0.31" stop-color="#FEE355"/>
<stop offset="0.38" stop-color="#FFD83B"/>
<stop offset="0.68" stop-color="#EDB905"/>
<stop offset="1" stop-color="#D58902"/>
</linearGradient>
<linearGradient id="paint35_linear_32_2357" x1="-1.2091" y1="29.729" x2="55.1401" y2="-0.759705" gradientUnits="userSpaceOnUse">
<stop stop-color="#FFF7AE"/>
<stop offset="0.14" stop-color="#FEF38A"/>
<stop offset="0.2" stop-color="#FEF27A"/>
<stop offset="0.31" stop-color="#FEE355"/>
<stop offset="0.38" stop-color="#FFD83B"/>
<stop offset="0.68" stop-color="#EDB905"/>
<stop offset="1" stop-color="#D58902"/>
</linearGradient>
<linearGradient id="paint36_linear_32_2357" x1="-1.0992" y1="29.8587" x2="55.2023" y2="-0.604412" gradientUnits="userSpaceOnUse">
<stop stop-color="#FFF7AE"/>
<stop offset="0.14" stop-color="#FEF38A"/>
<stop offset="0.2" stop-color="#FEF27A"/>
<stop offset="0.31" stop-color="#FEE355"/>
<stop offset="0.38" stop-color="#FFD83B"/>
<stop offset="0.68" stop-color="#EDB905"/>
<stop offset="1" stop-color="#D58902"/>
</linearGradient>
<linearGradient id="paint37_linear_32_2357" x1="-1.01335" y1="30.0238" x2="55.2909" y2="-0.440589" gradientUnits="userSpaceOnUse">
<stop stop-color="#FFF7AE"/>
<stop offset="0.14" stop-color="#FEF38A"/>
<stop offset="0.2" stop-color="#FEF27A"/>
<stop offset="0.31" stop-color="#FEE355"/>
<stop offset="0.38" stop-color="#FFD83B"/>
<stop offset="0.68" stop-color="#EDB905"/>
<stop offset="1" stop-color="#D58902"/>
</linearGradient>
<linearGradient id="paint38_linear_32_2357" x1="-0.948202" y1="30.2251" x2="55.3983" y2="-0.262388" gradientUnits="userSpaceOnUse">
<stop stop-color="#FFF7AE"/>
<stop offset="0.14" stop-color="#FEF38A"/>
<stop offset="0.2" stop-color="#FEF27A"/>
<stop offset="0.31" stop-color="#FEE355"/>
<stop offset="0.38" stop-color="#FFD83B"/>
<stop offset="0.68" stop-color="#EDB905"/>
<stop offset="1" stop-color="#D58902"/>
</linearGradient>
<linearGradient id="paint39_linear_32_2357" x1="-0.891992" y1="30.4495" x2="55.5163" y2="-0.0712252" gradientUnits="userSpaceOnUse">
<stop stop-color="#FFF7AE"/>
<stop offset="0.14" stop-color="#FEF38A"/>
<stop offset="0.2" stop-color="#FEF27A"/>
<stop offset="0.31" stop-color="#FEE355"/>
<stop offset="0.38" stop-color="#FFD83B"/>
<stop offset="0.68" stop-color="#EDB905"/>
<stop offset="1" stop-color="#D58902"/>
</linearGradient>
<linearGradient id="paint40_linear_32_2357" x1="-0.718708" y1="30.6289" x2="55.6109" y2="0.150786" gradientUnits="userSpaceOnUse">
<stop stop-color="#FFF7AE"/>
<stop offset="0.14" stop-color="#FEF38A"/>
<stop offset="0.2" stop-color="#FEF27A"/>
<stop offset="0.31" stop-color="#FEE355"/>
<stop offset="0.38" stop-color="#FFD83B"/>
<stop offset="0.68" stop-color="#EDB905"/>
<stop offset="1" stop-color="#D58902"/>
</linearGradient>
<linearGradient id="paint41_linear_32_2357" x1="-0.645664" y1="30.8846" x2="55.7429" y2="0.374692" gradientUnits="userSpaceOnUse">
<stop stop-color="#FFF7AE"/>
<stop offset="0.14" stop-color="#FEF38A"/>
<stop offset="0.2" stop-color="#FEF27A"/>
<stop offset="0.31" stop-color="#FEE355"/>
<stop offset="0.38" stop-color="#FFD83B"/>
<stop offset="0.68" stop-color="#EDB905"/>
<stop offset="1" stop-color="#D58902"/>
</linearGradient>
<linearGradient id="paint42_linear_32_2357" x1="-0.433024" y1="31.0825" x2="55.857" y2="0.625935" gradientUnits="userSpaceOnUse">
<stop stop-color="#FFF7AE"/>
<stop offset="0.14" stop-color="#FEF38A"/>
<stop offset="0.2" stop-color="#FEF27A"/>
<stop offset="0.31" stop-color="#FEE355"/>
<stop offset="0.38" stop-color="#FFD83B"/>
<stop offset="0.68" stop-color="#EDB905"/>
<stop offset="1" stop-color="#D58902"/>
</linearGradient>
<linearGradient id="paint43_linear_32_2357" x1="-0.301273" y1="31.3463" x2="56.0001" y2="0.883533" gradientUnits="userSpaceOnUse">
<stop stop-color="#FFF7AE"/>
<stop offset="0.14" stop-color="#FEF38A"/>
<stop offset="0.2" stop-color="#FEF27A"/>
<stop offset="0.31" stop-color="#FEE355"/>
<stop offset="0.38" stop-color="#FFD83B"/>
<stop offset="0.68" stop-color="#EDB905"/>
<stop offset="1" stop-color="#D58902"/>
</linearGradient>
<linearGradient id="paint44_linear_32_2357" x1="-0.283233" y1="31.6824" x2="56.1589" y2="1.14345" gradientUnits="userSpaceOnUse">
<stop stop-color="#FFF7AE"/>
<stop offset="0.14" stop-color="#FEF38A"/>
<stop offset="0.2" stop-color="#FEF27A"/>
<stop offset="0.31" stop-color="#FEE355"/>
<stop offset="0.38" stop-color="#FFD83B"/>
<stop offset="0.68" stop-color="#EDB905"/>
<stop offset="1" stop-color="#D58902"/>
</linearGradient>
<linearGradient id="paint45_linear_32_2357" x1="0.00302147" y1="31.8952" x2="56.2959" y2="1.43687" gradientUnits="userSpaceOnUse">
<stop stop-color="#FFF7AE"/>
<stop offset="0.14" stop-color="#FEF38A"/>
<stop offset="0.2" stop-color="#FEF27A"/>
<stop offset="0.31" stop-color="#FEE355"/>
<stop offset="0.38" stop-color="#FFD83B"/>
<stop offset="0.68" stop-color="#EDB905"/>
<stop offset="1" stop-color="#D58902"/>
</linearGradient>
<linearGradient id="paint46_linear_32_2357" x1="0.068859" y1="32.2384" x2="56.4601" y2="1.72706" gradientUnits="userSpaceOnUse">
<stop stop-color="#FFF7AE"/>
<stop offset="0.14" stop-color="#FEF38A"/>
<stop offset="0.2" stop-color="#FEF27A"/>
<stop offset="0.31" stop-color="#FEE355"/>
<stop offset="0.38" stop-color="#FFD83B"/>
<stop offset="0.68" stop-color="#EDB905"/>
<stop offset="1" stop-color="#D58902"/>
</linearGradient>
<linearGradient id="paint47_linear_32_2357" x1="0.22936" y1="32.5485" x2="56.6263" y2="2.03407" gradientUnits="userSpaceOnUse">
<stop stop-color="#FFF7AE"/>
<stop offset="0.14" stop-color="#FEF38A"/>
<stop offset="0.2" stop-color="#FEF27A"/>
<stop offset="0.31" stop-color="#FEE355"/>
<stop offset="0.38" stop-color="#FFD83B"/>
<stop offset="0.68" stop-color="#EDB905"/>
<stop offset="1" stop-color="#D58902"/>
</linearGradient>
<linearGradient id="paint48_linear_32_2357" x1="0.531687" y1="32.7924" x2="56.7854" y2="2.35513" gradientUnits="userSpaceOnUse">
<stop stop-color="#FFF7AE"/>
<stop offset="0.14" stop-color="#FEF38A"/>
<stop offset="0.2" stop-color="#FEF27A"/>
<stop offset="0.31" stop-color="#FEE355"/>
<stop offset="0.38" stop-color="#FFD83B"/>
<stop offset="0.68" stop-color="#EDB905"/>
<stop offset="1" stop-color="#D58902"/>
</linearGradient>
<linearGradient id="paint49_linear_32_2357" x1="0.672403" y1="33.1389" x2="56.9652" y2="2.68076" gradientUnits="userSpaceOnUse">
<stop stop-color="#FFF7AE"/>
<stop offset="0.14" stop-color="#FEF38A"/>
<stop offset="0.2" stop-color="#FEF27A"/>
<stop offset="0.31" stop-color="#FEE355"/>
<stop offset="0.38" stop-color="#FFD83B"/>
<stop offset="0.68" stop-color="#EDB905"/>
<stop offset="1" stop-color="#D58902"/>
</linearGradient>
<linearGradient id="paint50_linear_32_2357" x1="0.92398" y1="33.4359" x2="57.1436" y2="3.01726" gradientUnits="userSpaceOnUse">
<stop stop-color="#FFF7AE"/>
<stop offset="0.14" stop-color="#FEF38A"/>
<stop offset="0.2" stop-color="#FEF27A"/>
<stop offset="0.31" stop-color="#FEE355"/>
<stop offset="0.38" stop-color="#FFD83B"/>
<stop offset="0.68" stop-color="#EDB905"/>
<stop offset="1" stop-color="#D58902"/>
</linearGradient>
<linearGradient id="paint51_linear_32_2357" x1="0.898884" y1="33.8939" x2="57.3353" y2="3.35807" gradientUnits="userSpaceOnUse">
<stop stop-color="#FFF7AE"/>
<stop offset="0.14" stop-color="#FEF38A"/>
<stop offset="0.2" stop-color="#FEF27A"/>
<stop offset="0.31" stop-color="#FEE355"/>
<stop offset="0.38" stop-color="#FFD83B"/>
<stop offset="0.68" stop-color="#EDB905"/>
<stop offset="1" stop-color="#D58902"/>
</linearGradient>
<linearGradient id="paint52_linear_32_2357" x1="0.939141" y1="34.3311" x2="57.5275" y2="3.71307" gradientUnits="userSpaceOnUse">
<stop stop-color="#FFF7AE"/>
<stop offset="0.14" stop-color="#FEF38A"/>
<stop offset="0.2" stop-color="#FEF27A"/>
<stop offset="0.31" stop-color="#FEE355"/>
<stop offset="0.38" stop-color="#FFD83B"/>
<stop offset="0.68" stop-color="#EDB905"/>
<stop offset="1" stop-color="#D58902"/>
</linearGradient>
<linearGradient id="paint53_linear_32_2357" x1="0.790454" y1="34.8777" x2="57.7225" y2="4.07356" gradientUnits="userSpaceOnUse">
<stop stop-color="#FFF7AE"/>
<stop offset="0.14" stop-color="#FEF38A"/>
<stop offset="0.2" stop-color="#FEF27A"/>
<stop offset="0.31" stop-color="#FEE355"/>
<stop offset="0.38" stop-color="#FFD83B"/>
<stop offset="0.68" stop-color="#EDB905"/>
<stop offset="1" stop-color="#D58902"/>
</linearGradient>
<linearGradient id="paint54_linear_32_2357" x1="0.754976" y1="35.3632" x2="57.915" y2="4.43582" gradientUnits="userSpaceOnUse">
<stop stop-color="#FFF7AE"/>
<stop offset="0.14" stop-color="#FEF38A"/>
<stop offset="0.2" stop-color="#FEF27A"/>
<stop offset="0.31" stop-color="#FEE355"/>
<stop offset="0.38" stop-color="#FFD83B"/>
<stop offset="0.68" stop-color="#EDB905"/>
<stop offset="1" stop-color="#D58902"/>
</linearGradient>
<linearGradient id="paint55_linear_32_2357" x1="-0.170337" y1="36.3594" x2="58.1221" y2="4.81897" gradientUnits="userSpaceOnUse">
<stop stop-color="#FFF7AE"/>
<stop offset="0.14" stop-color="#FEF38A"/>
<stop offset="0.2" stop-color="#FEF27A"/>
<stop offset="0.31" stop-color="#FEE355"/>
<stop offset="0.38" stop-color="#FFD83B"/>
<stop offset="0.68" stop-color="#EDB905"/>
<stop offset="1" stop-color="#D58902"/>
</linearGradient>
<linearGradient id="paint56_linear_32_2357" x1="25.2422" y1="46.068" x2="39.247" y2="1.68648" gradientUnits="userSpaceOnUse">
<stop stop-color="#D58902"/>
<stop offset="0.02" stop-color="#D99312"/>
<stop offset="0.07" stop-color="#E1AA37"/>
<stop offset="0.13" stop-color="#E9BF57"/>
<stop offset="0.19" stop-color="#F0D172"/>
<stop offset="0.26" stop-color="#F5DF88"/>
<stop offset="0.35" stop-color="#F9E999"/>
<stop offset="0.45" stop-color="#FCF1A5"/>
<stop offset="0.6" stop-color="#FEF5AC"/>
<stop offset="1" stop-color="#FFF7AE"/>
</linearGradient>
<linearGradient id="paint57_linear_32_2357" x1="35.9415" y1="31.6003" x2="28.9997" y2="17.9107" gradientUnits="userSpaceOnUse">
<stop stop-color="#FFD83B"/>
<stop offset="0.36" stop-color="#BD5D02"/>
<stop offset="0.56" stop-color="#D58902"/>
<stop offset="0.73" stop-color="#EDB905"/>
<stop offset="0.94" stop-color="#FFD83B"/>
</linearGradient>
<linearGradient id="paint58_linear_32_2357" x1="31.1083" y1="20.5821" x2="34.6174" y2="30.5919" gradientUnits="userSpaceOnUse">
<stop stop-color="#BD5D02"/>
<stop offset="1" stop-color="#D58902"/>
</linearGradient>
<linearGradient id="paint59_linear_32_2357" x1="31.7192" y1="37.1108" x2="32.4816" y2="9.36747" gradientUnits="userSpaceOnUse">
<stop stop-color="#BD5D02"/>
<stop offset="0.56" stop-color="#D58902"/>
<stop offset="0.81" stop-color="#EDB905"/>
</linearGradient>
<linearGradient id="paint60_linear_32_2357" x1="25.089" y1="28.2207" x2="39.8943" y2="20.21" gradientUnits="userSpaceOnUse">
<stop stop-color="#BD5D02"/>
<stop offset="1" stop-color="#D58902"/>
</linearGradient>
<linearGradient id="paint61_linear_32_2357" x1="25.8585" y1="29.643" x2="40.6638" y2="21.6324" gradientUnits="userSpaceOnUse">
<stop stop-color="#BD5D02"/>
<stop offset="0.56" stop-color="#D58902"/>
<stop offset="0.81" stop-color="#EDB905"/>
</linearGradient>
<radialGradient id="paint62_radial_32_2357" cx="0" cy="0" r="1" gradientUnits="userSpaceOnUse" gradientTransform="translate(-81.1711 19.11) rotate(171.095) scale(7.89306 0.789732)">
<stop stop-color="white"/>
<stop offset="0.22" stop-color="#FFFF63"/>
<stop offset="0.65" stop-color="#FF3600"/>
<stop offset="1"/>
</radialGradient>
<radialGradient id="paint63_radial_32_2357" cx="0" cy="0" r="1" gradientUnits="userSpaceOnUse" gradientTransform="translate(-74.6288 46.3452) rotate(168.884) scale(6.75511 0.675865)">
<stop stop-color="white"/>
<stop offset="0.22" stop-color="#FFFF63"/>
<stop offset="0.65" stop-color="#FF3600"/>
<stop offset="1"/>
</radialGradient>
<linearGradient id="paint64_linear_32_2357" x1="30.5354" y1="12.1698" x2="34.1833" y2="36.7723" gradientUnits="userSpaceOnUse">
<stop stop-color="#262626"/>
<stop offset="0.64" stop-color="#E1DFDA"/>
<stop offset="0.72" stop-color="#CECCC8"/>
<stop offset="0.86" stop-color="#B0AEAB"/>
</linearGradient>
<linearGradient id="paint65_linear_32_2357" x1="31.529" y1="14.4434" x2="34.7572" y2="36.1991" gradientUnits="userSpaceOnUse">
<stop stop-color="#262626"/>
<stop offset="0.64" stop-color="#E1DFDA"/>
<stop offset="0.72" stop-color="#CECCC8"/>
<stop offset="0.86" stop-color="#B0AEAB"/>
</linearGradient>
</defs>
</svg>
