<svg width="121" height="82" viewBox="0 0 121 82" fill="none" xmlns="http://www.w3.org/2000/svg">
<g filter="url(#filter0_f_31_1304)">
<path d="M114.596 32.8935L114.994 46.4595C115.43 61.3891 91.5889 74.2006 61.7466 75.0737C31.899 75.9469 7.34639 64.5529 6.91006 49.6233L6.51685 36.0573C6.95317 50.9869 31.5003 62.3862 61.348 61.5131C91.1957 60.64 115.037 47.8285 114.601 32.8935H114.596Z" fill="url(#paint0_linear_31_1304)"/>
<path d="M114.595 32.8935L114.983 46.093C115.409 60.6238 91.5618 73.1172 61.7142 73.9904C31.8665 74.8635 7.32474 63.7929 6.89919 49.2568L6.51123 36.0573C6.93678 50.5934 31.4732 61.664 61.3208 60.7855C91.1685 59.9123 115.015 47.4243 114.59 32.8935H114.595Z" fill="url(#paint1_linear_31_1304)"/>
<path d="M114.929 44.7995V44.6054C114.929 44.3306 114.919 44.0557 114.908 43.7862L114.687 36.1651C114.687 36.0735 114.687 35.9765 114.676 35.8848C114.676 35.8848 114.676 35.9387 114.676 35.9657C114.676 36.0304 114.676 36.1004 114.676 36.1651C114.676 36.44 114.676 36.7095 114.676 36.9844L114.902 44.6001C114.902 44.6971 114.902 44.7941 114.919 44.8857C114.919 44.8857 114.919 44.8265 114.924 44.8049L114.929 44.7995Z" fill="url(#paint2_linear_31_1304)"/>
<path d="M114.805 46.4488C114.811 46.3841 114.822 46.3194 114.827 46.2548C114.854 45.9583 114.848 45.5864 114.848 45.4355L114.622 37.8198C114.622 37.7228 114.617 37.6311 114.601 37.5341C114.59 37.5611 114.574 37.588 114.574 37.615C114.568 37.6797 114.558 37.7443 114.547 37.809C114.509 38.1324 114.514 38.4881 114.514 38.6229L114.735 46.2386C114.735 46.3356 114.741 46.4326 114.762 46.5189C114.762 46.5189 114.789 46.465 114.795 46.4434L114.805 46.4488Z" fill="url(#paint3_linear_31_1304)"/>
<path d="M114.493 48.0712C114.509 48.0065 114.525 47.9418 114.541 47.8825C114.595 47.5968 114.601 47.2519 114.595 47.0686L114.374 39.4529C114.369 39.2589 114.358 39.2266 114.337 39.1727C114.321 39.1942 114.299 39.2212 114.299 39.2212C114.277 39.3128 114.261 39.3721 114.245 39.4368C114.175 39.7494 114.181 40.1105 114.181 40.2506L114.401 47.8663C114.407 48.0604 114.418 48.0927 114.444 48.152C114.461 48.1304 114.493 48.1035 114.498 48.0765L114.493 48.0712Z" fill="url(#paint4_linear_31_1304)"/>
<path d="M113.987 49.6719C114.008 49.6072 114.03 49.5479 114.051 49.4832C114.138 49.1976 114.143 48.8526 114.137 48.6748L113.917 41.059C113.911 40.865 113.895 40.8327 113.868 40.7734L113.798 40.8488C113.777 40.9081 113.755 40.9728 113.733 41.0321C113.637 41.3285 113.631 41.6681 113.637 41.8406L113.857 49.4563C113.868 49.6503 113.884 49.6773 113.917 49.7419C113.944 49.7312 113.976 49.6988 113.992 49.6719H113.987Z" fill="url(#paint5_linear_31_1304)"/>
<path d="M113.303 51.2457C113.335 51.1864 113.362 51.1271 113.394 51.0624C113.507 50.7822 113.518 50.4372 113.513 50.2594L113.292 42.6436C113.281 42.4496 113.265 42.4226 113.233 42.358H113.179L113.146 42.4065C113.103 42.4873 113.076 42.552 113.044 42.6113C112.925 42.9024 112.909 43.2419 112.915 43.4144L113.136 51.0355C113.146 51.2942 113.179 51.3104 113.238 51.3265C113.238 51.3265 113.281 51.278 113.297 51.2511L113.303 51.2457Z" fill="url(#paint6_linear_31_1304)"/>
<path d="M112.441 52.7871C112.478 52.7278 112.511 52.6685 112.554 52.6092C112.694 52.329 112.71 51.9894 112.705 51.8062L112.484 44.1904C112.473 43.9425 112.43 43.9156 112.381 43.8886C112.354 43.9102 112.317 43.9371 112.295 43.9641C112.258 44.0234 112.22 44.0826 112.182 44.1419C112.031 44.4383 112.015 44.7995 112.015 44.9396L112.236 52.5553C112.247 52.8086 112.295 52.8302 112.344 52.8572C112.376 52.841 112.408 52.814 112.43 52.7817L112.441 52.7871Z" fill="url(#paint7_linear_31_1304)"/>
<path d="M111.406 54.2963C111.449 54.237 111.493 54.1777 111.536 54.1238C111.703 53.8489 111.724 53.5094 111.724 53.3315L111.503 45.7158C111.487 45.4679 111.439 45.4409 111.385 45.4139C111.352 45.4301 111.309 45.4571 111.282 45.484C111.239 45.5433 111.196 45.6026 111.153 45.6619C110.981 45.9368 110.954 46.2763 110.959 46.4488L111.18 54.0645C111.191 54.3178 111.245 54.3394 111.304 54.3663C111.336 54.3502 111.385 54.3232 111.406 54.2963Z" fill="url(#paint8_linear_31_1304)"/>
<path d="M110.211 55.773C110.259 55.7138 110.313 55.6599 110.356 55.6006C110.55 55.3311 110.577 54.9915 110.577 54.819L110.356 47.2033C110.345 47.0362 110.302 46.7829 110.103 46.9662C110.054 47.0255 110.006 47.0794 109.952 47.1386C109.753 47.4135 109.726 47.7423 109.726 47.9202L109.947 55.5359C109.963 55.8215 110.071 55.924 110.205 55.7784L110.211 55.773Z" fill="url(#paint9_linear_31_1304)"/>
<path d="M108.853 57.2014C108.907 57.1475 108.961 57.0935 109.02 57.0396C109.236 56.7755 109.268 56.436 109.268 56.2635L109.047 48.6424C109.036 48.4753 108.988 48.222 108.767 48.3945C108.708 48.4538 108.654 48.5077 108.6 48.5616C108.379 48.8257 108.347 49.1598 108.342 49.3377L108.568 56.9534C108.584 57.2876 108.729 57.3199 108.853 57.2014Z" fill="url(#paint10_linear_31_1304)"/>
<path d="M107.345 58.5919C107.404 58.538 107.463 58.4841 107.528 58.4302C107.765 58.1769 107.808 57.8373 107.803 57.6595L107.582 50.0438C107.571 49.8767 107.517 49.6234 107.275 49.7905C107.215 49.8444 107.156 49.9036 107.092 49.9521C106.844 50.2055 106.806 50.5396 106.806 50.7175L107.027 58.3332C107.049 58.6674 107.205 58.6997 107.345 58.5865V58.5919Z" fill="url(#paint11_linear_31_1304)"/>
<path d="M105.68 59.9394C105.75 59.8909 105.82 59.837 105.885 59.7831C106.149 59.5352 106.187 59.201 106.192 59.0231L105.966 51.4074C105.96 51.2403 105.896 50.9816 105.632 51.1433C105.567 51.1918 105.497 51.2457 105.432 51.2996C105.163 51.5475 105.125 51.8817 105.125 52.0542L105.346 59.6699C105.368 60.0094 105.535 60.0472 105.686 59.9394H105.68Z" fill="url(#paint12_linear_31_1304)"/>
<path d="M103.876 61.2329C103.946 61.179 104.021 61.1305 104.091 61.082C104.291 60.9311 104.42 60.6346 104.42 60.3274L104.199 52.7117C104.188 52.5446 104.129 52.2859 103.838 52.4368C103.768 52.4907 103.693 52.5392 103.623 52.5931C103.423 52.744 103.289 53.0405 103.289 53.3369L103.51 60.9526C103.531 61.2922 103.709 61.3353 103.876 61.2329Z" fill="url(#paint13_linear_31_1304)"/>
<path d="M101.937 62.4725C102.018 62.424 102.098 62.3755 102.174 62.3324C102.389 62.1869 102.524 61.8958 102.529 61.594L102.309 53.9783C102.292 53.6926 102.136 53.5794 101.926 53.6926C101.845 53.7411 101.77 53.7896 101.689 53.8381C101.474 53.9836 101.334 54.2747 101.328 54.5765L101.549 62.1922C101.576 62.5318 101.77 62.5749 101.937 62.4779V62.4725Z" fill="url(#paint14_linear_31_1304)"/>
<path d="M99.8627 63.6637C99.9489 63.6152 100.03 63.5721 100.116 63.529C100.342 63.3835 100.493 63.0978 100.498 62.7959L100.278 55.1803C100.261 54.8946 100.094 54.776 99.8681 54.8892C99.7873 54.9377 99.7012 54.9808 99.6204 55.0239C99.3887 55.1641 99.2379 55.4497 99.2325 55.7516L99.4587 63.3673C99.4803 63.7015 99.685 63.7554 99.8681 63.6637H99.8627Z" fill="url(#paint15_linear_31_1304)"/>
<path d="M97.665 64.7955C97.7512 64.7524 97.8428 64.7093 97.9289 64.6662C98.1713 64.5368 98.3276 64.2511 98.3329 63.9493L98.1066 56.3336C98.0905 56.0479 97.9127 55.924 97.6757 56.0318C97.5895 56.0749 97.4979 56.118 97.4063 56.1557C97.1639 56.2905 97.0023 56.5707 97.0023 56.8726L97.2233 64.4883C97.2448 64.8278 97.4657 64.8817 97.6596 64.7955H97.665Z" fill="url(#paint16_linear_31_1304)"/>
<path d="M95.3488 65.8627C95.4403 65.8249 95.5373 65.7818 95.6289 65.7441C95.8821 65.6147 96.0491 65.3399 96.0545 65.0326L95.8281 57.4169C95.8066 57.1259 95.6289 57.0019 95.3811 57.0989C95.2842 57.1421 95.1926 57.1798 95.0956 57.2229C94.8424 57.3469 94.67 57.6217 94.67 57.9236L94.8909 65.5393C94.9124 65.8788 95.1441 65.9381 95.3488 65.8573V65.8627Z" fill="url(#paint17_linear_31_1304)"/>
<path d="M92.9193 66.8706C93.0163 66.8329 93.1186 66.7951 93.2156 66.752C93.4795 66.6334 93.6518 66.3586 93.6572 66.0567L93.4364 58.4356C93.4148 58.1446 93.2316 58.0152 92.9623 58.1122C92.8653 58.15 92.7631 58.1877 92.6661 58.2308C92.3968 58.3494 92.219 58.6189 92.219 58.9207L92.4398 66.5364C92.4667 66.8706 92.7092 66.9406 92.9193 66.8652V66.8706Z" fill="url(#paint18_linear_31_1304)"/>
<path d="M90.3769 67.8083C90.4793 67.7706 90.5815 67.7329 90.6839 67.7005C90.9586 67.5873 91.1418 67.3178 91.1418 67.0214L90.921 59.4057C90.894 59.1092 90.7054 58.9799 90.4253 59.0661C90.323 59.0985 90.2207 59.1362 90.1238 59.1739C89.8383 59.2871 89.655 59.5512 89.6497 59.8476L89.8705 67.4688C89.8974 67.8083 90.1507 67.8838 90.3715 67.8137L90.3769 67.8083Z" fill="url(#paint19_linear_31_1304)"/>
<path d="M87.7374 68.6761C87.8452 68.6438 87.9475 68.6114 88.0499 68.5737C88.3354 68.4713 88.5239 68.2072 88.5346 67.9054L88.3138 60.2897C88.2869 59.9986 88.0876 59.8585 87.8021 59.9339C87.6998 59.9663 87.592 59.9986 87.4897 60.0363C87.1988 60.1387 87.0049 60.4029 86.9995 60.6993L87.2203 68.315C87.2473 68.6438 87.5058 68.7408 87.7428 68.6761H87.7374Z" fill="url(#paint20_linear_31_1304)"/>
<path d="M84.9956 69.4684C85.1033 69.4414 85.211 69.4091 85.3241 69.3822C85.6204 69.2852 85.8196 69.0264 85.825 68.7246L85.6042 61.1089C85.5773 60.8125 85.378 60.6723 85.0709 60.7424C84.9632 60.7747 84.8554 60.8017 84.7477 60.8286C84.4406 60.9257 84.2467 61.179 84.236 61.4808L84.4569 69.1019C84.4892 69.4415 84.7586 69.5277 84.9956 69.4684Z" fill="url(#paint21_linear_31_1304)"/>
<path d="M82.162 70.1906C82.2751 70.1637 82.3882 70.1367 82.5013 70.1098C82.8084 70.0182 83.0076 69.7702 83.013 69.4684L82.7922 61.8527C82.7707 61.5616 82.5606 61.4107 82.2482 61.47C82.135 61.497 82.022 61.5239 81.9089 61.5508C81.5964 61.6371 81.3862 61.8904 81.3862 62.1922L81.6072 69.808C81.6341 70.1475 81.9088 70.2445 82.162 70.1906Z" fill="url(#paint22_linear_31_1304)"/>
<path d="M79.237 70.832C79.3555 70.8104 79.4687 70.7835 79.5872 70.7619C79.905 70.6811 80.1097 70.4331 80.1205 70.1367L79.8996 62.521C79.8726 62.2245 79.6573 62.0736 79.3394 62.1221C79.2209 62.1491 79.1024 62.1706 78.9892 62.1976C78.6714 62.2784 78.4559 62.521 78.4506 62.8174L78.6715 70.4331C78.6984 70.7727 78.9892 70.8805 79.2424 70.832H79.237Z" fill="url(#paint23_linear_31_1304)"/>
<path d="M76.2367 71.3926C76.3552 71.371 76.4737 71.3495 76.5922 71.3333C76.9208 71.2578 77.1362 71.0207 77.147 70.7242L76.9262 63.1085C76.9047 62.8175 76.673 62.6558 76.3444 62.6935C76.2259 62.7151 76.1074 62.7366 75.9889 62.7582C75.6603 62.8283 75.4395 63.0654 75.4341 63.3618L75.6549 70.9776C75.6872 71.3171 75.9781 71.4303 76.2421 71.3926H76.2367Z" fill="url(#paint24_linear_31_1304)"/>
<path d="M73.1557 71.8614C73.2796 71.8453 73.4035 71.8291 73.522 71.8075C73.8559 71.7483 74.0822 71.5111 74.0876 71.2147L73.8613 63.599C73.8397 63.3079 73.6028 63.1354 73.2688 63.1678C73.1449 63.1839 73.0263 63.2055 72.9078 63.2217C72.5684 63.281 72.3477 63.5181 72.3369 63.8145L72.5577 71.4303C72.59 71.7698 72.8864 71.8938 73.1557 71.8614Z" fill="url(#paint25_linear_31_1304)"/>
<path d="M70.0096 72.2496C70.1335 72.2334 70.2628 72.2226 70.3867 72.2119C70.7261 72.158 70.9523 71.9316 70.9631 71.6298L70.7369 64.014C70.71 63.723 70.4729 63.5505 70.1281 63.5721C70.0042 63.5882 69.875 63.599 69.7565 63.6098C69.4117 63.6637 69.1801 63.8901 69.1747 64.1865L69.3955 71.7968C69.4278 72.1418 69.7349 72.2711 70.0043 72.2496H70.0096Z" fill="url(#paint26_linear_31_1304)"/>
<path d="M66.8047 72.5406C66.9286 72.5298 67.0525 72.5244 67.1818 72.5083C67.5319 72.4651 67.7636 72.2496 67.7744 71.9477L67.5534 64.332C67.5265 64.0356 67.2841 63.8577 66.934 63.8685C66.8101 63.8739 66.6809 63.8901 66.5516 63.8954C66.2014 63.9386 65.9698 64.1541 65.959 64.4506L66.1798 72.0663C66.2121 72.4166 66.5139 72.5514 66.8047 72.5352V72.5406Z" fill="url(#paint27_linear_31_1304)"/>
<path d="M63.5295 72.7454C63.6588 72.7401 63.788 72.7347 63.9173 72.7239C64.2728 72.6916 64.5099 72.476 64.5207 72.1795L64.2997 64.5638C64.2728 64.2674 64.0251 64.0841 63.6695 64.0841C63.5403 64.0949 63.411 64.1003 63.2817 64.1057C62.9208 64.138 62.6891 64.3482 62.6783 64.6393L62.8993 72.2604C62.9316 72.6053 63.2494 72.7508 63.5349 72.7454H63.5295Z" fill="url(#paint28_linear_31_1304)"/>
<path d="M60.2168 72.8478C60.3461 72.8478 60.4753 72.8478 60.6046 72.8424C60.9601 72.8209 61.1971 72.6161 61.2078 72.3142L60.9817 64.6985C60.9547 64.4021 60.707 64.208 60.3461 64.1973C60.2168 64.1973 60.0875 64.2027 59.9582 64.2027C59.5973 64.2242 59.3656 64.429 59.3549 64.7255L59.5757 72.3412C59.608 72.6861 59.9151 72.8424 60.206 72.8424L60.2168 72.8478Z" fill="url(#paint29_linear_31_1304)"/>
<path d="M56.9308 72.8532C57.0601 72.8532 57.1894 72.8532 57.3132 72.8532C57.6688 72.8425 57.9058 72.643 57.9112 72.3466L57.6903 64.7309C57.6634 64.4344 57.4156 64.2296 57.0655 64.2134C56.9308 64.2134 56.8123 64.2134 56.683 64.2134C56.3275 64.2242 56.0958 64.4183 56.0905 64.7147L56.3114 72.3304C56.3437 72.6807 56.6453 72.8425 56.9308 72.8532Z" fill="url(#paint30_linear_31_1304)"/>
<path d="M53.7042 72.7561C53.8281 72.7615 53.952 72.7669 54.0813 72.7723C54.4314 72.7723 54.6631 72.5783 54.6685 72.2818L54.4423 64.6661C54.4153 64.3697 54.1729 64.1595 53.8281 64.1271C53.6988 64.1271 53.5803 64.1164 53.4511 64.111C53.1063 64.111 52.88 64.2996 52.8693 64.5961L53.0902 72.2118C53.1225 72.5621 53.4187 72.7346 53.7042 72.7508V72.7561Z" fill="url(#paint31_linear_31_1304)"/>
<path d="M50.5368 72.5675C50.6553 72.5783 50.7792 72.5837 50.9031 72.5945C51.2424 72.6053 51.4687 72.422 51.4795 72.1202L51.2586 64.5045C51.2316 64.2081 50.9947 63.9924 50.6499 63.9493C50.5314 63.9439 50.402 63.9332 50.2835 63.9224C49.9442 63.9116 49.7234 64.0949 49.7126 64.3913L49.9335 72.007C49.9658 72.3574 50.2567 72.5352 50.5368 72.5622V72.5675Z" fill="url(#paint32_linear_31_1304)"/>
<path d="M47.4233 72.2873C47.5418 72.2981 47.6656 72.3142 47.7841 72.325C48.1181 72.3412 48.339 72.1633 48.3444 71.8723L48.1234 64.2565C48.0965 63.9601 47.865 63.7391 47.5256 63.6852C47.4071 63.6745 47.2832 63.6583 47.1647 63.6475C46.8308 63.6259 46.6099 63.7984 46.6045 64.0949L46.8253 71.7106C46.8522 72.0609 47.1378 72.2496 47.4125 72.2819L47.4233 72.2873Z" fill="url(#paint33_linear_31_1304)"/>
<path d="M44.3852 71.9154C44.5037 71.9316 44.6223 71.9477 44.7408 71.9639C45.064 71.9908 45.2848 71.8184 45.2901 71.5219L45.0693 63.9062C45.0478 63.6098 44.8161 63.378 44.4875 63.3187C44.3744 63.3026 44.256 63.2864 44.1374 63.2702C43.8089 63.2379 43.6042 63.4049 43.5934 63.7068L43.8142 71.3171C43.8465 71.6675 44.1213 71.8669 44.3852 71.91V71.9154Z" fill="url(#paint34_linear_31_1304)"/>
<path d="M41.4279 71.4572C41.541 71.4788 41.6542 71.4949 41.7673 71.5111C42.0852 71.5488 42.2952 71.3817 42.3006 71.0907L42.0797 63.475C42.0528 63.1785 41.832 62.9414 41.5142 62.8713C41.4011 62.8552 41.2879 62.8336 41.1694 62.8174C40.8516 62.7797 40.6523 62.936 40.6415 63.2325L40.8677 70.8482C40.8946 71.1985 41.1694 71.4033 41.4279 71.4518V71.4572Z" fill="url(#paint35_linear_31_1304)"/>
<path d="M38.5407 70.9129C38.6539 70.9344 38.7615 70.956 38.8746 70.9829C39.1817 71.0314 39.3864 70.8698 39.3971 70.5733L39.1763 62.9576C39.1548 62.6612 38.9339 62.4186 38.6269 62.3378C38.5138 62.3162 38.406 62.2946 38.2928 62.2731C37.9858 62.2246 37.7919 62.3809 37.7811 62.6719L38.0021 70.2876C38.029 70.638 38.2929 70.8536 38.5407 70.9075V70.9129Z" fill="url(#paint36_linear_31_1304)"/>
<path d="M35.7451 70.2877C35.8528 70.3146 35.9606 70.3416 36.0683 70.3685C36.3646 70.4224 36.5692 70.2661 36.5692 69.9751L36.3484 62.3593C36.3215 62.0629 36.1114 61.8096 35.8098 61.7233C35.702 61.6964 35.5942 61.6749 35.4865 61.6479C35.131 61.5778 34.9964 61.8042 34.991 62.0306L35.2118 69.6463C35.2387 69.9966 35.4973 70.2176 35.7397 70.2823L35.7451 70.2877Z" fill="url(#paint37_linear_31_1304)"/>
<path d="M33.0408 69.587C33.1486 69.6193 33.251 69.6463 33.3587 69.6732C33.6442 69.7379 33.8381 69.587 33.8435 69.296L33.6227 61.6802C33.6011 61.3838 33.3964 61.1251 33.1055 61.0335C33.0032 61.0011 32.8954 60.9742 32.7877 60.9472C32.4968 60.8825 32.3137 61.0227 32.3137 61.3191L32.5291 68.9348C32.5561 69.2852 32.8038 69.5116 33.0355 69.587H33.0408Z" fill="url(#paint38_linear_31_1304)"/>
<path d="M30.4391 68.8055C30.5415 68.8378 30.6384 68.8702 30.7408 68.9025C31.0155 68.9726 31.1986 68.8271 31.204 68.5414L30.9832 60.9257C30.9562 60.6292 30.7622 60.3652 30.4875 60.2628C30.3852 60.2304 30.2829 60.1981 30.1859 60.1657C29.9112 60.0903 29.7334 60.2358 29.728 60.5215L29.9488 68.1372C29.9758 68.4875 30.2075 68.7247 30.4337 68.8055H30.4391Z" fill="url(#paint39_linear_31_1304)"/>
<path d="M27.9449 67.9539C28.0418 67.9862 28.1388 68.024 28.2304 68.0563C28.4943 68.1371 28.6668 67.997 28.6775 67.706L28.4566 60.0903C28.4297 59.7938 28.2466 59.5297 27.9826 59.4165C27.8857 59.3842 27.7887 59.3519 27.6971 59.3087C27.4332 59.2279 27.2608 59.368 27.2554 59.6537L27.4763 67.2694C27.5032 67.6251 27.7294 67.8677 27.9503 67.9485L27.9449 67.9539Z" fill="url(#paint40_linear_31_1304)"/>
<path d="M25.5533 67.0323C25.6395 67.07 25.7365 67.1077 25.828 67.1455C26.0812 67.2317 26.2482 67.097 26.2482 66.8059L26.0327 59.1902C26.0111 58.8884 25.8335 58.6189 25.5803 58.5003C25.4887 58.4626 25.3917 58.4249 25.3056 58.3925C25.0578 58.3063 24.8908 58.4356 24.8854 58.7213L25.1062 66.337C25.1331 66.6873 25.354 66.9353 25.5587 67.0269L25.5533 67.0323Z" fill="url(#paint41_linear_31_1304)"/>
<path d="M23.2802 66.0405C23.3664 66.0782 23.4526 66.1214 23.5387 66.1591C23.7758 66.2507 23.9374 66.1214 23.9427 65.8357L23.7219 58.22C23.7004 57.9182 23.5388 57.6433 23.291 57.5193C23.2048 57.4816 23.1186 57.4385 23.027 57.3954C22.7954 57.3037 22.6338 57.4331 22.6284 57.7133L22.8492 65.3291C22.8762 65.6848 23.0809 65.9381 23.2802 66.0351V66.0405Z" fill="url(#paint42_linear_31_1304)"/>
<path d="M21.1255 64.9787C21.2063 65.0219 21.2925 65.065 21.3733 65.1081C21.6965 65.2321 21.7504 64.9679 21.7504 64.7955L21.5295 57.1797C21.508 56.8779 21.3518 56.603 21.1255 56.4683C21.0447 56.4252 20.9586 56.3821 20.8778 56.3443C20.5546 56.215 20.5061 56.4791 20.5007 56.6516L20.7269 64.2673C20.7485 64.6176 20.9478 64.8817 21.1309 64.9841L21.1255 64.9787Z" fill="url(#paint43_linear_31_1304)"/>
<path d="M19.1 63.8577C19.1754 63.9062 19.2561 63.9493 19.3315 63.9925C19.6386 64.1272 19.6872 63.8577 19.6872 63.6906L19.4662 56.0749C19.4447 55.7731 19.2939 55.4928 19.0784 55.3527C19.003 55.3042 18.9276 55.261 18.8468 55.2179C18.5451 55.0832 18.4966 55.3473 18.4966 55.5144L18.7175 63.1301C18.7391 63.4804 18.9276 63.7499 19.1 63.8577Z" fill="url(#paint44_linear_31_1304)"/>
<path d="M17.2093 62.6828C17.2794 62.7313 17.3493 62.7798 17.4248 62.8229C17.721 62.9739 17.7534 62.672 17.7534 62.5373L17.5326 54.9215C17.5111 54.6197 17.3709 54.3341 17.1716 54.1832C17.1016 54.1346 17.0262 54.0915 16.9562 54.043C16.6761 53.8975 16.6329 54.1616 16.6329 54.3287L16.8539 61.9444C16.8754 62.3001 17.0477 62.5696 17.2093 62.6828Z" fill="url(#paint45_linear_31_1304)"/>
<path d="M15.4587 61.4431C15.5234 61.4916 15.5935 61.5401 15.6581 61.594C15.9328 61.7557 15.9651 61.4484 15.9651 61.3137L15.7442 53.698C15.7335 53.5255 15.6742 53.1914 15.4102 52.9488C15.3456 52.9003 15.2756 52.8518 15.211 52.7979C14.9524 52.647 14.9147 52.9111 14.9147 53.0728L15.1355 60.6885C15.1624 61.0442 15.3187 61.3245 15.4641 61.4377L15.4587 61.4431Z" fill="url(#paint46_linear_31_1304)"/>
<path d="M13.8481 60.1496C13.9074 60.2035 13.9667 60.2574 14.0313 60.3059C14.2845 60.4729 14.3114 60.1765 14.3114 60.0418L14.0905 52.4206C14.0797 52.2482 14.0258 51.914 13.7834 51.6661C13.7242 51.6176 13.665 51.5637 13.6058 51.5098C13.3687 51.3481 13.3364 51.6068 13.3364 51.7739L13.5572 59.3896C13.5788 59.7454 13.7243 60.0256 13.8589 60.1442L13.8481 60.1496Z" fill="url(#paint47_linear_31_1304)"/>
<path d="M12.3937 58.8075C12.4476 58.8614 12.5015 58.9153 12.5553 58.9692C12.7923 59.1524 12.8085 58.8183 12.8031 58.7105L12.5822 51.0948C12.5714 50.9169 12.5229 50.5881 12.302 50.3294C12.2482 50.2809 12.1944 50.227 12.1405 50.1677C11.9251 49.9952 11.898 50.2917 11.9034 50.4264L12.1244 58.0422C12.1459 58.3979 12.2752 58.6835 12.3991 58.8129L12.3937 58.8075Z" fill="url(#paint48_linear_31_1304)"/>
<path d="M11.0847 57.4169C11.1331 57.4708 11.187 57.5247 11.2301 57.584C11.3702 57.7079 11.4511 57.6163 11.4511 57.3361L11.2247 49.7204C11.2086 49.4185 11.1116 49.1167 10.9716 48.9442C10.9231 48.8903 10.8746 48.8364 10.8315 48.7771C10.6376 48.5939 10.6161 48.8903 10.6161 49.0197L10.8369 56.6354C10.8531 56.9911 10.9717 57.2822 11.074 57.4169H11.0847Z" fill="url(#paint49_linear_31_1304)"/>
<path d="M9.94822 55.9725C9.98592 56.0318 10.0344 56.0857 10.0721 56.145C10.0936 56.1719 10.1367 56.1935 10.169 56.2097C10.2175 56.1827 10.2661 56.1558 10.2661 55.9025L10.0397 48.2867C10.0236 47.9849 9.93745 47.6777 9.81894 47.5052C9.77585 47.4459 9.73276 47.3867 9.68966 47.3328C9.66812 47.3058 9.63045 47.2789 9.59813 47.2627C9.54965 47.2896 9.50647 47.3166 9.50647 47.5699L9.7328 55.1856C9.74896 55.5467 9.85125 55.8432 9.94282 55.9725H9.94822Z" fill="url(#paint50_linear_31_1304)"/>
<path d="M8.97842 54.4902C9.01613 54.5495 9.04842 54.6088 9.08613 54.6681C9.10229 54.6951 9.14005 54.722 9.14005 54.722C9.22085 54.6896 9.24776 54.6681 9.24776 54.4363L9.02695 46.8206C9.01079 46.5188 8.93532 46.2062 8.83836 46.0283C8.80604 45.9744 8.76837 45.9151 8.73605 45.8558C8.7145 45.8289 8.68762 45.7965 8.6553 45.7858C8.60682 45.8343 8.58521 45.8558 8.58521 46.0876L8.80601 53.7033C8.82217 54.0644 8.9084 54.3609 8.98382 54.501L8.97842 54.4902Z" fill="url(#paint51_linear_31_1304)"/>
<path d="M8.1811 52.965C8.20804 53.0243 8.23492 53.0836 8.26724 53.1428C8.2834 53.1698 8.30501 53.2021 8.33195 53.2237C8.37504 53.1752 8.39651 53.1536 8.39113 52.9219L8.17032 45.3062C8.15416 45.0097 8.10028 44.6971 8.01948 44.5085C7.99254 44.4492 7.96027 44.3899 7.93334 44.3252C7.91718 44.2983 7.89018 44.2659 7.86324 44.2498C7.83092 44.3198 7.81485 44.3414 7.82024 44.5462L8.04105 52.1619C8.05721 52.523 8.12724 52.8248 8.1865 52.965H8.1811Z" fill="url(#paint52_linear_31_1304)"/>
<path d="M7.56194 51.3966C7.58349 51.4612 7.60497 51.5205 7.62652 51.5852C7.62652 51.5852 7.65889 51.6445 7.68043 51.666C7.70737 51.596 7.72356 51.5744 7.71279 51.3696L7.49185 43.7539C7.48107 43.4521 7.43261 43.1395 7.37336 42.94C7.35181 42.8807 7.33021 42.8214 7.31405 42.7568L7.298 42.7244L7.26026 42.7029C7.22794 42.7891 7.22791 42.8861 7.22791 42.9724L7.44871 50.5881C7.46487 50.9546 7.51346 51.2564 7.56194 51.3966Z" fill="url(#paint53_linear_31_1304)"/>
<path d="M7.13095 49.7959C7.14173 49.8605 7.15792 49.9198 7.1687 49.9845L7.17935 50.0384L7.21709 50.0115C7.22248 49.936 7.22248 49.8552 7.21709 49.7797L6.99628 42.164C6.98551 41.8298 6.94772 41.5172 6.91001 41.3501C6.89385 41.2854 6.88317 41.2208 6.86701 41.1615L6.85083 41.113C6.82929 41.1489 6.81848 41.2351 6.81848 41.3717L7.03942 48.9874C7.05019 49.3539 7.08784 49.6611 7.11478 49.8013L7.13095 49.7959Z" fill="url(#paint54_linear_31_1304)"/>
<path d="M6.88847 48.1681C6.89385 48.2274 6.90464 48.2921 6.90464 48.3621V48.4107C6.91901 48.3747 6.92608 48.2903 6.92608 48.1573L6.69988 40.5416C6.68911 40.2667 6.67829 39.9919 6.65135 39.717C6.64597 39.6523 6.6353 39.5876 6.62992 39.5229V39.4691C6.61376 39.5553 6.61914 39.6415 6.62452 39.7278L6.85072 47.3435C6.85072 47.6184 6.86153 47.8932 6.88847 48.1627V48.1681Z" fill="url(#paint55_linear_31_1304)"/>
<path d="M59.7588 7.43768C89.6065 6.56454 114.154 17.9639 114.59 32.8935C115.026 47.8285 91.1847 60.6399 61.3371 61.5131C31.4948 62.3862 6.94222 50.9923 6.5059 36.0573C6.06957 21.1223 29.9057 8.31082 59.7534 7.43768H59.7588Z" fill="#D58902"/>
<path d="M114.601 33.0715C115.054 48.621 91.2285 61.9337 61.3862 62.8122C31.544 63.6853 6.97519 51.7901 6.51733 36.2353C6.06484 20.6859 29.8902 7.37319 59.7379 6.49466C89.5855 5.62152 114.149 17.5221 114.601 33.0715Z" fill="url(#paint56_linear_31_1304)"/>
<path d="M113.901 32.3923C114.342 47.5536 90.8832 60.543 61.4988 61.4053C32.1143 62.2677 7.93347 50.6689 7.49176 35.5076C7.04466 20.3408 30.5091 7.35147 59.8935 6.4891C89.2779 5.62674 113.453 17.2255 113.901 32.3923Z" fill="#FEF27A"/>
<path d="M101.113 32.5162C101.452 44.2767 83.6274 54.334 61.2888 54.9915C38.9501 55.6491 20.5654 46.6482 20.2206 34.8877C19.8759 23.1273 37.7058 13.07 60.0444 12.4125C82.383 11.7549 100.768 20.7558 101.113 32.5162Z" fill="url(#paint57_linear_31_1304)"/>
<path d="M99.4964 33.4379C99.825 44.7133 82.6576 54.3663 61.1485 54.9969C39.6395 55.6221 21.9387 46.9931 21.6047 35.7178C21.2761 24.4424 38.4436 14.7894 59.9527 14.1588C81.4618 13.5282 99.1624 22.1572 99.491 33.4325L99.4964 33.4379Z" fill="#FFD83B"/>
<path d="M74.0767 36.7742C73.7266 36.1112 73.1232 35.513 72.2937 34.9686C71.4587 34.4296 70.3329 33.9284 68.9054 33.4756C67.4887 33.0229 65.695 32.5755 63.5349 32.1498C62.1829 31.8857 61.0947 31.6485 60.2706 31.4491C59.441 31.2497 58.7947 31.061 58.326 30.8886C57.8574 30.7161 57.5504 30.5544 57.3995 30.4035C57.2487 30.2526 57.1678 30.1124 57.1624 29.9669C57.157 29.7082 57.3564 29.4603 57.7712 29.2285C58.186 28.9914 58.8754 28.8566 59.8396 28.8297C61.6872 28.7758 62.7 29.525 62.867 31.0772C69.7512 29.2016 73.3387 28.2584 73.635 28.2476C72.2883 25.4772 68.9863 23.8873 63.7127 23.4777L63.6211 20.3624L55.8751 20.5887L55.9612 23.6663C52.6484 24.1406 50.1759 24.9868 48.5275 26.1995C46.8846 27.4176 46.0874 28.9105 46.1359 30.6784C46.1574 31.503 46.346 32.2414 46.7015 32.8935C47.0624 33.5403 47.7089 34.1548 48.6515 34.7261C49.5942 35.2974 50.8816 35.8418 52.5138 36.3484C54.1459 36.855 56.2736 37.367 58.8969 37.8737C60.3783 38.1593 61.4987 38.418 62.2636 38.6444C63.0231 38.8654 63.4164 39.1349 63.4272 39.4421C63.438 39.7709 63.1362 40.0296 62.5329 40.2128C61.9296 40.3961 61.2671 40.4985 60.5561 40.5201C58.2829 40.5847 57.1355 39.938 57.0925 38.569L46.1952 41.1884C47.585 44.2605 51.0647 46.0014 56.6291 46.4057L56.71 49.0197L64.4614 48.7933L64.3807 46.1038C67.7743 45.6026 70.3436 44.7726 72.0997 43.6138C73.8504 42.455 74.7015 40.9189 74.6476 39.0055C74.6207 38.1809 74.4268 37.4317 74.0713 36.7742H74.0767Z" fill="url(#paint58_linear_31_1304)"/>
<path d="M74.0226 35.0278C73.6725 34.3649 73.0745 33.7612 72.2396 33.2222C71.3993 32.6833 70.2735 32.182 68.8461 31.7239C67.4294 31.2712 65.6409 30.8292 63.4808 30.398C62.1288 30.1285 61.0353 29.8968 60.2112 29.6973C59.3816 29.4925 58.7352 29.3093 58.2665 29.1368C57.7979 28.959 57.4962 28.7973 57.34 28.6517C57.1892 28.5008 57.1138 28.3553 57.1084 28.2152C57.1031 27.9565 57.3077 27.7085 57.7225 27.4714C58.1319 27.2342 58.8268 27.1049 59.791 27.0725C61.6386 27.0186 62.6513 27.7678 62.8183 29.3201C69.7025 27.4444 73.29 26.4958 73.5863 26.4904C72.245 23.7201 68.9376 22.1301 63.6694 21.7205L63.5779 18.6052L55.8263 18.8316L55.9126 21.9038C52.6052 22.378 50.1273 23.2243 48.4789 24.4423C46.836 25.655 46.0388 27.148 46.0873 28.9212C46.1142 29.7459 46.2973 30.4842 46.6582 31.1364C47.0137 31.7886 47.6602 32.3976 48.6028 32.9743C49.5455 33.551 50.8329 34.0846 52.4651 34.5966C54.0972 35.1033 56.225 35.6153 58.8483 36.1273C60.3297 36.413 61.4501 36.6663 62.215 36.8981C62.9853 37.1244 63.3677 37.3885 63.3785 37.6958C63.3893 38.0245 63.0877 38.2832 62.4844 38.4665C61.881 38.6497 61.2184 38.7468 60.5073 38.7683C58.2395 38.833 57.0868 38.1862 57.0491 36.8172L46.1465 39.4366C47.5362 42.5142 51.0161 44.2497 56.5859 44.6539L56.6613 47.2733L64.4127 47.047L64.332 44.3629C67.7256 43.8616 70.2951 43.0316 72.0511 41.8728C73.8018 40.7086 74.6529 39.1725 74.5936 37.2646C74.5721 36.4345 74.3781 35.6962 74.0172 35.0332L74.0226 35.0278Z" fill="#FEF27A"/>
<path style="mix-blend-mode:color-dodge" d="M29.4749 59.147C28.3868 59.7291 22.4614 56.9372 16.2398 52.9218C10.0181 48.9011 5.85422 45.1767 6.94234 44.6C8.03045 44.0233 13.9558 46.8098 20.1775 50.8252C26.4045 54.846 30.563 58.5757 29.4749 59.1524V59.147Z" fill="url(#paint59_radial_31_1304)"/>
<path style="mix-blend-mode:color-dodge" d="M101.069 25.7844C99.9812 26.3611 94.0559 23.5746 87.8289 19.5538C81.6073 15.5385 77.4433 11.8088 78.5314 11.2321C79.6196 10.6554 85.5448 13.4419 91.7665 17.4572C97.9881 21.4726 102.152 25.2023 101.064 25.7844H101.069Z" fill="url(#paint60_radial_31_1304)"/>
<g style="mix-blend-mode:screen" opacity="0.8">
<path d="M59.8935 6.48907C30.5091 7.35143 7.04466 20.3407 7.49176 35.5075C7.93347 50.6743 32.1143 62.2676 61.4988 61.4053C90.8832 60.5429 114.342 47.5536 113.901 32.3922C113.453 17.2255 89.2779 5.6321 59.8935 6.48907ZM61.2887 54.9915C38.9501 55.649 20.5653 46.6481 20.2206 34.8877C19.8758 23.1272 37.7058 13.07 60.0444 12.4124C82.383 11.7549 100.768 20.7557 101.113 32.5162C101.452 44.2766 83.6273 54.3339 61.2887 54.9915Z" fill="url(#paint61_linear_31_1304)"/>
<path d="M72.2452 33.2222C71.4049 32.6833 70.2792 32.182 68.8517 31.7239C67.435 31.2712 65.6411 30.8292 63.4864 30.398C62.1344 30.1285 61.041 29.8968 60.2168 29.6973C59.3872 29.4925 58.7408 29.3093 58.2721 29.1368C57.8035 28.959 57.5019 28.7973 57.3456 28.6517C57.1948 28.5008 57.1194 28.3553 57.1141 28.2152C57.1087 27.9565 57.3133 27.7085 57.7281 27.4714C58.1375 27.2342 58.8324 27.1049 59.7966 27.0725C61.6443 27.0186 62.6569 27.7678 62.8239 29.3201C69.7081 27.4444 73.2956 26.4958 73.5919 26.4904C72.2506 23.7201 68.9432 22.1301 63.675 21.7205L63.5835 18.6052L55.832 18.8316L55.9182 21.9038C52.6108 22.378 50.1329 23.2243 48.4846 24.4423C46.8416 25.655 46.0444 27.148 46.0929 28.9212C46.1198 29.7459 46.3029 30.4842 46.6638 31.1364C47.0193 31.7886 47.6658 32.3976 48.6084 32.9743C49.5511 33.551 50.8385 34.0846 52.4707 34.5966C54.1028 35.1033 56.2306 35.6153 58.854 36.1273C60.3353 36.413 61.4557 36.6663 62.2206 36.8981C62.9909 37.1244 63.3733 37.3885 63.3841 37.6958C63.3949 38.0245 63.0933 38.2832 62.49 38.4665C61.8867 38.6497 61.224 38.7468 60.513 38.7683C58.2452 38.833 57.0925 38.1862 57.0547 36.8172L46.1521 39.4366C47.5419 42.5142 51.0217 44.2497 56.5916 44.6539L56.6669 47.2733L64.4183 47.047L64.3376 44.3629C67.7312 43.8616 70.3007 43.0316 72.0567 41.8728C73.8074 40.7086 74.6585 39.1779 74.5992 37.2646C74.5777 36.4345 74.3837 35.6962 74.0228 35.0332C73.6727 34.3703 73.0747 33.7666 72.2398 33.2276L72.2452 33.2222Z" fill="url(#paint62_linear_31_1304)"/>
</g>
<path style="mix-blend-mode:screen" opacity="0.8" d="M60.0928 14.1588C38.5838 14.7894 21.4163 24.437 21.7449 35.7124C22.0735 46.9931 39.7742 55.6167 61.2833 54.9861C82.7923 54.3555 99.9597 44.7079 99.6311 33.4325C99.3025 22.1572 81.6019 13.5282 60.0928 14.1588ZM72.1051 43.6138C70.349 44.778 67.7796 45.6134 64.386 46.1146L64.4668 48.8149L56.7154 49.0413L56.6399 46.4111C51.07 46.0014 47.5903 44.2498 46.2005 41.1614L57.0978 38.5258C57.1409 39.9056 58.2936 40.5578 60.5614 40.4931C61.2725 40.4716 61.935 40.3745 62.5383 40.1859C63.147 40.0026 63.4433 39.7439 63.438 39.4152C63.4272 39.108 63.0393 38.8384 62.269 38.6121C61.5094 38.3857 60.389 38.127 58.9077 37.8359C56.2843 37.3239 54.1567 36.8065 52.5191 36.2999C50.887 35.7878 49.5994 35.2435 48.6568 34.6668C47.7141 34.0901 47.0678 33.4702 46.7122 32.8181C46.3513 32.1659 46.1682 31.4221 46.1466 30.5921C46.0928 28.8135 46.8899 27.3152 48.5329 26.0917C50.1812 24.8682 52.6591 24.022 55.9719 23.5423L55.8804 20.4486L63.6318 20.2222L63.7235 23.3483C68.9917 23.7633 72.299 25.3641 73.6403 28.1452C73.3494 28.156 69.7565 29.1046 62.8777 30.9856C62.7107 29.4279 61.6926 28.6734 59.8503 28.7273C58.8807 28.7542 58.1913 28.889 57.7765 29.1207C57.3618 29.3633 57.157 29.6058 57.1678 29.8699C57.1678 30.01 57.2487 30.1556 57.4049 30.3065C57.5557 30.4574 57.8681 30.6137 58.3314 30.7969C58.8 30.9694 59.4464 31.1635 60.2759 31.3629C61.1001 31.5677 62.1936 31.7994 63.5457 32.0635C65.7057 32.5001 67.4941 32.9475 68.9108 33.4056C70.3329 33.8583 71.4641 34.3649 72.3044 34.9093C73.134 35.4537 73.7319 36.0573 74.0875 36.7257C74.443 37.3886 74.6368 38.1378 74.6637 38.9678C74.7176 40.8866 73.8719 42.4334 72.1158 43.5976L72.1051 43.6138Z" fill="url(#paint63_linear_31_1304)"/>
</g>
<defs>
<filter id="filter0_f_31_1304" x="0.5" y="0.44397" width="120.5" height="80.6768" filterUnits="userSpaceOnUse" color-interpolation-filters="sRGB">
<feFlood flood-opacity="0" result="BackgroundImageFix"/>
<feBlend mode="normal" in="SourceGraphic" in2="BackgroundImageFix" result="shape"/>
<feGaussianBlur stdDeviation="3" result="effect1_foregroundBlur_31_1304"/>
</filter>
<linearGradient id="paint0_linear_31_1304" x1="7.04301" y1="56.4043" x2="115.124" y2="53.255" gradientUnits="userSpaceOnUse">
<stop stop-color="#B14810"/>
<stop offset="0.03" stop-color="#BD5E0B"/>
<stop offset="0.11" stop-color="#D58902"/>
<stop offset="0.31" stop-color="#A43001"/>
<stop offset="0.51" stop-color="#AF4615"/>
<stop offset="0.66" stop-color="#BA5A28"/>
<stop offset="1" stop-color="#BF6221"/>
</linearGradient>
<linearGradient id="paint1_linear_31_1304" x1="7.03247" y1="55.8654" x2="115.108" y2="52.7162" gradientUnits="userSpaceOnUse">
<stop stop-color="#BF6221"/>
<stop offset="0.13" stop-color="#AF460F"/>
<stop offset="0.26" stop-color="#A43001"/>
<stop offset="0.46" stop-color="#BA5A28"/>
<stop offset="0.58" stop-color="#D58902"/>
<stop offset="0.69" stop-color="#FFD83B"/>
<stop offset="0.77" stop-color="#FEF27A"/>
<stop offset="0.82" stop-color="#F8E055"/>
<stop offset="0.92" stop-color="#EDB905"/>
<stop offset="0.95" stop-color="#D68E09"/>
<stop offset="1" stop-color="#B14810"/>
</linearGradient>
<linearGradient id="paint2_linear_31_1304" x1="114.713" y1="40.4411" x2="5.833" y2="41.4648" gradientUnits="userSpaceOnUse">
<stop stop-color="#B14810"/>
<stop offset="0.25" stop-color="#BA5A28"/>
<stop offset="0.45" stop-color="#B85625"/>
<stop offset="0.71" stop-color="#A43001"/>
<stop offset="0.84" stop-color="#D68E03"/>
<stop offset="0.91" stop-color="#EDB905"/>
<stop offset="0.94" stop-color="#E1A20C"/>
<stop offset="0.99" stop-color="#C3691E"/>
<stop offset="1" stop-color="#BF6221"/>
</linearGradient>
<linearGradient id="paint3_linear_31_1304" x1="114.729" y1="42.0853" x2="6.33035" y2="43.1055" gradientUnits="userSpaceOnUse">
<stop stop-color="#B14810"/>
<stop offset="0.25" stop-color="#BA5A28"/>
<stop offset="0.45" stop-color="#B85625"/>
<stop offset="0.71" stop-color="#A43001"/>
<stop offset="0.84" stop-color="#D68E03"/>
<stop offset="0.91" stop-color="#EDB905"/>
<stop offset="0.94" stop-color="#E1A20C"/>
<stop offset="0.99" stop-color="#C3691E"/>
<stop offset="1" stop-color="#BF6221"/>
</linearGradient>
<linearGradient id="paint4_linear_31_1304" x1="114.738" y1="43.7134" x2="6.78649" y2="44.7262" gradientUnits="userSpaceOnUse">
<stop stop-color="#B14810"/>
<stop offset="0.25" stop-color="#BA5A28"/>
<stop offset="0.45" stop-color="#B85625"/>
<stop offset="0.71" stop-color="#A43001"/>
<stop offset="0.84" stop-color="#D68E03"/>
<stop offset="0.91" stop-color="#EDB905"/>
<stop offset="0.94" stop-color="#E1A20C"/>
<stop offset="0.99" stop-color="#C3691E"/>
<stop offset="1" stop-color="#BF6221"/>
</linearGradient>
<linearGradient id="paint5_linear_31_1304" x1="114.752" y1="45.309" x2="7.05207" y2="46.3199" gradientUnits="userSpaceOnUse">
<stop stop-color="#B14810"/>
<stop offset="0.25" stop-color="#BA5A28"/>
<stop offset="0.45" stop-color="#B85625"/>
<stop offset="0.71" stop-color="#A43001"/>
<stop offset="0.84" stop-color="#D68E03"/>
<stop offset="0.91" stop-color="#EDB905"/>
<stop offset="0.94" stop-color="#E1A20C"/>
<stop offset="0.99" stop-color="#C3691E"/>
<stop offset="1" stop-color="#BF6221"/>
</linearGradient>
<linearGradient id="paint6_linear_31_1304" x1="114.771" y1="46.8776" x2="6.68756" y2="47.8941" gradientUnits="userSpaceOnUse">
<stop stop-color="#B14810"/>
<stop offset="0.25" stop-color="#BA5A28"/>
<stop offset="0.45" stop-color="#B85625"/>
<stop offset="0.71" stop-color="#A43001"/>
<stop offset="0.84" stop-color="#D68E03"/>
<stop offset="0.91" stop-color="#EDB905"/>
<stop offset="0.94" stop-color="#E1A20C"/>
<stop offset="0.99" stop-color="#C3691E"/>
<stop offset="1" stop-color="#BF6221"/>
</linearGradient>
<linearGradient id="paint7_linear_31_1304" x1="114.789" y1="48.4137" x2="6.32004" y2="49.4308" gradientUnits="userSpaceOnUse">
<stop stop-color="#B14810"/>
<stop offset="0.25" stop-color="#BA5A28"/>
<stop offset="0.45" stop-color="#B85625"/>
<stop offset="0.71" stop-color="#A43001"/>
<stop offset="0.84" stop-color="#D68E03"/>
<stop offset="0.91" stop-color="#EDB905"/>
<stop offset="0.94" stop-color="#E1A20C"/>
<stop offset="0.99" stop-color="#C3691E"/>
<stop offset="1" stop-color="#BF6221"/>
</linearGradient>
<linearGradient id="paint8_linear_31_1304" x1="114.806" y1="49.9177" x2="6.38247" y2="50.9334" gradientUnits="userSpaceOnUse">
<stop stop-color="#B14810"/>
<stop offset="0.25" stop-color="#BA5A28"/>
<stop offset="0.45" stop-color="#B85625"/>
<stop offset="0.71" stop-color="#A43001"/>
<stop offset="0.84" stop-color="#D68E03"/>
<stop offset="0.91" stop-color="#EDB905"/>
<stop offset="0.94" stop-color="#E1A20C"/>
<stop offset="0.99" stop-color="#C3691E"/>
<stop offset="1" stop-color="#BF6221"/>
</linearGradient>
<linearGradient id="paint9_linear_31_1304" x1="114.822" y1="51.3838" x2="6.41461" y2="52.399" gradientUnits="userSpaceOnUse">
<stop stop-color="#B14810"/>
<stop offset="0.25" stop-color="#BA5A28"/>
<stop offset="0.45" stop-color="#B85625"/>
<stop offset="0.71" stop-color="#A43001"/>
<stop offset="0.84" stop-color="#D68E03"/>
<stop offset="0.91" stop-color="#EDB905"/>
<stop offset="0.94" stop-color="#E1A20C"/>
<stop offset="0.99" stop-color="#C3691E"/>
<stop offset="1" stop-color="#BF6221"/>
</linearGradient>
<linearGradient id="paint10_linear_31_1304" x1="114.863" y1="52.8008" x2="5.98346" y2="53.8244" gradientUnits="userSpaceOnUse">
<stop stop-color="#B14810"/>
<stop offset="0.25" stop-color="#BA5A28"/>
<stop offset="0.45" stop-color="#B85625"/>
<stop offset="0.71" stop-color="#A43001"/>
<stop offset="0.84" stop-color="#D68E03"/>
<stop offset="0.91" stop-color="#EDB905"/>
<stop offset="0.94" stop-color="#E1A20C"/>
<stop offset="0.99" stop-color="#C3691E"/>
<stop offset="1" stop-color="#BF6221"/>
</linearGradient>
<linearGradient id="paint11_linear_31_1304" x1="114.854" y1="54.1814" x2="6.40135" y2="55.198" gradientUnits="userSpaceOnUse">
<stop stop-color="#B14810"/>
<stop offset="0.25" stop-color="#BA5A28"/>
<stop offset="0.45" stop-color="#B85625"/>
<stop offset="0.71" stop-color="#A43001"/>
<stop offset="0.84" stop-color="#D68E03"/>
<stop offset="0.91" stop-color="#EDB905"/>
<stop offset="0.94" stop-color="#E1A20C"/>
<stop offset="0.99" stop-color="#C3691E"/>
<stop offset="1" stop-color="#BF6221"/>
</linearGradient>
<linearGradient id="paint12_linear_31_1304" x1="114.856" y1="55.5132" x2="6.58933" y2="56.5297" gradientUnits="userSpaceOnUse">
<stop stop-color="#B14810"/>
<stop offset="0.25" stop-color="#BA5A28"/>
<stop offset="0.45" stop-color="#B85625"/>
<stop offset="0.71" stop-color="#A43001"/>
<stop offset="0.84" stop-color="#D68E03"/>
<stop offset="0.91" stop-color="#EDB905"/>
<stop offset="0.94" stop-color="#E1A20C"/>
<stop offset="0.99" stop-color="#C3691E"/>
<stop offset="1" stop-color="#BF6221"/>
</linearGradient>
<linearGradient id="paint13_linear_31_1304" x1="114.865" y1="56.7908" x2="6.57864" y2="57.808" gradientUnits="userSpaceOnUse">
<stop stop-color="#B14810"/>
<stop offset="0.25" stop-color="#BA5A28"/>
<stop offset="0.45" stop-color="#B85625"/>
<stop offset="0.71" stop-color="#A43001"/>
<stop offset="0.84" stop-color="#D68E03"/>
<stop offset="0.91" stop-color="#EDB905"/>
<stop offset="0.94" stop-color="#E1A20C"/>
<stop offset="0.99" stop-color="#C3691E"/>
<stop offset="1" stop-color="#BF6221"/>
</linearGradient>
<linearGradient id="paint14_linear_31_1304" x1="114.864" y1="58.0202" x2="6.68947" y2="59.0341" gradientUnits="userSpaceOnUse">
<stop stop-color="#B14810"/>
<stop offset="0.25" stop-color="#BA5A28"/>
<stop offset="0.45" stop-color="#B85625"/>
<stop offset="0.71" stop-color="#A43001"/>
<stop offset="0.84" stop-color="#D68E03"/>
<stop offset="0.91" stop-color="#EDB905"/>
<stop offset="0.94" stop-color="#E1A20C"/>
<stop offset="0.99" stop-color="#C3691E"/>
<stop offset="1" stop-color="#BF6221"/>
</linearGradient>
<linearGradient id="paint15_linear_31_1304" x1="114.926" y1="59.1886" x2="6.37393" y2="60.208" gradientUnits="userSpaceOnUse">
<stop stop-color="#B14810"/>
<stop offset="0.25" stop-color="#BA5A28"/>
<stop offset="0.45" stop-color="#B85625"/>
<stop offset="0.71" stop-color="#A43001"/>
<stop offset="0.84" stop-color="#D68E03"/>
<stop offset="0.91" stop-color="#EDB905"/>
<stop offset="0.94" stop-color="#E1A20C"/>
<stop offset="0.99" stop-color="#C3691E"/>
<stop offset="1" stop-color="#BF6221"/>
</linearGradient>
<linearGradient id="paint16_linear_31_1304" x1="114.932" y1="60.3045" x2="6.4615" y2="61.3215" gradientUnits="userSpaceOnUse">
<stop stop-color="#B14810"/>
<stop offset="0.25" stop-color="#BA5A28"/>
<stop offset="0.45" stop-color="#B85625"/>
<stop offset="0.71" stop-color="#A43001"/>
<stop offset="0.84" stop-color="#D68E03"/>
<stop offset="0.91" stop-color="#EDB905"/>
<stop offset="0.94" stop-color="#E1A20C"/>
<stop offset="0.99" stop-color="#C3691E"/>
<stop offset="1" stop-color="#BF6221"/>
</linearGradient>
<linearGradient id="paint17_linear_31_1304" x1="114.903" y1="61.3514" x2="6.6595" y2="62.3726" gradientUnits="userSpaceOnUse">
<stop stop-color="#B14810"/>
<stop offset="0.25" stop-color="#BA5A28"/>
<stop offset="0.45" stop-color="#B85625"/>
<stop offset="0.71" stop-color="#A43001"/>
<stop offset="0.84" stop-color="#D68E03"/>
<stop offset="0.91" stop-color="#EDB905"/>
<stop offset="0.94" stop-color="#E1A20C"/>
<stop offset="0.99" stop-color="#C3691E"/>
<stop offset="1" stop-color="#BF6221"/>
</linearGradient>
<linearGradient id="paint18_linear_31_1304" x1="114.93" y1="62.3373" x2="6.59589" y2="63.3559" gradientUnits="userSpaceOnUse">
<stop stop-color="#B14810"/>
<stop offset="0.25" stop-color="#BA5A28"/>
<stop offset="0.45" stop-color="#B85625"/>
<stop offset="0.71" stop-color="#A43001"/>
<stop offset="0.84" stop-color="#D68E03"/>
<stop offset="0.91" stop-color="#EDB905"/>
<stop offset="0.94" stop-color="#E1A20C"/>
<stop offset="0.99" stop-color="#C3691E"/>
<stop offset="1" stop-color="#BF6221"/>
</linearGradient>
<linearGradient id="paint19_linear_31_1304" x1="114.92" y1="63.2596" x2="6.67899" y2="64.2754" gradientUnits="userSpaceOnUse">
<stop stop-color="#B14810"/>
<stop offset="0.25" stop-color="#BA5A28"/>
<stop offset="0.45" stop-color="#B85625"/>
<stop offset="0.71" stop-color="#A43001"/>
<stop offset="0.84" stop-color="#D68E03"/>
<stop offset="0.91" stop-color="#EDB905"/>
<stop offset="0.94" stop-color="#E1A20C"/>
<stop offset="0.99" stop-color="#C3691E"/>
<stop offset="1" stop-color="#BF6221"/>
</linearGradient>
<linearGradient id="paint20_linear_31_1304" x1="114.943" y1="64.1055" x2="6.63308" y2="65.1233" gradientUnits="userSpaceOnUse">
<stop stop-color="#B14810"/>
<stop offset="0.25" stop-color="#BA5A28"/>
<stop offset="0.45" stop-color="#B85625"/>
<stop offset="0.71" stop-color="#A43001"/>
<stop offset="0.84" stop-color="#D68E03"/>
<stop offset="0.91" stop-color="#EDB905"/>
<stop offset="0.94" stop-color="#E1A20C"/>
<stop offset="0.99" stop-color="#C3691E"/>
<stop offset="1" stop-color="#BF6221"/>
</linearGradient>
<linearGradient id="paint21_linear_31_1304" x1="114.988" y1="64.8806" x2="6.54481" y2="65.8969" gradientUnits="userSpaceOnUse">
<stop stop-color="#B14810"/>
<stop offset="0.25" stop-color="#BA5A28"/>
<stop offset="0.45" stop-color="#B85625"/>
<stop offset="0.71" stop-color="#A43001"/>
<stop offset="0.84" stop-color="#D68E03"/>
<stop offset="0.91" stop-color="#EDB905"/>
<stop offset="0.94" stop-color="#E1A20C"/>
<stop offset="0.99" stop-color="#C3691E"/>
<stop offset="1" stop-color="#BF6221"/>
</linearGradient>
<linearGradient id="paint22_linear_31_1304" x1="114.917" y1="65.5783" x2="6.74098" y2="66.5922" gradientUnits="userSpaceOnUse">
<stop stop-color="#B14810"/>
<stop offset="0.25" stop-color="#BA5A28"/>
<stop offset="0.45" stop-color="#B85625"/>
<stop offset="0.71" stop-color="#A43001"/>
<stop offset="0.84" stop-color="#D68E03"/>
<stop offset="0.91" stop-color="#EDB905"/>
<stop offset="0.94" stop-color="#E1A20C"/>
<stop offset="0.99" stop-color="#C3691E"/>
<stop offset="1" stop-color="#BF6221"/>
</linearGradient>
<linearGradient id="paint23_linear_31_1304" x1="114.963" y1="66.197" x2="6.66041" y2="67.2146" gradientUnits="userSpaceOnUse">
<stop stop-color="#B14810"/>
<stop offset="0.25" stop-color="#BA5A28"/>
<stop offset="0.45" stop-color="#B85625"/>
<stop offset="0.71" stop-color="#A43001"/>
<stop offset="0.84" stop-color="#D68E03"/>
<stop offset="0.91" stop-color="#EDB905"/>
<stop offset="0.94" stop-color="#E1A20C"/>
<stop offset="0.99" stop-color="#C3691E"/>
<stop offset="1" stop-color="#BF6221"/>
</linearGradient>
<linearGradient id="paint24_linear_31_1304" x1="114.956" y1="66.7311" x2="6.69053" y2="67.7476" gradientUnits="userSpaceOnUse">
<stop stop-color="#B14810"/>
<stop offset="0.25" stop-color="#BA5A28"/>
<stop offset="0.45" stop-color="#B85625"/>
<stop offset="0.71" stop-color="#A43001"/>
<stop offset="0.84" stop-color="#D68E03"/>
<stop offset="0.91" stop-color="#EDB905"/>
<stop offset="0.94" stop-color="#E1A20C"/>
<stop offset="0.99" stop-color="#C3691E"/>
<stop offset="1" stop-color="#BF6221"/>
</linearGradient>
<linearGradient id="paint25_linear_31_1304" x1="114.98" y1="67.1779" x2="6.65919" y2="68.196" gradientUnits="userSpaceOnUse">
<stop stop-color="#B14810"/>
<stop offset="0.25" stop-color="#BA5A28"/>
<stop offset="0.45" stop-color="#B85625"/>
<stop offset="0.71" stop-color="#A43001"/>
<stop offset="0.84" stop-color="#D68E03"/>
<stop offset="0.91" stop-color="#EDB905"/>
<stop offset="0.94" stop-color="#E1A20C"/>
<stop offset="0.99" stop-color="#C3691E"/>
<stop offset="1" stop-color="#BF6221"/>
</linearGradient>
<linearGradient id="paint26_linear_31_1304" x1="115.035" y1="67.543" x2="6.59279" y2="68.5593" gradientUnits="userSpaceOnUse">
<stop stop-color="#B14810"/>
<stop offset="0.25" stop-color="#BA5A28"/>
<stop offset="0.45" stop-color="#B85625"/>
<stop offset="0.71" stop-color="#A43001"/>
<stop offset="0.84" stop-color="#D68E03"/>
<stop offset="0.91" stop-color="#EDB905"/>
<stop offset="0.94" stop-color="#E1A20C"/>
<stop offset="0.99" stop-color="#C3691E"/>
<stop offset="1" stop-color="#BF6221"/>
</linearGradient>
<linearGradient id="paint27_linear_31_1304" x1="114.979" y1="67.8089" x2="6.68078" y2="68.8263" gradientUnits="userSpaceOnUse">
<stop stop-color="#B14810"/>
<stop offset="0.25" stop-color="#BA5A28"/>
<stop offset="0.45" stop-color="#B85625"/>
<stop offset="0.71" stop-color="#A43001"/>
<stop offset="0.84" stop-color="#D68E03"/>
<stop offset="0.91" stop-color="#EDB905"/>
<stop offset="0.94" stop-color="#E1A20C"/>
<stop offset="0.99" stop-color="#C3691E"/>
<stop offset="1" stop-color="#BF6221"/>
</linearGradient>
<linearGradient id="paint28_linear_31_1304" x1="114.995" y1="67.9864" x2="6.66364" y2="69.0048" gradientUnits="userSpaceOnUse">
<stop stop-color="#B14810"/>
<stop offset="0.25" stop-color="#BA5A28"/>
<stop offset="0.45" stop-color="#B85625"/>
<stop offset="0.71" stop-color="#A43001"/>
<stop offset="0.84" stop-color="#D68E03"/>
<stop offset="0.91" stop-color="#EDB905"/>
<stop offset="0.94" stop-color="#E1A20C"/>
<stop offset="0.99" stop-color="#C3691E"/>
<stop offset="1" stop-color="#BF6221"/>
</linearGradient>
<linearGradient id="paint29_linear_31_1304" x1="114.962" y1="68.0627" x2="6.70723" y2="69.0789" gradientUnits="userSpaceOnUse">
<stop stop-color="#B14810"/>
<stop offset="0.25" stop-color="#BA5A28"/>
<stop offset="0.45" stop-color="#B85625"/>
<stop offset="0.71" stop-color="#A43001"/>
<stop offset="0.84" stop-color="#D68E03"/>
<stop offset="0.91" stop-color="#EDB905"/>
<stop offset="0.94" stop-color="#E1A20C"/>
<stop offset="0.99" stop-color="#C3691E"/>
<stop offset="1" stop-color="#BF6221"/>
</linearGradient>
<linearGradient id="paint30_linear_31_1304" x1="114.997" y1="68.0403" x2="6.67149" y2="69.0585" gradientUnits="userSpaceOnUse">
<stop stop-color="#B14810"/>
<stop offset="0.25" stop-color="#BA5A28"/>
<stop offset="0.45" stop-color="#B85625"/>
<stop offset="0.71" stop-color="#A43001"/>
<stop offset="0.84" stop-color="#D68E03"/>
<stop offset="0.91" stop-color="#EDB905"/>
<stop offset="0.94" stop-color="#E1A20C"/>
<stop offset="0.99" stop-color="#C3691E"/>
<stop offset="1" stop-color="#BF6221"/>
</linearGradient>
<linearGradient id="paint31_linear_31_1304" x1="115.014" y1="67.921" x2="6.65795" y2="68.9401" gradientUnits="userSpaceOnUse">
<stop stop-color="#B14810"/>
<stop offset="0.25" stop-color="#BA5A28"/>
<stop offset="0.45" stop-color="#B85625"/>
<stop offset="0.71" stop-color="#A43001"/>
<stop offset="0.84" stop-color="#D68E03"/>
<stop offset="0.91" stop-color="#EDB905"/>
<stop offset="0.94" stop-color="#E1A20C"/>
<stop offset="0.99" stop-color="#C3691E"/>
<stop offset="1" stop-color="#BF6221"/>
</linearGradient>
<linearGradient id="paint32_linear_31_1304" x1="114.98" y1="67.7064" x2="6.68479" y2="68.7237" gradientUnits="userSpaceOnUse">
<stop stop-color="#B14810"/>
<stop offset="0.25" stop-color="#BA5A28"/>
<stop offset="0.45" stop-color="#B85625"/>
<stop offset="0.71" stop-color="#A43001"/>
<stop offset="0.84" stop-color="#D68E03"/>
<stop offset="0.91" stop-color="#EDB905"/>
<stop offset="0.94" stop-color="#E1A20C"/>
<stop offset="0.99" stop-color="#C3691E"/>
<stop offset="1" stop-color="#BF6221"/>
</linearGradient>
<linearGradient id="paint33_linear_31_1304" x1="114.916" y1="67.4063" x2="6.71967" y2="68.4208" gradientUnits="userSpaceOnUse">
<stop stop-color="#B14810"/>
<stop offset="0.25" stop-color="#BA5A28"/>
<stop offset="0.45" stop-color="#B85625"/>
<stop offset="0.71" stop-color="#A43001"/>
<stop offset="0.84" stop-color="#D68E03"/>
<stop offset="0.91" stop-color="#EDB905"/>
<stop offset="0.94" stop-color="#E1A20C"/>
<stop offset="0.99" stop-color="#C3691E"/>
<stop offset="1" stop-color="#BF6221"/>
</linearGradient>
<linearGradient id="paint34_linear_31_1304" x1="115.059" y1="67.0084" x2="6.62824" y2="68.0244" gradientUnits="userSpaceOnUse">
<stop stop-color="#B14810"/>
<stop offset="0.25" stop-color="#BA5A28"/>
<stop offset="0.45" stop-color="#B85625"/>
<stop offset="0.71" stop-color="#A43001"/>
<stop offset="0.84" stop-color="#D68E03"/>
<stop offset="0.91" stop-color="#EDB905"/>
<stop offset="0.94" stop-color="#E1A20C"/>
<stop offset="0.99" stop-color="#C3691E"/>
<stop offset="1" stop-color="#BF6221"/>
</linearGradient>
<linearGradient id="paint35_linear_31_1304" x1="114.985" y1="66.5254" x2="6.66073" y2="67.5436" gradientUnits="userSpaceOnUse">
<stop stop-color="#B14810"/>
<stop offset="0.25" stop-color="#BA5A28"/>
<stop offset="0.45" stop-color="#B85625"/>
<stop offset="0.71" stop-color="#A43001"/>
<stop offset="0.84" stop-color="#D68E03"/>
<stop offset="0.91" stop-color="#EDB905"/>
<stop offset="0.94" stop-color="#E1A20C"/>
<stop offset="0.99" stop-color="#C3691E"/>
<stop offset="1" stop-color="#BF6221"/>
</linearGradient>
<linearGradient id="paint36_linear_31_1304" x1="114.993" y1="65.9589" x2="6.65586" y2="66.9775" gradientUnits="userSpaceOnUse">
<stop stop-color="#B14810"/>
<stop offset="0.25" stop-color="#BA5A28"/>
<stop offset="0.45" stop-color="#B85625"/>
<stop offset="0.71" stop-color="#A43001"/>
<stop offset="0.84" stop-color="#D68E03"/>
<stop offset="0.91" stop-color="#EDB905"/>
<stop offset="0.94" stop-color="#E1A20C"/>
<stop offset="0.99" stop-color="#C3691E"/>
<stop offset="1" stop-color="#BF6221"/>
</linearGradient>
<linearGradient id="paint37_linear_31_1304" x1="114.956" y1="65.3129" x2="6.66475" y2="66.3302" gradientUnits="userSpaceOnUse">
<stop stop-color="#B14810"/>
<stop offset="0.25" stop-color="#BA5A28"/>
<stop offset="0.45" stop-color="#B85625"/>
<stop offset="0.71" stop-color="#A43001"/>
<stop offset="0.84" stop-color="#D68E03"/>
<stop offset="0.91" stop-color="#EDB905"/>
<stop offset="0.94" stop-color="#E1A20C"/>
<stop offset="0.99" stop-color="#C3691E"/>
<stop offset="1" stop-color="#BF6221"/>
</linearGradient>
<linearGradient id="paint38_linear_31_1304" x1="115.078" y1="64.5867" x2="6.61748" y2="65.609" gradientUnits="userSpaceOnUse">
<stop stop-color="#B14810"/>
<stop offset="0.25" stop-color="#BA5A28"/>
<stop offset="0.45" stop-color="#B85625"/>
<stop offset="0.71" stop-color="#A43001"/>
<stop offset="0.84" stop-color="#D68E03"/>
<stop offset="0.91" stop-color="#EDB905"/>
<stop offset="0.94" stop-color="#E1A20C"/>
<stop offset="0.99" stop-color="#C3691E"/>
<stop offset="1" stop-color="#BF6221"/>
</linearGradient>
<linearGradient id="paint39_linear_31_1304" x1="114.833" y1="63.796" x2="6.68438" y2="64.8091" gradientUnits="userSpaceOnUse">
<stop stop-color="#B14810"/>
<stop offset="0.25" stop-color="#BA5A28"/>
<stop offset="0.45" stop-color="#B85625"/>
<stop offset="0.71" stop-color="#A43001"/>
<stop offset="0.84" stop-color="#D68E03"/>
<stop offset="0.91" stop-color="#EDB905"/>
<stop offset="0.94" stop-color="#E1A20C"/>
<stop offset="0.99" stop-color="#C3691E"/>
<stop offset="1" stop-color="#BF6221"/>
</linearGradient>
<linearGradient id="paint40_linear_31_1304" x1="115.125" y1="62.9195" x2="6.5984" y2="63.9382" gradientUnits="userSpaceOnUse">
<stop stop-color="#B14810"/>
<stop offset="0.25" stop-color="#BA5A28"/>
<stop offset="0.45" stop-color="#B85625"/>
<stop offset="0.71" stop-color="#A43001"/>
<stop offset="0.84" stop-color="#D68E03"/>
<stop offset="0.91" stop-color="#EDB905"/>
<stop offset="0.94" stop-color="#E1A20C"/>
<stop offset="0.99" stop-color="#C3691E"/>
<stop offset="1" stop-color="#BF6221"/>
</linearGradient>
<linearGradient id="paint41_linear_31_1304" x1="114.657" y1="61.9841" x2="6.69055" y2="62.9973" gradientUnits="userSpaceOnUse">
<stop stop-color="#B14810"/>
<stop offset="0.25" stop-color="#BA5A28"/>
<stop offset="0.45" stop-color="#B85625"/>
<stop offset="0.71" stop-color="#A43001"/>
<stop offset="0.84" stop-color="#D68E03"/>
<stop offset="0.91" stop-color="#EDB905"/>
<stop offset="0.94" stop-color="#E1A20C"/>
<stop offset="0.99" stop-color="#C3691E"/>
<stop offset="1" stop-color="#BF6221"/>
</linearGradient>
<linearGradient id="paint42_linear_31_1304" x1="114.883" y1="60.969" x2="6.62939" y2="61.9852" gradientUnits="userSpaceOnUse">
<stop stop-color="#B14810"/>
<stop offset="0.25" stop-color="#BA5A28"/>
<stop offset="0.45" stop-color="#B85625"/>
<stop offset="0.71" stop-color="#A43001"/>
<stop offset="0.84" stop-color="#D68E03"/>
<stop offset="0.91" stop-color="#EDB905"/>
<stop offset="0.94" stop-color="#E1A20C"/>
<stop offset="0.99" stop-color="#C3691E"/>
<stop offset="1" stop-color="#BF6221"/>
</linearGradient>
<linearGradient id="paint43_linear_31_1304" x1="115.106" y1="59.8948" x2="6.58273" y2="60.9135" gradientUnits="userSpaceOnUse">
<stop stop-color="#B14810"/>
<stop offset="0.25" stop-color="#BA5A28"/>
<stop offset="0.45" stop-color="#B85625"/>
<stop offset="0.71" stop-color="#A43001"/>
<stop offset="0.84" stop-color="#D68E03"/>
<stop offset="0.91" stop-color="#EDB905"/>
<stop offset="0.94" stop-color="#E1A20C"/>
<stop offset="0.99" stop-color="#C3691E"/>
<stop offset="1" stop-color="#BF6221"/>
</linearGradient>
<linearGradient id="paint44_linear_31_1304" x1="114.954" y1="58.7566" x2="6.5956" y2="59.7757" gradientUnits="userSpaceOnUse">
<stop stop-color="#B14810"/>
<stop offset="0.25" stop-color="#BA5A28"/>
<stop offset="0.45" stop-color="#B85625"/>
<stop offset="0.71" stop-color="#A43001"/>
<stop offset="0.84" stop-color="#D68E03"/>
<stop offset="0.91" stop-color="#EDB905"/>
<stop offset="0.94" stop-color="#E1A20C"/>
<stop offset="0.99" stop-color="#C3691E"/>
<stop offset="1" stop-color="#BF6221"/>
</linearGradient>
<linearGradient id="paint45_linear_31_1304" x1="114.526" y1="57.5665" x2="6.63178" y2="58.583" gradientUnits="userSpaceOnUse">
<stop stop-color="#B14810"/>
<stop offset="0.25" stop-color="#BA5A28"/>
<stop offset="0.45" stop-color="#B85625"/>
<stop offset="0.71" stop-color="#A43001"/>
<stop offset="0.84" stop-color="#D68E03"/>
<stop offset="0.91" stop-color="#EDB905"/>
<stop offset="0.94" stop-color="#E1A20C"/>
<stop offset="0.99" stop-color="#C3691E"/>
<stop offset="1" stop-color="#BF6221"/>
</linearGradient>
<linearGradient id="paint46_linear_31_1304" x1="115.055" y1="56.3107" x2="6.56358" y2="57.3284" gradientUnits="userSpaceOnUse">
<stop stop-color="#B14810"/>
<stop offset="0.25" stop-color="#BA5A28"/>
<stop offset="0.45" stop-color="#B85625"/>
<stop offset="0.71" stop-color="#A43001"/>
<stop offset="0.84" stop-color="#D68E03"/>
<stop offset="0.91" stop-color="#EDB905"/>
<stop offset="0.94" stop-color="#E1A20C"/>
<stop offset="0.99" stop-color="#C3691E"/>
<stop offset="1" stop-color="#BF6221"/>
</linearGradient>
<linearGradient id="paint47_linear_31_1304" x1="114.785" y1="55.0085" x2="6.57383" y2="56.0288" gradientUnits="userSpaceOnUse">
<stop stop-color="#B14810"/>
<stop offset="0.25" stop-color="#BA5A28"/>
<stop offset="0.45" stop-color="#B85625"/>
<stop offset="0.71" stop-color="#A43001"/>
<stop offset="0.84" stop-color="#D68E03"/>
<stop offset="0.91" stop-color="#EDB905"/>
<stop offset="0.94" stop-color="#E1A20C"/>
<stop offset="0.99" stop-color="#C3691E"/>
<stop offset="1" stop-color="#BF6221"/>
</linearGradient>
<linearGradient id="paint48_linear_31_1304" x1="114.618" y1="53.6548" x2="6.57153" y2="54.6702" gradientUnits="userSpaceOnUse">
<stop stop-color="#B14810"/>
<stop offset="0.25" stop-color="#BA5A28"/>
<stop offset="0.45" stop-color="#B85625"/>
<stop offset="0.71" stop-color="#A43001"/>
<stop offset="0.84" stop-color="#D68E03"/>
<stop offset="0.91" stop-color="#EDB905"/>
<stop offset="0.94" stop-color="#E1A20C"/>
<stop offset="0.99" stop-color="#C3691E"/>
<stop offset="1" stop-color="#BF6221"/>
</linearGradient>
<linearGradient id="paint49_linear_31_1304" x1="115.227" y1="52.2456" x2="6.5258" y2="53.2694" gradientUnits="userSpaceOnUse">
<stop stop-color="#B14810"/>
<stop offset="0.25" stop-color="#BA5A28"/>
<stop offset="0.45" stop-color="#B85625"/>
<stop offset="0.71" stop-color="#A43001"/>
<stop offset="0.84" stop-color="#D68E03"/>
<stop offset="0.91" stop-color="#EDB905"/>
<stop offset="0.94" stop-color="#E1A20C"/>
<stop offset="0.99" stop-color="#C3691E"/>
<stop offset="1" stop-color="#BF6221"/>
</linearGradient>
<linearGradient id="paint50_linear_31_1304" x1="115.307" y1="50.7985" x2="6.51571" y2="51.8195" gradientUnits="userSpaceOnUse">
<stop stop-color="#B14810"/>
<stop offset="0.25" stop-color="#BA5A28"/>
<stop offset="0.45" stop-color="#B85625"/>
<stop offset="0.71" stop-color="#A43001"/>
<stop offset="0.84" stop-color="#D68E03"/>
<stop offset="0.91" stop-color="#EDB905"/>
<stop offset="0.94" stop-color="#E1A20C"/>
<stop offset="0.99" stop-color="#C3691E"/>
<stop offset="1" stop-color="#BF6221"/>
</linearGradient>
<linearGradient id="paint51_linear_31_1304" x1="115.093" y1="49.2999" x2="6.50999" y2="50.3203" gradientUnits="userSpaceOnUse">
<stop stop-color="#B14810"/>
<stop offset="0.25" stop-color="#BA5A28"/>
<stop offset="0.45" stop-color="#B85625"/>
<stop offset="0.71" stop-color="#A43001"/>
<stop offset="0.84" stop-color="#D68E03"/>
<stop offset="0.91" stop-color="#EDB905"/>
<stop offset="0.94" stop-color="#E1A20C"/>
<stop offset="0.99" stop-color="#C3691E"/>
<stop offset="1" stop-color="#BF6221"/>
</linearGradient>
<linearGradient id="paint52_linear_31_1304" x1="115.071" y1="47.7796" x2="6.49814" y2="48.7998" gradientUnits="userSpaceOnUse">
<stop stop-color="#B14810"/>
<stop offset="0.25" stop-color="#BA5A28"/>
<stop offset="0.45" stop-color="#B85625"/>
<stop offset="0.71" stop-color="#A43001"/>
<stop offset="0.84" stop-color="#D68E03"/>
<stop offset="0.91" stop-color="#EDB905"/>
<stop offset="0.94" stop-color="#E1A20C"/>
<stop offset="0.99" stop-color="#C3691E"/>
<stop offset="1" stop-color="#BF6221"/>
</linearGradient>
<linearGradient id="paint53_linear_31_1304" x1="115.712" y1="46.2143" x2="6.47958" y2="47.2427" gradientUnits="userSpaceOnUse">
<stop stop-color="#B14810"/>
<stop offset="0.25" stop-color="#BA5A28"/>
<stop offset="0.45" stop-color="#B85625"/>
<stop offset="0.71" stop-color="#A43001"/>
<stop offset="0.84" stop-color="#D68E03"/>
<stop offset="0.91" stop-color="#EDB905"/>
<stop offset="0.94" stop-color="#E1A20C"/>
<stop offset="0.99" stop-color="#C3691E"/>
<stop offset="1" stop-color="#BF6221"/>
</linearGradient>
<linearGradient id="paint54_linear_31_1304" x1="114.876" y1="44.6099" x2="6.47041" y2="45.6305" gradientUnits="userSpaceOnUse">
<stop stop-color="#B14810"/>
<stop offset="0.25" stop-color="#BA5A28"/>
<stop offset="0.45" stop-color="#B85625"/>
<stop offset="0.71" stop-color="#A43001"/>
<stop offset="0.84" stop-color="#D68E03"/>
<stop offset="0.91" stop-color="#EDB905"/>
<stop offset="0.94" stop-color="#E1A20C"/>
<stop offset="0.99" stop-color="#C3691E"/>
<stop offset="1" stop-color="#BF6221"/>
</linearGradient>
<linearGradient id="paint55_linear_31_1304" x1="115.16" y1="42.9721" x2="6.45501" y2="43.991" gradientUnits="userSpaceOnUse">
<stop stop-color="#B14810"/>
<stop offset="0.25" stop-color="#BA5A28"/>
<stop offset="0.45" stop-color="#B85625"/>
<stop offset="0.71" stop-color="#A43001"/>
<stop offset="0.84" stop-color="#D68E03"/>
<stop offset="0.91" stop-color="#EDB905"/>
<stop offset="0.94" stop-color="#E1A20C"/>
<stop offset="0.99" stop-color="#C3691E"/>
<stop offset="1" stop-color="#BF6221"/>
</linearGradient>
<linearGradient id="paint56_linear_31_1304" x1="90.2889" y1="4.12663" x2="30.3425" y2="65.6004" gradientUnits="userSpaceOnUse">
<stop stop-color="#FFD83B"/>
<stop offset="0.36" stop-color="#BD5D02"/>
<stop offset="0.56" stop-color="#D58902"/>
<stop offset="0.73" stop-color="#EDB905"/>
<stop offset="0.94" stop-color="#FFD83B"/>
</linearGradient>
<linearGradient id="paint57_linear_31_1304" x1="20.1648" y1="34.9387" x2="101.055" y2="32.5816" gradientUnits="userSpaceOnUse">
<stop stop-color="#D58902"/>
<stop offset="0.32" stop-color="#EDB905"/>
<stop offset="0.62" stop-color="#FFD83B"/>
<stop offset="0.69" stop-color="#FEE355"/>
<stop offset="0.8" stop-color="#FEF27A"/>
<stop offset="0.86" stop-color="#FEF38A"/>
<stop offset="1" stop-color="#FFF7AE"/>
</linearGradient>
<linearGradient id="paint58_linear_31_1304" x1="47.8008" y1="39.6108" x2="71.6829" y2="30.183" gradientUnits="userSpaceOnUse">
<stop stop-color="#D58902"/>
<stop offset="0.31" stop-color="#EDB905"/>
<stop offset="0.62" stop-color="#FFD83B"/>
<stop offset="0.69" stop-color="#FEE355"/>
<stop offset="0.8" stop-color="#FEF27A"/>
<stop offset="0.86" stop-color="#FEF38A"/>
<stop offset="1" stop-color="#FFF7AE"/>
</linearGradient>
<radialGradient id="paint59_radial_31_1304" cx="0" cy="0" r="1" gradientUnits="userSpaceOnUse" gradientTransform="translate(-69.7641 -0.436358) rotate(32.8548) scale(13.3561 1.90846)">
<stop stop-color="white"/>
<stop offset="0.22" stop-color="#FFFF63"/>
<stop offset="0.65" stop-color="#FF3600"/>
<stop offset="1"/>
</radialGradient>
<radialGradient id="paint60_radial_31_1304" cx="0" cy="0" r="1" gradientUnits="userSpaceOnUse" gradientTransform="translate(-30.225 -52.8065) rotate(32.8549) scale(13.3542 1.90819)">
<stop stop-color="white"/>
<stop offset="0.22" stop-color="#FFFF63"/>
<stop offset="0.65" stop-color="#FF3600"/>
<stop offset="1"/>
</radialGradient>
<linearGradient id="paint61_linear_31_1304" x1="15.473" y1="53.6337" x2="105.734" y2="14.3339" gradientUnits="userSpaceOnUse">
<stop stop-color="#262626"/>
<stop offset="0.64" stop-color="#262626"/>
<stop offset="0.68" stop-color="#343433"/>
<stop offset="0.74" stop-color="#595857"/>
<stop offset="0.83" stop-color="#959391"/>
<stop offset="0.86" stop-color="#B0AEAB"/>
</linearGradient>
<linearGradient id="paint62_linear_31_1304" x1="48.9657" y1="67.3781" x2="71.2624" y2="0.106456" gradientUnits="userSpaceOnUse">
<stop stop-color="#262626"/>
<stop offset="0.64" stop-color="#262626"/>
<stop offset="0.68" stop-color="#343433"/>
<stop offset="0.74" stop-color="#595857"/>
<stop offset="0.83" stop-color="#959391"/>
<stop offset="0.86" stop-color="#B0AEAB"/>
</linearGradient>
<linearGradient id="paint63_linear_31_1304" x1="14.7055" y1="54.594" x2="103.753" y2="15.8231" gradientUnits="userSpaceOnUse">
<stop stop-color="#262626"/>
<stop offset="0.64" stop-color="#262626"/>
<stop offset="0.68" stop-color="#343433"/>
<stop offset="0.74" stop-color="#595857"/>
<stop offset="0.83" stop-color="#959391"/>
<stop offset="0.86" stop-color="#B0AEAB"/>
</linearGradient>
</defs>
</svg>
