<svg width="172" height="32" viewBox="0 0 172 32" fill="none" xmlns="http://www.w3.org/2000/svg">
<path d="M15.3067 4.66529C15.3631 4.52774 15.4591 4.41006 15.5826 4.32724C15.7061 4.24442 15.8514 4.2002 16 4.2002C16.1487 4.2002 16.294 4.24442 16.4175 4.32724C16.5409 4.41006 16.637 4.52774 16.6934 4.66529L19.5267 11.48C19.5797 11.6075 19.6669 11.7179 19.7787 11.799C19.8904 11.8802 20.0224 11.929 20.16 11.94L27.5174 12.5293C28.1827 12.5826 28.452 13.4133 27.9454 13.8466L22.34 18.6493C22.2353 18.7389 22.1573 18.8556 22.1145 18.9866C22.0717 19.1176 22.0658 19.2578 22.0974 19.392L23.8107 26.572C23.8451 26.716 23.8361 26.867 23.7848 27.006C23.7334 27.1449 23.6421 27.2655 23.5222 27.3525C23.4024 27.4395 23.2594 27.4891 23.1114 27.4949C22.9634 27.5008 22.817 27.4626 22.6907 27.3853L16.3907 23.5386C16.273 23.4669 16.1379 23.429 16 23.429C15.8622 23.429 15.7271 23.4669 15.6094 23.5386L9.30937 27.3866C9.18305 27.464 9.03664 27.5021 8.88865 27.4963C8.74065 27.4904 8.59771 27.4409 8.47786 27.3538C8.35802 27.2668 8.26665 27.1462 8.21531 27.0073C8.16396 26.8684 8.15494 26.7173 8.18937 26.5733L9.90271 19.392C9.93448 19.2578 9.92864 19.1175 9.88583 18.9865C9.84301 18.8555 9.76488 18.7388 9.66004 18.6493L4.05471 13.8466C3.94246 13.7501 3.86125 13.6226 3.8213 13.48C3.78136 13.3375 3.78445 13.1863 3.83019 13.0455C3.87594 12.9047 3.96229 12.7806 4.07839 12.6887C4.19449 12.5969 4.33516 12.5414 4.48271 12.5293L11.84 11.94C11.9777 11.929 12.1097 11.8802 12.2214 11.799C12.3331 11.7179 12.4203 11.6075 12.4734 11.48L15.3067 4.66529Z" fill="white" stroke="white" stroke-width="1.5" stroke-linecap="round" stroke-linejoin="round"/>
<path d="M50.3067 4.66529C50.3631 4.52774 50.4591 4.41006 50.5826 4.32724C50.7061 4.24442 50.8514 4.2002 51 4.2002C51.1487 4.2002 51.294 4.24442 51.4175 4.32724C51.5409 4.41006 51.637 4.52774 51.6934 4.66529L54.5267 11.48C54.5797 11.6075 54.6669 11.7179 54.7787 11.799C54.8904 11.8802 55.0224 11.929 55.16 11.94L62.5174 12.5293C63.1827 12.5826 63.452 13.4133 62.9454 13.8466L57.34 18.6493C57.2353 18.7389 57.1573 18.8556 57.1145 18.9866C57.0717 19.1176 57.0658 19.2578 57.0974 19.392L58.8107 26.572C58.8451 26.716 58.8361 26.867 58.7848 27.006C58.7334 27.1449 58.6421 27.2655 58.5222 27.3525C58.4024 27.4395 58.2594 27.4891 58.1114 27.4949C57.9634 27.5008 57.817 27.4626 57.6907 27.3853L51.3907 23.5386C51.273 23.4669 51.1379 23.429 51 23.429C50.8622 23.429 50.7271 23.4669 50.6094 23.5386L44.3094 27.3866C44.183 27.464 44.0366 27.5021 43.8886 27.4963C43.7407 27.4904 43.5977 27.4409 43.4779 27.3538C43.358 27.2668 43.2667 27.1462 43.2153 27.0073C43.164 26.8684 43.1549 26.7173 43.1894 26.5733L44.9027 19.392C44.9345 19.2578 44.9286 19.1175 44.8858 18.9865C44.843 18.8555 44.7649 18.7388 44.66 18.6493L39.0547 13.8466C38.9425 13.7501 38.8613 13.6226 38.8213 13.48C38.7814 13.3375 38.7844 13.1863 38.8302 13.0455C38.8759 12.9047 38.9623 12.7806 39.0784 12.6887C39.1945 12.5969 39.3352 12.5414 39.4827 12.5293L46.84 11.94C46.9777 11.929 47.1097 11.8802 47.2214 11.799C47.3331 11.7179 47.4203 11.6075 47.4734 11.48L50.3067 4.66529Z" fill="white" stroke="white" stroke-width="1.5" stroke-linecap="round" stroke-linejoin="round"/>
<path d="M85.3067 4.66529C85.3631 4.52774 85.4591 4.41006 85.5826 4.32724C85.7061 4.24442 85.8514 4.2002 86 4.2002C86.1487 4.2002 86.294 4.24442 86.4175 4.32724C86.5409 4.41006 86.637 4.52774 86.6934 4.66529L89.5267 11.48C89.5797 11.6075 89.6669 11.7179 89.7787 11.799C89.8904 11.8802 90.0224 11.929 90.16 11.94L97.5174 12.5293C98.1827 12.5826 98.452 13.4133 97.9454 13.8466L92.34 18.6493C92.2353 18.7389 92.1573 18.8556 92.1145 18.9866C92.0717 19.1176 92.0658 19.2578 92.0974 19.392L93.8107 26.572C93.8451 26.716 93.8361 26.867 93.7848 27.006C93.7334 27.1449 93.6421 27.2655 93.5222 27.3525C93.4024 27.4395 93.2594 27.4891 93.1114 27.4949C92.9634 27.5008 92.817 27.4626 92.6907 27.3853L86.3907 23.5386C86.273 23.4669 86.1379 23.429 86 23.429C85.8622 23.429 85.7271 23.4669 85.6094 23.5386L79.3094 27.3866C79.183 27.464 79.0366 27.5021 78.8886 27.4963C78.7407 27.4904 78.5977 27.4409 78.4779 27.3538C78.358 27.2668 78.2667 27.1462 78.2153 27.0073C78.164 26.8684 78.1549 26.7173 78.1894 26.5733L79.9027 19.392C79.9345 19.2578 79.9286 19.1175 79.8858 18.9865C79.843 18.8555 79.7649 18.7388 79.66 18.6493L74.0547 13.8466C73.9425 13.7501 73.8613 13.6226 73.8213 13.48C73.7814 13.3375 73.7844 13.1863 73.8302 13.0455C73.8759 12.9047 73.9623 12.7806 74.0784 12.6887C74.1945 12.5969 74.3352 12.5414 74.4827 12.5293L81.84 11.94C81.9777 11.929 82.1097 11.8802 82.2214 11.799C82.3331 11.7179 82.4203 11.6075 82.4734 11.48L85.3067 4.66529Z" fill="white" stroke="white" stroke-width="1.5" stroke-linecap="round" stroke-linejoin="round"/>
<path d="M120.307 4.66529C120.363 4.52774 120.459 4.41006 120.583 4.32724C120.706 4.24442 120.851 4.2002 121 4.2002C121.149 4.2002 121.294 4.24442 121.417 4.32724C121.541 4.41006 121.637 4.52774 121.693 4.66529L124.527 11.48C124.58 11.6075 124.667 11.7179 124.779 11.799C124.89 11.8802 125.022 11.929 125.16 11.94L132.517 12.5293C133.183 12.5826 133.452 13.4133 132.945 13.8466L127.34 18.6493C127.235 18.7389 127.157 18.8556 127.114 18.9866C127.072 19.1176 127.066 19.2578 127.097 19.392L128.811 26.572C128.845 26.716 128.836 26.867 128.785 27.006C128.733 27.1449 128.642 27.2655 128.522 27.3525C128.402 27.4395 128.259 27.4891 128.111 27.4949C127.963 27.5008 127.817 27.4626 127.691 27.3853L121.391 23.5386C121.273 23.4669 121.138 23.429 121 23.429C120.862 23.429 120.727 23.4669 120.609 23.5386L114.309 27.3866C114.183 27.464 114.037 27.5021 113.889 27.4963C113.741 27.4904 113.598 27.4409 113.478 27.3538C113.358 27.2668 113.267 27.1462 113.215 27.0073C113.164 26.8684 113.155 26.7173 113.189 26.5733L114.903 19.392C114.934 19.2578 114.929 19.1175 114.886 18.9865C114.843 18.8555 114.765 18.7388 114.66 18.6493L109.055 13.8466C108.942 13.7501 108.861 13.6226 108.821 13.48C108.781 13.3375 108.784 13.1863 108.83 13.0455C108.876 12.9047 108.962 12.7806 109.078 12.6887C109.194 12.5969 109.335 12.5414 109.483 12.5293L116.84 11.94C116.978 11.929 117.11 11.8802 117.221 11.799C117.333 11.7179 117.42 11.6075 117.473 11.48L120.307 4.66529Z" fill="white" stroke="white" stroke-width="1.5" stroke-linecap="round" stroke-linejoin="round"/>
<path d="M155.307 4.66529C155.363 4.52774 155.459 4.41006 155.583 4.32724C155.706 4.24442 155.851 4.2002 156 4.2002C156.149 4.2002 156.294 4.24442 156.417 4.32724C156.541 4.41006 156.637 4.52774 156.693 4.66529L159.527 11.48C159.58 11.6075 159.667 11.7179 159.779 11.799C159.89 11.8802 160.022 11.929 160.16 11.94L167.517 12.5293C168.183 12.5826 168.452 13.4133 167.945 13.8466L162.34 18.6493C162.235 18.7389 162.157 18.8556 162.114 18.9866C162.072 19.1176 162.066 19.2578 162.097 19.392L163.811 26.572C163.845 26.716 163.836 26.867 163.785 27.006C163.733 27.1449 163.642 27.2655 163.522 27.3525C163.402 27.4395 163.259 27.4891 163.111 27.4949C162.963 27.5008 162.817 27.4626 162.691 27.3853L156.391 23.5386C156.273 23.4669 156.138 23.429 156 23.429C155.862 23.429 155.727 23.4669 155.609 23.5386L149.309 27.3866C149.183 27.464 149.037 27.5021 148.889 27.4963C148.741 27.4904 148.598 27.4409 148.478 27.3538C148.358 27.2668 148.267 27.1462 148.215 27.0073C148.164 26.8684 148.155 26.7173 148.189 26.5733L149.903 19.392C149.934 19.2578 149.929 19.1175 149.886 18.9865C149.843 18.8555 149.765 18.7388 149.66 18.6493L144.055 13.8466C143.942 13.7501 143.861 13.6226 143.821 13.48C143.781 13.3375 143.784 13.1863 143.83 13.0455C143.876 12.9047 143.962 12.7806 144.078 12.6887C144.194 12.5969 144.335 12.5414 144.483 12.5293L151.84 11.94C151.978 11.929 152.11 11.8802 152.221 11.799C152.333 11.7179 152.42 11.6075 152.473 11.48L155.307 4.66529Z" fill="white" stroke="white" stroke-width="1.5" stroke-linecap="round" stroke-linejoin="round"/>
</svg>
